<svg xmlns="http://www.w3.org/2000/svg" width="15.03" height="20.031" viewbox="0 0 15.03 20.031">
            <style>#skype { fill: #00aff0; fill-rule: evenodd; }</style>
            <path id="skype" d="M1296.6,693.979c-3.95.225-5.8-.727-7.49-2.453-1.89-1.928-1.13-4.127.41-4.238s2.46,1.895,3.28,2.453,3.95,1.827,5.6-.224c1.79-2.229-1.2-3.386-3.39-3.735-3.13-.5-7.08-2.342-6.77-5.969a5.955,5.955,0,0,1,5.49-5.744c3.38-.335,5.59.555,7.33,2.173,2.02,1.871.93,3.96-.36,4.127s-2.71-3.075-5.54-3.123c-2.91-.049-4.87,3.293-1.28,4.241s7.44,1.338,8.83,4.907S1300.55,693.755,1296.6,693.979Z" transform="translate(-1288 -673.969)"></path>
          </svg>