<svg xmlns="http://www.w3.org/2000/svg" width="22" height="22"><style>#instagram{fill-rule:evenodd;fill:url(#linear-gradient)}</style><path id="instagram" d="M1143 673h6a8 8 0 0 1 8 8v6a8 8 0 0 1-8 8h-6a8 8 0 0 1-8-8v-6a8 8 0 0 1 8-8zm1 1h4a8 8 0 0 1 8 8v4a8 8 0 0 1-8 8h-4a8 8 0 0 1-8-8v-4a8 8 0 0 1 8-8zm7 3a1 1 0 1 1-1 1 1 1 0 0 1 1-1zm-5 1.867a5.133 5.133 0 1 1-5.13 5.133 5.127 5.127 0 0 1 5.13-5.133zm0 1.466a3.667 3.667 0 1 1-3.67 3.667 3.667 3.667 0 0 1 3.67-3.667z" transform="translate(-1135 -673)"/></svg>