<svg xmlns="http://www.w3.org/2000/svg" width="25" height="22"><style>#telegram{fill:#08c;fill-rule:evenodd}</style><path id="telegram" d="M1373.43 683.549l5.76 2.173 2.23 7.247a.678.678 0 0 0 1.08.328l3.21-2.646a.952.952 0 0 1 1.17-.032l5.8 4.249a.674.674 0 0 0 1.06-.415l4.25-20.625a.684.684 0 0 0-.91-.78l-23.66 9.217a.689.689 0 0 0 .01 1.284zm7.63 1.016l11.27-7.008a.2.2 0 0 1 .23.314l-9.29 8.729a1.945 1.945 0 0 0-.6 1.165l-.32 2.37a.285.285 0 0 1-.56.042l-1.22-4.323a1.15 1.15 0 0 1 .49-1.289zm0 0" transform="translate(-1373 -673)"/></svg>