<svg xmlns="http://www.w3.org/2000/svg" width="22" height="18"><style>#twitter{fill:#1da1f2;fill-rule:evenodd}</style><path id="twitter" d="M1060.39 675.333a9.068 9.068 0 0 1-2.86 1.1 4.51 4.51 0 0 0-7.81 3.109 5.026 5.026 0 0 0 .11 1.035 12.792 12.792 0 0 1-9.3-4.749 4.57 4.57 0 0 0 1.4 6.067 4.436 4.436 0 0 1-2.04-.571v.057a4.538 4.538 0 0 0 3.62 4.458 4.592 4.592 0 0 1-1.19.159 4.457 4.457 0 0 1-.85-.082 4.518 4.518 0 0 0 4.21 3.157 9.005 9.005 0 0 1-5.6 1.944 9.277 9.277 0 0 1-1.08-.062 12.819 12.819 0 0 0 19.76-10.89l-.02-.589a8.983 8.983 0 0 0 2.26-2.349 9.012 9.012 0 0 1-2.59.716 4.576 4.576 0 0 0 1.98-2.51z" transform="translate(-1039 -675)"/></svg>