<svg xmlns="http://www.w3.org/2000/svg" width="29" height="16"><style>#VK{fill:#45668e;fill-rule:evenodd}</style><path id="VK" d="M976.959 686.19a38.943 38.943 0 0 1 2.84 2.789 8.115 8.115 0 0 1 1.018 1.433 1.02 1.02 0 0 1-.643 1.6h-4.224a3.3 3.3 0 0 1-2.69-1.068c-.585-.582-1.127-1.2-1.689-1.8a3.968 3.968 0 0 0-.761-.66.893.893 0 0 0-1.407.333 4.261 4.261 0 0 0-.444 1.925c-.046.972-.346 1.227-1.346 1.272a11.024 11.024 0 0 1-6.045-1.27 13.228 13.228 0 0 1-4.068-3.719 49.783 49.783 0 0 1-5.354-9.318c-.337-.734-.09-1.129.74-1.143 1.378-.026 2.756-.024 4.136 0a1.212 1.212 0 0 1 1.147.839 24.853 24.853 0 0 0 2.8 5.073 4.369 4.369 0 0 0 1.059 1.136.648.648 0 0 0 1.093-.314 3.453 3.453 0 0 0 .243-1.063 15.407 15.407 0 0 0-.068-3.729 1.57 1.57 0 0 0-1.355-1.423c-.4-.074-.344-.221-.148-.446a1.53 1.53 0 0 1 1.295-.63h4.775a1.119 1.119 0 0 1 1.022 1.213v5.179a1.5 1.5 0 0 0 .673 1.324.945.945 0 0 0 .954-.457 16.03 16.03 0 0 0 2.688-4.034c.323-.638.6-1.3.871-1.962a1.022 1.022 0 0 1 1.08-.721h4.6a2.488 2.488 0 0 1 .406.024c.774.129.987.454.748 1.192a11.164 11.164 0 0 1-1.827 3.094c-.767 1.035-1.586 2.035-2.346 3.077-.7.951-.643 1.431.224 2.257z" transform="translate(-952 -676)"/></svg>