<svg version="1" xmlns="http://www.w3.org/2000/svg" width="1824.73" height="1032.413" viewBox="0 0 1824.73 1032.413"><g fill="#900"><path d="M1315.346 626.965c-10.911 4.599-21.929 6.902-33.043 6.902-17.549 0-33.323-3.059-47.338-9.16-14.015-6.108-25.832-14.52-35.46-25.242-9.627-10.715-17.005-23.311-22.14-37.778s-7.702-30.068-7.702-46.786c0-17.141 2.56-33.059 7.68-47.746 5.12-14.679 12.482-27.485 22.087-38.42 9.604-10.934 21.407-19.504 35.414-25.726 14.008-6.215 29.781-9.325 47.33-9.325 11.765 0 23.151 1.773 34.169 5.315 11.017 3.549 20.962 8.759 29.842 15.631 8.88 6.871 16.204 15.344 21.98 25.409 5.776 10.073 9.311 21.626 10.595 34.674h-48.131c-2.998-12.828-8.774-22.456-17.33-28.875-8.562-6.418-18.938-9.627-31.125-9.627-11.342 0-20.969 2.197-28.883 6.592-7.913 4.395-14.332 10.292-19.255 17.685-4.924 7.399-8.503 15.812-10.745 25.243-2.25 9.432-3.368 19.18-3.368 29.253 0 9.649 1.125 19.028 3.376 28.136 2.25 9.105 5.837 17.307 10.76 24.593 4.924 7.287 11.35 13.124 19.277 17.519 7.922 4.395 17.564 6.592 28.921 6.592 16.703 0 29.601-4.213 38.707-12.641 9.106-8.426 14.407-20.645 15.91-36.652h-50.698v-37.695h96.125v123.891h-31.986l-5.119-25.99c-8.987 11.55-18.939 19.629-29.85 24.228zm148.65-227.483v186.541h111.672v42.527h-161.932V399.482h50.26z"/><path stroke="#FFF" stroke-width=".4" stroke-linecap="round" stroke-linejoin="round" d="M1226.304 657.026c-76.9 46.771-192.076 73.392-320.583 73.392-231.527 0-419.217-96.407-419.217-215.336 0-118.93 187.69-215.34 419.217-215.34 128.979 0 244.624 27.115 321.524 74.18-83.938-78.855-234.441-134.266-406.521-134.291-263.551-.044-477.221 123.248-477.244 275.375-.022 152.123 213.608 275.488 477.159 275.526 171.397.03 321.508-55.202 405.665-133.506z"/></g><g fill="#900" stroke="#900"><path stroke-width="5.5" d="M629.204 628.489H594.23l-64.129-243.775h36.002l45.957 198.279h.686l55.205-198.279h36.346l55.329 198.279h.686l45.822-198.279h38.39l-66.382 243.775h-35.099L686.81 426.474h-.686l-56.92 202.015z"/><path stroke-width="5" d="M971.736 578.072c-.935 7.712-8.413 30.543-28.977 44.118-7.478 4.936-17.938 11.106-44.11 11.106-45.803 0-72.419-34.246-72.419-80.833 0-49.98 23.678-89.78 77.582-89.78 47.048 0 70.105 37.023 70.105 94.1H855.518c0 33.629 15.399 53.066 46.869 53.066 25.861 0 40.995-19.746 41.93-31.777h27.419zm-26.173-42.885c-1.558-24.99-11.794-48.13-45.491-48.13-25.238 0-44.554 23.141-44.554 48.13h90.045zm53.402 93.588v-221.52h27.419v80.525h.624c11.84-16.969 28.042-24.683 47.048-24.99 43.31 0 68.416 35.171 68.416 80.523 0 38.565-16.693 90.089-72.155 90.089-27.731 0-39.259-15.734-44.868-24.683h-.624v20.055h-25.86zm70.106-141.611c-39.571 0-43.933 42.268-43.933 68.491 0 42.885 27.107 54.3 44.556 54.3 29.912 0 43.933-26.842 43.933-62.321-.001-20.671-2.181-60.47-44.556-60.47z"/></g></svg>