<svg 
 xmlns="http://www.w3.org/2000/svg"
 xmlns:xlink="http://www.w3.org/1999/xlink"
 width="19px" height="21px">
<path fill-rule="evenodd"  fill="rgb(255, 255, 255)"
 d="M16.997,6.069 C16.969,5.747 16.699,5.500 16.374,5.500 L13.251,5.500 L13.251,4.250 C13.251,2.182 11.569,0.500 9.499,0.500 C7.431,0.500 5.750,2.182 5.750,4.250 L5.750,5.500 L2.625,5.500 C2.302,5.500 2.033,5.747 2.002,6.069 L0.753,19.819 C0.737,19.993 0.795,20.167 0.913,20.296 C1.032,20.426 1.200,20.500 1.375,20.500 L17.625,20.500 C17.802,20.500 17.968,20.426 18.086,20.296 C18.204,20.167 18.263,19.993 18.247,19.819 L16.997,6.069 ZM7.000,4.250 C7.000,2.871 8.124,1.750 9.499,1.750 C10.878,1.750 12.000,2.871 12.000,4.250 L12.000,5.500 L7.000,5.500 L7.000,4.250 ZM2.061,19.250 L3.196,6.750 L5.750,6.750 L5.750,8.173 C5.377,8.390 5.126,8.789 5.126,9.250 C5.126,9.940 5.684,10.500 6.375,10.500 C7.066,10.500 7.624,9.940 7.624,9.250 C7.624,8.789 7.373,8.390 7.000,8.173 L7.000,6.750 L12.000,6.750 L12.000,8.173 C11.627,8.390 11.375,8.788 11.375,9.250 C11.375,9.940 11.936,10.500 12.625,10.500 C13.315,10.500 13.874,9.940 13.874,9.250 C13.874,8.789 13.623,8.390 13.251,8.173 L13.251,6.750 L15.805,6.750 L16.940,19.250 L2.061,19.250 Z"/>
</svg>