<svg 
 xmlns="http://www.w3.org/2000/svg"
 xmlns:xlink="http://www.w3.org/1999/xlink"
 width="21px" height="21px">
<path fill-rule="evenodd"  fill="rgb(255, 255, 255)"
 d="M19.701,20.500 L1.300,20.500 C0.858,20.500 0.501,20.142 0.501,19.700 C0.501,17.447 2.026,15.494 4.209,14.948 L7.041,14.240 L7.208,13.569 C6.518,12.796 6.029,11.809 5.827,10.791 C5.292,10.583 4.893,10.095 4.819,9.499 L4.620,7.898 C4.563,7.444 4.702,6.986 5.006,6.642 C5.125,6.508 5.262,6.396 5.414,6.310 C5.360,5.825 5.300,5.214 5.300,4.900 C5.300,3.280 5.779,1.420 9.449,1.305 C10.712,0.500 12.026,0.500 12.605,0.500 C14.540,0.500 15.504,1.349 15.971,2.062 C16.943,3.546 16.333,4.571 15.882,5.049 L15.684,5.247 L15.631,6.338 C15.768,6.422 15.893,6.527 16.000,6.651 C16.298,6.993 16.437,7.448 16.382,7.898 L16.181,9.499 C16.112,10.057 15.757,10.521 15.274,10.748 C15.070,11.818 14.550,12.849 13.811,13.645 L13.958,14.240 L16.792,14.948 L16.792,14.948 C18.974,15.494 20.501,17.447 20.501,19.698 C20.501,20.140 20.143,20.500 19.701,20.500 ZM2.198,18.900 L18.802,18.900 C18.514,17.737 17.607,16.802 16.404,16.500 L13.106,15.676 C12.820,15.604 12.595,15.381 12.525,15.094 L12.148,13.591 C12.077,13.303 12.170,12.999 12.389,12.801 C13.152,12.118 13.677,11.059 13.758,10.037 C13.791,9.621 14.137,9.300 14.554,9.300 L14.793,7.700 C14.577,7.698 14.368,7.608 14.220,7.449 C14.071,7.291 13.992,7.080 14.003,6.863 L14.101,4.861 C14.111,4.662 14.194,4.475 14.333,4.334 L14.735,3.934 C14.853,3.808 15.058,3.590 14.630,2.938 C14.261,2.375 13.598,2.100 12.605,2.100 C12.108,2.100 11.074,2.100 10.166,2.750 C10.032,2.846 9.872,2.899 9.708,2.900 C6.901,2.928 6.901,3.930 6.901,4.900 C6.901,5.229 7.011,6.240 7.083,6.800 C7.112,7.028 7.041,7.257 6.889,7.429 C6.738,7.601 6.518,7.700 6.289,7.700 L6.207,7.700 L6.406,9.300 L6.535,9.300 C6.953,9.300 7.300,9.620 7.334,10.036 C7.414,11.043 7.902,12.056 8.640,12.748 C8.850,12.947 8.940,13.244 8.867,13.525 L8.476,15.094 C8.404,15.381 8.181,15.604 7.894,15.676 L4.597,16.500 C3.392,16.802 2.486,17.738 2.198,18.900 Z"/>
</svg>