<svg 
 xmlns="http://www.w3.org/2000/svg"
 xmlns:xlink="http://www.w3.org/1999/xlink"
 width="25px" height="25px">
<path fill-rule="evenodd"  fill="rgb(246, 136, 24)"
 d="M-0.008,-0.008 L-0.008,25.008 L25.008,25.008 L25.008,-0.008 L-0.008,-0.008 ZM16.541,6.877 L14.585,6.877 C14.199,6.877 13.808,7.277 13.808,7.575 L13.808,9.568 L16.538,9.568 C16.427,11.097 16.202,12.495 16.202,12.495 L13.795,12.495 L13.795,21.159 L10.206,21.159 L10.206,12.494 L8.459,12.494 L8.459,9.579 L10.206,9.579 L10.206,7.195 C10.206,6.759 10.117,3.841 13.882,3.841 L16.541,3.841 L16.541,6.877 L16.541,6.877 Z"/>
</svg>