<?xml version="1.0" encoding="utf-8"?>
<!-- Generator: Adobe Illustrator 21.0.0, SVG Export Plug-In . SVG Version: 6.00 Build 0)  -->
<svg version="1.1" id="Слой_1" xmlns="http://www.w3.org/2000/svg" xmlns:xlink="http://www.w3.org/1999/xlink" x="0px" y="0px"
	 viewBox="0 0 80 80" style="enable-background:new 0 0 80 80;" xml:space="preserve">
<style type="text/css">
	.st0{fill:#F1F1F1;}
	.st1{fill:#FF8A5B;}
	.st2{fill:#2B2D42;}
	.st3{fill:#FFFFFF;}
	.st4{fill:#4982AA;}
	.st5{fill:#6CB8DD;}
	.st6{fill:#B3DCF4;}
	.st7{fill:#EDBA89;}
	.st8{fill:#87BED5;}
	.st9{fill:#6598CB;}
	.st10{fill:#694B4B;}
	.st11{fill:#563B3B;}
	.st12{fill:#FBCB99;}
	.st13{fill:none;stroke:#ED7205;stroke-width:2;stroke-linecap:round;stroke-linejoin:round;stroke-miterlimit:10;}
	.st14{fill:#FFFFFF;stroke:#231F20;stroke-width:2;stroke-linecap:round;stroke-linejoin:round;stroke-miterlimit:10;}
	.st15{fill:#ED7205;stroke:#FFFFFF;stroke-linecap:round;stroke-linejoin:round;stroke-miterlimit:10;}
	.st16{fill:#ED7205;}
	.st17{fill:#FFFFFF;stroke:#231F20;stroke-linecap:round;stroke-linejoin:round;stroke-miterlimit:10;}
	.st18{fill:#FFFFFF;stroke:#ED7205;stroke-linecap:round;stroke-linejoin:round;stroke-miterlimit:10;}
	.st19{fill:none;stroke:#ED7205;stroke-width:2;stroke-linecap:round;stroke-linejoin:round;}
	.st20{fill:none;stroke:#ED7205;stroke-width:2;stroke-linecap:round;stroke-linejoin:round;stroke-dasharray:5.9765,5.9765;}
	.st21{fill:none;stroke:#ED7205;stroke-width:2;stroke-linecap:round;stroke-linejoin:round;stroke-dasharray:5.9732,5.9732;}
	.st22{fill:none;stroke:#ED7205;stroke-width:2;stroke-linecap:round;stroke-linejoin:round;stroke-dasharray:5.9781,5.9781;}
	.st23{clip-path:url(#SVGID_2_);}
	.st24{fill:#ED7205;stroke:#FFFFFF;stroke-miterlimit:10;}
	.st25{fill:#F1F1F1;stroke:#ED7205;stroke-linecap:round;stroke-linejoin:round;stroke-miterlimit:10;}
	.st26{fill:none;stroke:#ED7205;stroke-linecap:round;stroke-linejoin:round;stroke-miterlimit:10;}
	.st27{fill:#F1F2F2;}
	.st28{fill:#ED7205;stroke:#F1F1F1;stroke-linecap:round;stroke-linejoin:round;stroke-miterlimit:10;}
	.st29{fill:none;}
	.st30{fill:#F1F1F1;stroke:#ED7205;stroke-width:2;stroke-linecap:round;stroke-linejoin:round;stroke-miterlimit:10;}
	.st31{fill:none;stroke:#F1F1F1;stroke-width:2;stroke-linecap:round;stroke-linejoin:round;stroke-miterlimit:10;}
</style>
<rect class="st29" width="80" height="80"/>
<g>
	<path class="st16" d="M26.8,66.2h-2.4c-0.4,0-0.8-0.4-0.8-0.8v-2.2h4v2.2C27.6,65.9,27.2,66.2,26.8,66.2z"/>
	<path class="st16" d="M55.6,66.2h-2.4c-0.4,0-0.8-0.4-0.8-0.8v-2.2h4v2.2C56.4,65.9,56.1,66.2,55.6,66.2z"/>
	<path class="st16" d="M65.4,44.5c-3.1,0-5.6-2.5-5.6-5.6c0-2.5,1.7-4.7,4.1-5.4c0.5-0.2,1.1,0.2,1.2,0.7c0.2,0.5-0.2,1.1-0.7,1.2
		c-1.5,0.4-2.6,1.9-2.6,3.5c0,2,1.6,3.6,3.6,3.6s3.6-1.6,3.6-3.6c0-0.6,0.4-1,1-1s1,0.4,1,1C71,42,68.5,44.5,65.4,44.5z"/>
	<path class="st16" d="M14.6,44.5C11.5,44.5,9,42,9,38.9c0-0.6,0.4-1,1-1s1,0.4,1,1c0,2,1.6,3.6,3.6,3.6s3.6-1.6,3.6-3.6
		c0-1.6-1.1-3-2.6-3.5c-0.5-0.2-0.8-0.7-0.7-1.2c0.2-0.5,0.7-0.8,1.2-0.7c2.4,0.7,4.1,2.9,4.1,5.4C20.2,42,17.7,44.5,14.6,44.5z"/>
	<path class="st16" d="M54.4,51.1H25.6v-9.8c0-1.7,1.4-3.2,3.2-3.2h22.5c1.7,0,3.2,1.4,3.2,3.2V51.1z"/>
	<path class="st16" d="M20.4,30.3C21.5,21.6,29,14.8,38,14.8h4c9.1,0,16.5,6.8,17.6,15.6h2c-1.1-9.9-9.5-17.6-19.6-17.6h-4
		c-10.2,0-18.5,7.7-19.6,17.6H20.4z"/>
	<g>
		<path class="st16" d="M63.8,42.9v11.5c0,0.6,0.4,1,1,1s1-0.4,1-1V42.9H63.8z"/>
		<path class="st16" d="M62.2,29.3c-4.8,0-8.8,3.9-8.8,8.8v16.3c0,0.6,0.4,1,1,1s1-0.4,1-1V38.1c0-3.7,3-6.8,6.8-6.8
			c3.5,0,6.4,2.7,6.8,6.1h0v2.7h1c0.6,0,1-0.4,1-1v-1C71,33.3,67.1,29.3,62.2,29.3z"/>
	</g>
	<g>
		<path class="st16" d="M24.6,52.1h1c0.6,0,1-0.4,1-1v-3.4c0-0.5,0.4-0.9,0.9-0.9h25c0.5,0,0.9,0.4,0.9,0.9v3.4c0,0.6,0.4,1,1,1h1
			v-2v-2.4c0-1.6-1.3-2.9-2.9-2.9h-25c-1.5,0-2.8,1.2-2.9,2.7V52.1z"/>
		<path class="st16" d="M64.8,50.1h-1v6.4h0v3.4c0,1.5-1.2,2.7-2.7,2.7H18.9c-1.5,0-2.7-1.2-2.7-2.7v-3.6v-4.2v-2h-1
			c-0.6,0-1,0.4-1,1v8.8c0,2.6,2.1,4.7,4.7,4.7h42.2c2.6,0,4.7-2.1,4.7-4.7v-8.8C65.8,50.5,65.3,50.1,64.8,50.1z"/>
	</g>
	<g>
		<path class="st16" d="M14.2,42.7v11.8c0,0.6,0.4,1,1,1s1-0.4,1-1V42.7H14.2z"/>
		<path class="st16" d="M17.8,29.3c-4.8,0-8.8,3.9-8.8,8.8v1c0,0.6,0.4,1,1,1h1v-2h0c0,0,0,0,0,0V38h0c0.1-3.7,3.1-6.6,6.8-6.6
			c3.7,0,6.8,3,6.8,6.8v16.3c0,0.6,0.4,1,1,1s1-0.4,1-1V38.1C26.6,33.3,22.6,29.3,17.8,29.3z"/>
	</g>
</g>
</svg>
