<?xml version="1.0" encoding="utf-8"?>
<!-- Generator: Adobe Illustrator 21.0.0, SVG Export Plug-In . SVG Version: 6.00 Build 0)  -->
<svg version="1.1" id="Слой_1" xmlns="http://www.w3.org/2000/svg" xmlns:xlink="http://www.w3.org/1999/xlink" x="0px" y="0px"
	 viewBox="0 0 80 80" style="enable-background:new 0 0 80 80;" xml:space="preserve">
<style type="text/css">
	.st0{fill:#F1F1F1;}
	.st1{fill:#FF8A5B;}
	.st2{fill:#2B2D42;}
	.st3{fill:#FFFFFF;}
	.st4{fill:#4982AA;}
	.st5{fill:#6CB8DD;}
	.st6{fill:#B3DCF4;}
	.st7{fill:#EDBA89;}
	.st8{fill:#87BED5;}
	.st9{fill:#6598CB;}
	.st10{fill:#694B4B;}
	.st11{fill:#563B3B;}
	.st12{fill:#FBCB99;}
	.st13{fill:none;stroke:#ED7205;stroke-width:2;stroke-linecap:round;stroke-linejoin:round;stroke-miterlimit:10;}
	.st14{fill:#FFFFFF;stroke:#231F20;stroke-width:2;stroke-linecap:round;stroke-linejoin:round;stroke-miterlimit:10;}
	.st15{fill:#ED7205;stroke:#FFFFFF;stroke-linecap:round;stroke-linejoin:round;stroke-miterlimit:10;}
	.st16{fill:#ED7205;}
	.st17{fill:#FFFFFF;stroke:#231F20;stroke-linecap:round;stroke-linejoin:round;stroke-miterlimit:10;}
	.st18{fill:#FFFFFF;stroke:#ED7205;stroke-linecap:round;stroke-linejoin:round;stroke-miterlimit:10;}
	.st19{fill:none;stroke:#ED7205;stroke-width:2;stroke-linecap:round;stroke-linejoin:round;}
	.st20{fill:none;stroke:#ED7205;stroke-width:2;stroke-linecap:round;stroke-linejoin:round;stroke-dasharray:5.9765,5.9765;}
	.st21{fill:none;stroke:#ED7205;stroke-width:2;stroke-linecap:round;stroke-linejoin:round;stroke-dasharray:5.9732,5.9732;}
	.st22{fill:none;stroke:#ED7205;stroke-width:2;stroke-linecap:round;stroke-linejoin:round;stroke-dasharray:5.9781,5.9781;}
	.st23{clip-path:url(#SVGID_2_);}
	.st24{fill:#ED7205;stroke:#FFFFFF;stroke-miterlimit:10;}
	.st25{fill:#F1F1F1;stroke:#ED7205;stroke-linecap:round;stroke-linejoin:round;stroke-miterlimit:10;}
	.st26{fill:none;stroke:#ED7205;stroke-linecap:round;stroke-linejoin:round;stroke-miterlimit:10;}
	.st27{fill:#F1F2F2;}
	.st28{fill:#ED7205;stroke:#F1F1F1;stroke-linecap:round;stroke-linejoin:round;stroke-miterlimit:10;}
	.st29{fill:none;}
	.st30{fill:#F1F1F1;stroke:#ED7205;stroke-width:2;stroke-linecap:round;stroke-linejoin:round;stroke-miterlimit:10;}
	.st31{fill:none;stroke:#F1F1F1;stroke-width:2;stroke-linecap:round;stroke-linejoin:round;stroke-miterlimit:10;}
</style>
<rect class="st29" width="80" height="80"/>
<g>
	<g>
		<path class="st16" d="M56.2,57.4c-0.2,0-0.5-0.1-0.7-0.3C53,54.8,50.1,53,46.9,52c-0.3-0.1-0.5-0.3-0.6-0.5s-0.1-0.5-0.1-0.8
			c1.2-3.6,1.9-7.5,1.9-11.4s-0.6-7.7-1.9-11.4c-0.1-0.3-0.1-0.5,0.1-0.8s0.3-0.4,0.6-0.5c3.2-1,6.2-2.8,8.6-5.1
			c0.4-0.4,1-0.4,1.4,0c4.9,4.7,7.6,11,7.6,17.7s-2.7,13.1-7.6,17.7C56.7,57.3,56.4,57.4,56.2,57.4z M48.4,50.4
			c2.8,1,5.4,2.6,7.7,4.6c4.1-4.2,6.3-9.7,6.3-15.6c0-5.9-2.2-11.4-6.3-15.6c-2.3,2-4.9,3.5-7.7,4.6c1.1,3.6,1.7,7.3,1.7,11.1
			S49.5,46.9,48.4,50.4z"/>
		<path class="st16" d="M47.2,28.7c-0.4,0-0.8-0.3-0.9-0.7c-1.4-4.2-3.6-8-6.5-11.5c-0.3-0.3-0.3-0.7-0.1-1.1
			c0.2-0.4,0.5-0.6,0.9-0.6c6.1,0.1,11.9,2.5,16.3,6.7c0.2,0.2,0.3,0.5,0.3,0.7s-0.1,0.5-0.3,0.7c-2.7,2.5-5.9,4.4-9.4,5.6
			C47.4,28.7,47.3,28.7,47.2,28.7z M42.7,17.1c2.1,2.9,3.8,6,5.1,9.3c2.5-0.9,4.8-2.3,6.9-4.1C51.3,19.5,47.1,17.6,42.7,17.1z"/>
		<path class="st16" d="M40.5,63.8c-0.4,0-0.7-0.2-0.9-0.6c-0.2-0.4-0.1-0.8,0.1-1.1c2.9-3.4,5.1-7.3,6.5-11.5
			c0.2-0.5,0.7-0.8,1.3-0.6c3.5,1.1,6.7,3,9.4,5.6c0.2,0.2,0.3,0.5,0.3,0.7s-0.1,0.5-0.3,0.7C52.4,61.3,46.6,63.7,40.5,63.8
			C40.5,63.8,40.5,63.8,40.5,63.8z M47.8,52.3c-1.2,3.3-2.9,6.5-5.1,9.3c4.4-0.5,8.6-2.4,12-5.3C52.6,54.7,50.3,53.3,47.8,52.3z"/>
		<path class="st16" d="M23.8,57.4c-0.2,0-0.5-0.1-0.7-0.3c-4.9-4.7-7.6-11-7.6-17.7c0-6.8,2.7-13.1,7.6-17.7c0.4-0.4,1-0.4,1.4,0
			c2.5,2.3,5.4,4.1,8.6,5.1c0.3,0.1,0.5,0.3,0.6,0.5s0.1,0.5,0.1,0.8c-1.2,3.6-1.9,7.5-1.9,11.3c0,3.9,0.6,7.7,1.9,11.3
			c0.1,0.3,0.1,0.5-0.1,0.8s-0.3,0.4-0.6,0.5c-3.2,1-6.2,2.8-8.6,5.1C24.3,57.3,24.1,57.4,23.8,57.4z M23.9,23.8
			c-4.1,4.2-6.3,9.7-6.3,15.6c0,5.9,2.2,11.4,6.3,15.6c2.3-2,4.9-3.6,7.7-4.6c-1.1-3.6-1.7-7.3-1.7-11c0-3.8,0.6-7.5,1.7-11
			C28.8,27.3,26.1,25.7,23.9,23.8z"/>
		<path class="st16" d="M32.9,28.7c-0.1,0-0.2,0-0.3,0c-3.5-1.1-6.7-3-9.4-5.6c-0.2-0.2-0.3-0.5-0.3-0.7s0.1-0.5,0.3-0.7
			c4.4-4.2,10.2-6.6,16.4-6.7c0.4,0,0.8,0.2,0.9,0.6c0.2,0.4,0.1,0.8-0.1,1.1c-2.9,3.4-5.1,7.3-6.5,11.5
			C33.7,28.5,33.3,28.7,32.9,28.7z M25.3,22.4c2,1.8,4.4,3.2,6.9,4.1c1.2-3.4,2.9-6.5,5.1-9.4C32.9,17.6,28.7,19.4,25.3,22.4z"/>
		<path class="st16" d="M39.5,63.8C39.5,63.8,39.5,63.8,39.5,63.8c-6.1-0.1-11.9-2.5-16.4-6.7c-0.2-0.2-0.3-0.5-0.3-0.7
			s0.1-0.5,0.3-0.7c2.7-2.5,5.9-4.5,9.4-5.6c0.5-0.2,1.1,0.1,1.3,0.6c1.4,4.2,3.6,8.1,6.5,11.5c0.3,0.3,0.3,0.7,0.1,1.1
			C40.3,63.6,39.9,63.8,39.5,63.8z M25.3,56.4c3.4,2.9,7.6,4.8,12,5.3c-2.1-2.9-3.8-6-5.1-9.4C29.7,53.3,27.4,54.6,25.3,56.4z"/>
		<path class="st16" d="M47.2,52.1c-0.1,0-0.2,0-0.3,0c-4.4-1.4-9.3-1.4-13.7,0c-0.5,0.2-1.1-0.1-1.3-0.6c-1.3-3.9-2-7.9-2-12
			s0.7-8.1,2-12c0.2-0.5,0.7-0.8,1.3-0.6c4.4,1.4,9.3,1.4,13.7,0c0.5-0.2,1.1,0.1,1.3,0.6c1.3,3.9,2,7.9,2,12s-0.7,8.1-2,12
			C48,51.8,47.6,52.1,47.2,52.1z M40,49c2.2,0,4.4,0.3,6.5,0.9c1-3.4,1.6-6.9,1.6-10.4c0-3.6-0.5-7.1-1.6-10.4
			c-4.2,1.2-8.8,1.2-13,0c-1,3.4-1.6,6.9-1.6,10.4c0,3.6,0.5,7.1,1.6,10.4C35.6,49.2,37.8,49,40,49z"/>
		<path class="st16" d="M40,29.8c-2.5,0-5-0.4-7.4-1.2c-0.3-0.1-0.5-0.3-0.6-0.5c-0.1-0.2-0.1-0.5-0.1-0.8c1.5-4.4,3.8-8.5,6.8-12.1
			c0.2-0.2,0.5-0.3,0.7-0.4l0.2,0c0.2,0,0.4,0,0.7,0l0.2,0c0.3,0,0.6,0.1,0.7,0.4c3,3.6,5.3,7.7,6.8,12.1c0.1,0.3,0.1,0.5-0.1,0.8
			s-0.3,0.4-0.6,0.5C45.1,29.4,42.5,29.8,40,29.8z M34.2,27.1c3.8,1,7.9,1,11.7,0c-1.4-3.7-3.3-7.1-5.8-10.1l0,0
			C37.5,20,35.5,23.4,34.2,27.1z"/>
		<path class="st16" d="M40,63.9c-0.1,0-0.2,0-0.3,0l-0.2,0c-0.3,0-0.6-0.1-0.7-0.4c-3-3.6-5.3-7.7-6.8-12.1
			c-0.1-0.3-0.1-0.5,0.1-0.8c0.1-0.2,0.3-0.4,0.6-0.5c4.8-1.5,10.1-1.5,14.9,0c0.3,0.1,0.5,0.3,0.6,0.5s0.1,0.5,0.1,0.8
			c-1.5,4.4-3.8,8.5-6.8,12.1c-0.2,0.2-0.5,0.3-0.7,0.4l-0.2,0C40.2,63.9,40.1,63.9,40,63.9z M34.2,51.7c1.4,3.7,3.3,7.1,5.8,10.1
			l0,0c2.5-3.1,4.5-6.5,5.8-10.1C42.1,50.7,38,50.7,34.2,51.7z"/>
	</g>
	<line class="st13" x1="16.5" y1="39.4" x2="63.5" y2="39.4"/>
	<g>
		<g>
			<path class="st16" d="M27.7,50.9c0.5-1.4,1.1-3.1,1.1-5.3c0-3.6-3.5-6.7-7.7-6.7c-2.8,0-4.5,1.2-5.5,2.3
				c-1.4,1.5-2.2,3.6-2.1,5.4c0.3,5.1,1.2,10.2,5.4,12.6l7.7,0.1l1.6-0.1C26,55.8,26.9,53.2,27.7,50.9z"/>
			<path class="st0" d="M25.3,42.9h-8.2V50c0,1.9,2.5,3.7,4,3.7h0.1c1.5,0,4.1-1.7,4.1-3.7V42.9z"/>
			<g>
				<path class="st0" d="M23.5,56.5v-2.8c-0.8,0.5-1.6,0.7-2.3,0.7h-0.1c-0.7,0-1.5-0.3-2.3-0.8v2.9l-3.6,1.7l1.4,5h9.9l0.4-5.2
					L23.5,56.5z"/>
			</g>
			<polygon class="st16" points="16.1,41.5 16.1,45.5 17.8,45.5 19.2,43.2 19.2,45.5 26.3,45.5 26.3,41.5 20.7,41.5 			"/>
			<path class="st16" d="M27.1,58.2C27.1,58.2,27.1,58.2,27.1,58.2l-1.8-0.8l-0.2,0l-3.6,3c-0.1,0.1-0.4,0.1-0.5,0l-3.6-3l-0.2,0
				l-1.8,0.8c-0.1,0-4.6,2-5,4.8h21.6C31.7,60.2,27.2,58.2,27.1,58.2z"/>
		</g>
		<g>
			<path class="st16" d="M48.3,48.1c0.7-1.8,1.4-3.9,1.4-6.8c0-4.6-4.5-8.5-9.8-8.5c-3.5,0-5.7,1.6-7,2.9c-1.8,1.9-2.8,4.5-2.6,6.9
				c0.4,6.5,1.6,13,6.9,16l9.8,0.1l2.1-0.1C46.1,54.4,47.2,51.1,48.3,48.1z"/>
			<path class="st0" d="M45.1,37.9H34.7v9.1c0,2.5,3.2,4.8,5.2,4.8h0.1c1.9,0,5.2-2.2,5.2-4.8V37.9z"/>
			<g>
				<path class="st0" d="M42.9,55.3v-3.6c-1,0.6-2,0.9-2.9,0.9h-0.1c-0.9,0-1.9-0.4-2.9-1v3.7l-4.6,2.2l1.8,6.4h12.7l0.6-6.6
					L42.9,55.3z"/>
			</g>
			<polygon class="st16" points="33.5,36.2 33.5,41.2 35.5,41.2 37.4,38.3 37.4,41.2 46.4,41.2 46.4,36.2 39.3,36.2 			"/>
			<path class="st16" d="M47.4,57.5C47.4,57.5,47.4,57.5,47.4,57.5l-2.3-1.1l-0.3,0l-4.6,3.8c-0.2,0.2-0.5,0.2-0.6,0l-4.6-3.8
				l-0.3,0l-2.3,1.1c-0.1,0-5.9,2.5-6.4,6.1h27.6C53.3,60,47.5,57.5,47.4,57.5z"/>
		</g>
		<g>
			<path class="st16" d="M65.7,50.9c0.5-1.4,1.1-3.1,1.1-5.3c0-3.6-3.5-6.7-7.7-6.7c-2.8,0-4.5,1.2-5.5,2.3
				c-1.4,1.5-2.2,3.6-2.1,5.4c0.3,5.1,1.2,10.2,5.4,12.6l7.7,0.1l1.6-0.1C64,55.8,64.9,53.2,65.7,50.9z"/>
			<path class="st0" d="M63.3,42.9h-8.2V50c0,1.9,2.5,3.7,4,3.7h0.1c1.5,0,4.1-1.7,4.1-3.7V42.9z"/>
			<g>
				<path class="st0" d="M61.5,56.5v-2.8c-0.8,0.5-1.6,0.7-2.3,0.7h-0.1c-0.7,0-1.5-0.3-2.3-0.8v2.9l-3.6,1.7l1.4,5h9.9l0.4-5.2
					L61.5,56.5z"/>
			</g>
			<polygon class="st16" points="54.1,41.5 54.1,45.5 55.8,45.5 57.2,43.2 57.2,45.5 64.3,45.5 64.3,41.5 58.7,41.5 			"/>
			<path class="st16" d="M65.1,58.2C65.1,58.2,65.1,58.2,65.1,58.2l-1.8-0.8l-0.2,0l-3.6,3c-0.1,0.1-0.4,0.1-0.5,0l-3.6-3l-0.2,0
				l-1.8,0.8c-0.1,0-4.6,2-5,4.8h21.6C69.7,60.2,65.1,58.2,65.1,58.2z"/>
		</g>
	</g>
</g>
</svg>
