<?xml version="1.0" encoding="utf-8"?>
<!-- Generator: Adobe Illustrator 21.0.0, SVG Export Plug-In . SVG Version: 6.00 Build 0)  -->
<svg version="1.1" id="Слой_1" xmlns="http://www.w3.org/2000/svg" xmlns:xlink="http://www.w3.org/1999/xlink" x="0px" y="0px"
	 viewBox="0 0 80 80" style="enable-background:new 0 0 80 80;" xml:space="preserve">
<style type="text/css">
	.st0{fill:#F1F1F1;}
	.st1{fill:#FF8A5B;}
	.st2{fill:#2B2D42;}
	.st3{fill:#FFFFFF;}
	.st4{fill:#4982AA;}
	.st5{fill:#6CB8DD;}
	.st6{fill:#B3DCF4;}
	.st7{fill:#EDBA89;}
	.st8{fill:#87BED5;}
	.st9{fill:#6598CB;}
	.st10{fill:#694B4B;}
	.st11{fill:#563B3B;}
	.st12{fill:#FBCB99;}
	.st13{fill:none;stroke:#ED7205;stroke-width:2;stroke-linecap:round;stroke-linejoin:round;stroke-miterlimit:10;}
	.st14{fill:#FFFFFF;stroke:#231F20;stroke-width:2;stroke-linecap:round;stroke-linejoin:round;stroke-miterlimit:10;}
	.st15{fill:#ED7205;stroke:#FFFFFF;stroke-linecap:round;stroke-linejoin:round;stroke-miterlimit:10;}
	.st16{fill:#ED7205;}
	.st17{fill:#FFFFFF;stroke:#231F20;stroke-linecap:round;stroke-linejoin:round;stroke-miterlimit:10;}
	.st18{fill:#FFFFFF;stroke:#ED7205;stroke-linecap:round;stroke-linejoin:round;stroke-miterlimit:10;}
	.st19{fill:none;stroke:#ED7205;stroke-width:2;stroke-linecap:round;stroke-linejoin:round;}
	.st20{fill:none;stroke:#ED7205;stroke-width:2;stroke-linecap:round;stroke-linejoin:round;stroke-dasharray:5.9765,5.9765;}
	.st21{fill:none;stroke:#ED7205;stroke-width:2;stroke-linecap:round;stroke-linejoin:round;stroke-dasharray:5.9732,5.9732;}
	.st22{fill:none;stroke:#ED7205;stroke-width:2;stroke-linecap:round;stroke-linejoin:round;stroke-dasharray:5.9781,5.9781;}
	.st23{clip-path:url(#SVGID_2_);}
	.st24{fill:#ED7205;stroke:#FFFFFF;stroke-miterlimit:10;}
	.st25{fill:#F1F1F1;stroke:#ED7205;stroke-linecap:round;stroke-linejoin:round;stroke-miterlimit:10;}
	.st26{fill:none;stroke:#ED7205;stroke-linecap:round;stroke-linejoin:round;stroke-miterlimit:10;}
	.st27{fill:#F1F2F2;}
	.st28{fill:#ED7205;stroke:#F1F1F1;stroke-linecap:round;stroke-linejoin:round;stroke-miterlimit:10;}
	.st29{fill:none;}
	.st30{fill:#F1F1F1;stroke:#ED7205;stroke-width:2;stroke-linecap:round;stroke-linejoin:round;stroke-miterlimit:10;}
	.st31{fill:none;stroke:#F1F1F1;stroke-width:2;stroke-linecap:round;stroke-linejoin:round;stroke-miterlimit:10;}
</style>
<rect class="st29" width="80" height="80"/>
<path class="st16" d="M54.4,14.8c-0.1-1.1-1-2-2.1-2H19.8c-1.1,0-2.1,0.9-2.1,2l-1.9,37.8c-0.1,2.8,2.1,5.1,4.8,5.1h30.9
	c2.8,0,5-2.3,4.8-5.1L54.4,14.8z M52.8,18.1L49.6,34c-1.3,7.5-5.9,12.8-11.3,12.8h-5.2c-5.3,0-10-5.3-11.3-12.8l-2.7-16
	c-0.3-1.9,0.7-3.7,2-3.7h29.6C52.2,14.2,53.2,16.1,52.8,18.1z"/>
<path class="st16" d="M44.1,25.7H27.9c-0.9,0-1.7-0.6-2-1.5l-1.9-6.1h23.8L46,24.2C45.8,25.1,45,25.7,44.1,25.7z"/>
<rect x="65.3" y="30.5" class="st16" width="4.2" height="14.2"/>
<path class="st16" d="M66.4,45.6v13.7c0,3.8-3.1,6.9-6.9,6.9H17.9c-3.8,0-6.9-3.1-6.9-6.9V31.3c0-3.6,2.8-6.6,6.3-6.9
	c0.6,0,1-0.5,0.9-1.1c0-0.6-0.5-1-1.1-0.9C12.6,22.8,9,26.7,9,31.3v28.1c0,4.9,4,8.9,8.9,8.9h41.6c4.9,0,8.9-4,8.9-8.9V45.6H66.4z"
	/>
<g>
	<path class="st16" d="M68.4,25.2v-1.8c0-0.6-0.4-1-1-1s-1,0.4-1,1v1.8H68.4z"/>
</g>
<polygon class="st16" points="66.3,26.2 65.4,29.5 69.3,29.5 68.5,26.2 "/>
</svg>
