<?xml version="1.0" encoding="utf-8"?>
<!-- Generator: Adobe Illustrator 21.0.0, SVG Export Plug-In . SVG Version: 6.00 Build 0)  -->
<svg version="1.1" id="Слой_1" xmlns="http://www.w3.org/2000/svg" xmlns:xlink="http://www.w3.org/1999/xlink" x="0px" y="0px"
	 viewBox="0 0 80 80" style="enable-background:new 0 0 80 80;" xml:space="preserve">
<style type="text/css">
	.st0{fill:#F1F1F1;}
	.st1{fill:#FF8A5B;}
	.st2{fill:#2B2D42;}
	.st3{fill:#FFFFFF;}
	.st4{fill:#4982AA;}
	.st5{fill:#6CB8DD;}
	.st6{fill:#B3DCF4;}
	.st7{fill:#EDBA89;}
	.st8{fill:#87BED5;}
	.st9{fill:#6598CB;}
	.st10{fill:#694B4B;}
	.st11{fill:#563B3B;}
	.st12{fill:#FBCB99;}
	.st13{fill:none;stroke:#ED7205;stroke-width:2;stroke-linecap:round;stroke-linejoin:round;stroke-miterlimit:10;}
	.st14{fill:#FFFFFF;stroke:#231F20;stroke-width:2;stroke-linecap:round;stroke-linejoin:round;stroke-miterlimit:10;}
	.st15{fill:#ED7205;stroke:#FFFFFF;stroke-linecap:round;stroke-linejoin:round;stroke-miterlimit:10;}
	.st16{fill:#ED7205;}
	.st17{fill:#FFFFFF;stroke:#231F20;stroke-linecap:round;stroke-linejoin:round;stroke-miterlimit:10;}
	.st18{fill:#FFFFFF;stroke:#ED7205;stroke-linecap:round;stroke-linejoin:round;stroke-miterlimit:10;}
	.st19{fill:none;stroke:#ED7205;stroke-width:2;stroke-linecap:round;stroke-linejoin:round;}
	.st20{fill:none;stroke:#ED7205;stroke-width:2;stroke-linecap:round;stroke-linejoin:round;stroke-dasharray:5.9765,5.9765;}
	.st21{fill:none;stroke:#ED7205;stroke-width:2;stroke-linecap:round;stroke-linejoin:round;stroke-dasharray:5.9732,5.9732;}
	.st22{fill:none;stroke:#ED7205;stroke-width:2;stroke-linecap:round;stroke-linejoin:round;stroke-dasharray:5.9781,5.9781;}
	.st23{clip-path:url(#SVGID_2_);}
	.st24{fill:#ED7205;stroke:#FFFFFF;stroke-miterlimit:10;}
	.st25{fill:#F1F1F1;stroke:#ED7205;stroke-linecap:round;stroke-linejoin:round;stroke-miterlimit:10;}
	.st26{fill:none;stroke:#ED7205;stroke-linecap:round;stroke-linejoin:round;stroke-miterlimit:10;}
	.st27{fill:#F1F2F2;}
	.st28{fill:#ED7205;stroke:#F1F1F1;stroke-linecap:round;stroke-linejoin:round;stroke-miterlimit:10;}
	.st29{fill:none;}
	.st30{fill:#F1F1F1;stroke:#ED7205;stroke-width:2;stroke-linecap:round;stroke-linejoin:round;stroke-miterlimit:10;}
	.st31{fill:none;stroke:#F1F1F1;stroke-width:2;stroke-linecap:round;stroke-linejoin:round;stroke-miterlimit:10;}
</style>
<rect class="st29" width="80" height="80"/>
<polyline class="st13" points="44.1,63.1 18.6,63.1 18.6,10.1 51.6,10.1 61.4,19.9 61.4,63.1 60.1,63.1 "/>
<polygon class="st16" points="61.4,19.9 51.6,19.9 51.6,10.1 "/>
<rect x="21" y="20" class="st16" width="26.5" height="2.8"/>
<rect x="21" y="25.9" class="st16" width="25.2" height="2.8"/>
<rect x="21" y="31.8" class="st16" width="29.6" height="2.8"/>
<rect x="21" y="37.7" class="st16" width="21.6" height="2.8"/>
<rect x="21" y="53.4" class="st16" width="12.2" height="1.3"/>
<rect x="21" y="56.8" class="st16" width="12.2" height="1.3"/>
<path class="st16" d="M49.6,53.9c-0.1-0.1-0.1-0.2-0.2-0.4c-0.1-0.2-0.1-0.3-0.2-0.5c0-0.1-0.1-0.1-0.1-0.2c0,0,0,0-0.1,0
	c-0.2,0.1-0.3,0.1-0.4,0.2c0,0-0.1,0-0.1,0.1c-0.2,0.1-0.4,0.2-0.6,0.4c0,0,0,0,0,0c0.6,0.5,1.3,0.8,2.1,1c-0.1-0.1-0.1-0.2-0.1-0.2
	C49.8,54.2,49.7,54.1,49.6,53.9z"/>
<path class="st16" d="M48,52.4c0.2-0.1,0.5-0.3,0.8-0.4c0,0,0.1,0,0.1,0c0,0,0-0.1,0-0.1c-0.1-0.4-0.2-0.7-0.2-1.1
	c0-0.1,0-0.1,0-0.2c0-0.4-0.1-0.8-0.1-1.2s0-0.8,0.1-1.2c0-0.1,0-0.1,0-0.2c0.1-0.4,0.1-0.8,0.2-1.1c0,0,0-0.1,0-0.1
	c0,0-0.1,0-0.1,0c-0.3-0.1-0.5-0.2-0.8-0.4c0,0,0,0,0,0c-0.2-0.1-0.5-0.3-0.7-0.5c0,0-0.1,0-0.1-0.1c-0.9,1-1.4,2.3-1.4,3.6
	s0.5,2.6,1.4,3.6c0,0,0.1,0,0.1-0.1C47.5,52.7,47.7,52.5,48,52.4C48,52.4,48,52.4,48,52.4z"/>
<path class="st16" d="M50.5,46.1c0.2,0,0.5,0.1,0.7,0.1c0,0,0,0,0,0c0.3,0,0.5,0,0.8-0.1c0.1,0,0.1,0,0.2,0c0.1,0,0.1,0,0.2,0
	c0,0,0-0.1,0-0.1c-0.1-0.3-0.3-0.6-0.4-0.9c0,0,0-0.1-0.1-0.1c-0.2-0.3-0.3-0.5-0.5-0.8c0,0-0.1-0.1-0.1-0.1c0,0-0.1,0.1-0.1,0.1
	c-0.2,0.3-0.4,0.5-0.5,0.8c0,0,0,0.1-0.1,0.1c-0.2,0.3-0.3,0.6-0.5,0.9c0,0,0,0.1,0,0.1c0.1,0,0.1,0,0.2,0
	C50.4,46,50.4,46.1,50.5,46.1z"/>
<path class="st16" d="M48.5,45.4c0,0,0.1,0,0.1,0.1c0.1,0.1,0.3,0.2,0.4,0.2c0,0,0,0,0.1,0c0-0.1,0.1-0.1,0.1-0.2
	c0.1-0.2,0.1-0.3,0.2-0.5c0.1-0.1,0.1-0.3,0.2-0.4c0.1-0.2,0.2-0.3,0.3-0.5c0-0.1,0.1-0.2,0.1-0.2c-0.8,0.2-1.5,0.5-2.1,1
	c0,0,0,0,0,0C48.1,45.1,48.3,45.3,48.5,45.4z"/>
<path class="st16" d="M52.9,44.7c0.1,0.1,0.1,0.3,0.2,0.4c0.1,0.2,0.1,0.3,0.2,0.5c0,0.1,0.1,0.1,0.1,0.2c0,0,0,0,0.1,0
	c0.2-0.1,0.3-0.1,0.5-0.2c0,0,0.1,0,0.1-0.1c0.2-0.1,0.4-0.2,0.5-0.4c0,0,0,0,0,0c-0.6-0.5-1.3-0.8-2.1-1c0.1,0.1,0.1,0.2,0.1,0.2
	C52.7,44.4,52.8,44.5,52.9,44.7z"/>
<path class="st16" d="M52.7,51.6c0.1-0.3,0.2-0.7,0.2-1c0-0.1,0-0.1,0-0.2c0-0.4,0.1-0.7,0.1-1.1s0-0.7-0.1-1.1c0-0.1,0-0.1,0-0.2
	c0-0.3-0.1-0.7-0.2-1c0,0,0-0.1,0-0.1c-0.1,0-0.2,0-0.3,0.1c-0.1,0-0.2,0-0.3,0c-0.6,0.1-1.2,0.1-1.8,0c-0.1,0-0.2,0-0.3,0
	c-0.1,0-0.2,0-0.3-0.1c0,0,0,0.1,0,0.1c-0.1,0.3-0.2,0.7-0.2,1c0,0.1,0,0.1,0,0.2c0,0.4-0.1,0.7-0.1,1.1s0,0.7,0.1,1.1
	c0,0.1,0,0.1,0,0.2c0,0.3,0.1,0.7,0.2,1c0,0,0,0.1,0,0.1c0.1,0,0.2,0,0.3-0.1c0.1,0,0.2,0,0.2,0c0.3,0,0.6-0.1,0.9-0.1
	c0.3,0,0.6,0,0.9,0.1c0.1,0,0.2,0,0.2,0C52.5,51.6,52.6,51.6,52.7,51.6C52.7,51.6,52.7,51.6,52.7,51.6z"/>
<path class="st16" d="M55.3,45.7C55.3,45.7,55.3,45.7,55.3,45.7c-0.3,0.2-0.5,0.4-0.8,0.5c0,0,0,0,0,0c-0.2,0.1-0.5,0.3-0.7,0.4
	c0,0-0.1,0-0.1,0c0,0,0,0.1,0,0.1c0.1,0.4,0.2,0.8,0.2,1.1c0,0.1,0,0.1,0,0.2c0,0.4,0.1,0.8,0.1,1.2c0,0.4,0,0.8-0.1,1.2
	c0,0.1,0,0.1,0,0.2c-0.1,0.4-0.1,0.8-0.2,1.1c0,0,0,0.1,0,0.1c0,0,0.1,0,0.1,0c0.3,0.1,0.5,0.2,0.7,0.4c0,0,0,0,0,0
	c0.2,0.1,0.5,0.3,0.7,0.5c0,0,0.1,0,0.1,0.1c0.9-1,1.4-2.3,1.4-3.6S56.2,46.7,55.3,45.7z"/>
<path class="st16" d="M54,53.2c0,0-0.1,0-0.1-0.1c-0.1-0.1-0.3-0.2-0.5-0.2c0,0,0,0-0.1,0c0,0.1-0.1,0.1-0.1,0.2
	c-0.1,0.2-0.1,0.3-0.2,0.5c-0.1,0.1-0.1,0.3-0.2,0.4c-0.1,0.2-0.2,0.3-0.3,0.4c0,0.1-0.1,0.2-0.1,0.2c0.8-0.2,1.5-0.5,2.1-1
	c0,0,0,0,0,0C54.4,53.4,54.2,53.3,54,53.2z"/>
<path class="st16" d="M52,52.5c-0.2,0-0.5-0.1-0.7-0.1c0,0,0,0,0,0c-0.2,0-0.5,0-0.7,0.1c-0.1,0-0.1,0-0.2,0c-0.1,0-0.1,0-0.2,0
	c0,0,0,0.1,0,0.1c0.1,0.3,0.3,0.6,0.5,0.9c0,0,0,0.1,0.1,0.1c0.2,0.3,0.3,0.5,0.5,0.8c0,0,0,0.1,0.1,0.1c0,0,0.1-0.1,0.1-0.1
	c0.2-0.2,0.4-0.5,0.5-0.8c0,0,0-0.1,0.1-0.1c0.2-0.3,0.3-0.6,0.4-0.9c0,0,0-0.1,0-0.1c-0.1,0-0.1,0-0.2,0
	C52.1,52.5,52.1,52.5,52,52.5z"/>
<path class="st16" d="M51.2,41.1c-4.5,0-8.2,3.7-8.2,8.2s3.7,8.2,8.2,8.2s8.2-3.7,8.2-8.2S55.8,41.1,51.2,41.1z M55.7,54
	C55.7,54,55.7,54,55.7,54c-1.2,1.1-2.7,1.7-4.3,1.8c0,0,0,0,0,0l-0.1,0c0,0-0.1,0-0.1,0c0,0,0,0,0,0c0,0,0,0,0,0
	c-1.6,0-3.1-0.7-4.3-1.8c0,0,0,0,0,0c-1.3-1.2-2-2.9-2-4.7s0.7-3.4,2-4.7c0,0,0,0,0,0c1.2-1.1,2.7-1.7,4.3-1.8c0,0,0,0,0,0l0.1,0
	c0,0,0.1,0,0.1,0c0,0,0,0,0,0c0,0,0,0,0,0c1.6,0,3.1,0.7,4.3,1.8c0,0,0,0,0,0c1.3,1.2,2,2.9,2,4.7S57,52.7,55.7,54z"/>
<g>
	<path class="st16" d="M54.6,56.7h-6.8c1,0.5,2.2,0.7,3.4,0.7S53.6,57.2,54.6,56.7z"/>
	<path class="st16" d="M48.7,61.5v2.3v0.3h0.6v-2.6c0-0.2-0.1-0.3-0.3-0.3C48.9,61.2,48.7,61.3,48.7,61.5z"/>
	<path class="st16" d="M47.1,63.8c0,0.2,0.1,0.3,0.3,0.3s0.3-0.1,0.3-0.3v-2.3c0-0.1,0-0.1,0-0.2c0.1-0.6,0.6-1.1,1.3-1.1
		c0,0,0,0,0,0v0l6.8,0v-3c-1.4,0.8-2.9,1.3-4.6,1.3c-1.5,0-2.9-0.4-4.2-1v4.1v0V63.8z"/>
	<path class="st16" d="M50.4,63.7v0.7v4.6l3.4-1.7c0.1-0.1,0.3-0.1,0.4,0l3.3,1.7v-7.3c0-0.3-0.3-0.6-0.6-0.6l-6.7,0
		c0,0.1,0.1,0.2,0.1,0.3V63.7z"/>
</g>
</svg>
