<?xml version="1.0" encoding="utf-8"?>
<!-- Generator: Adobe Illustrator 21.0.0, SVG Export Plug-In . SVG Version: 6.00 Build 0)  -->
<svg version="1.1" id="Слой_1" xmlns="http://www.w3.org/2000/svg" xmlns:xlink="http://www.w3.org/1999/xlink" x="0px" y="0px"
	 viewBox="0 0 80 80" style="enable-background:new 0 0 80 80;" xml:space="preserve">
<style type="text/css">
	.st0{fill:#F1F1F1;}
	.st1{fill:#FF8A5B;}
	.st2{fill:#2B2D42;}
	.st3{fill:#FFFFFF;}
	.st4{fill:#4982AA;}
	.st5{fill:#6CB8DD;}
	.st6{fill:#B3DCF4;}
	.st7{fill:#EDBA89;}
	.st8{fill:#87BED5;}
	.st9{fill:#6598CB;}
	.st10{fill:#694B4B;}
	.st11{fill:#563B3B;}
	.st12{fill:#FBCB99;}
	.st13{fill:none;stroke:#ED7205;stroke-width:2;stroke-linecap:round;stroke-linejoin:round;stroke-miterlimit:10;}
	.st14{fill:#FFFFFF;stroke:#231F20;stroke-width:2;stroke-linecap:round;stroke-linejoin:round;stroke-miterlimit:10;}
	.st15{fill:#ED7205;stroke:#FFFFFF;stroke-linecap:round;stroke-linejoin:round;stroke-miterlimit:10;}
	.st16{fill:#ED7205;}
	.st17{fill:#FFFFFF;stroke:#231F20;stroke-linecap:round;stroke-linejoin:round;stroke-miterlimit:10;}
	.st18{fill:#FFFFFF;stroke:#ED7205;stroke-linecap:round;stroke-linejoin:round;stroke-miterlimit:10;}
	.st19{fill:none;stroke:#ED7205;stroke-width:2;stroke-linecap:round;stroke-linejoin:round;}
	.st20{fill:none;stroke:#ED7205;stroke-width:2;stroke-linecap:round;stroke-linejoin:round;stroke-dasharray:5.9765,5.9765;}
	.st21{fill:none;stroke:#ED7205;stroke-width:2;stroke-linecap:round;stroke-linejoin:round;stroke-dasharray:5.9732,5.9732;}
	.st22{fill:none;stroke:#ED7205;stroke-width:2;stroke-linecap:round;stroke-linejoin:round;stroke-dasharray:5.9781,5.9781;}
	.st23{clip-path:url(#SVGID_2_);}
	.st24{fill:#ED7205;stroke:#FFFFFF;stroke-miterlimit:10;}
	.st25{fill:#F1F1F1;stroke:#ED7205;stroke-linecap:round;stroke-linejoin:round;stroke-miterlimit:10;}
	.st26{fill:none;stroke:#ED7205;stroke-linecap:round;stroke-linejoin:round;stroke-miterlimit:10;}
	.st27{fill:#F1F2F2;}
	.st28{fill:#ED7205;stroke:#F1F1F1;stroke-linecap:round;stroke-linejoin:round;stroke-miterlimit:10;}
	.st29{fill:none;}
	.st30{fill:#F1F1F1;stroke:#ED7205;stroke-width:2;stroke-linecap:round;stroke-linejoin:round;stroke-miterlimit:10;}
	.st31{fill:none;stroke:#F1F1F1;stroke-width:2;stroke-linecap:round;stroke-linejoin:round;stroke-miterlimit:10;}
</style>
<rect class="st29" width="80" height="80"/>
<g>
	<polyline class="st13" points="47.8,59.1 40.7,66.2 13.4,39 37.6,14.7 54.2,10.4 69.2,25.4 65.6,39.3 	"/>
	<rect x="7.7" y="46.8" transform="matrix(0.7071 0.7071 -0.7071 0.7071 44.8039 -4.4276)" class="st16" width="40" height="10.2"/>
	<ellipse transform="matrix(0.7071 -0.7071 0.7071 0.7071 0.4111 46.8081)" class="st16" cx="56.7" cy="22.9" rx="3.1" ry="3.1"/>
	<g>
		<path class="st16" d="M40.3,43.1l-2.2-2.2l-1.6,1.6l-1.7-1.7l1.6-1.6L35,37.9l1.4-1.4l1.4,1.4l0.7-0.7l-1.4-1.4l1.4-1.4l1.4,1.4
			l4.8-4.8l3.8,3.8c1.1,1.1,1.7,2.2,1.8,3.5c0.1,1.2-0.3,2.3-1.3,3.2c-1,1-2,1.4-3.2,1.3c-1.2-0.1-2.3-0.7-3.4-1.7l-2.1-2.1
			l-0.7,0.7l2.2,2.2L40.3,43.1z M41.6,37.5l2,2c0.6,0.6,1.2,0.9,1.8,1c0.6,0,1.2-0.2,1.8-0.8c0.5-0.5,0.8-1.1,0.8-1.7
			c0-0.6-0.3-1.2-0.8-1.8L45.1,34L41.6,37.5z"/>
	</g>
	<circle class="st16" cx="59.8" cy="51.9" r="10.2"/>
	<polyline class="st31" points="53.9,50.6 58.9,55.6 66.1,48.5 	"/>
</g>
</svg>
