<svg 
 xmlns="http://www.w3.org/2000/svg"
 xmlns:xlink="http://www.w3.org/1999/xlink"
 width="25px" height="25px">
<path fill-rule="evenodd"  fill="rgb(246, 136, 24)"
 d="M0.010,24.990 L0.010,0.010 L24.991,0.010 L24.991,24.990 L0.010,24.990 ZM21.146,8.216 C21.146,5.811 19.189,3.854 16.784,3.854 L8.216,3.854 C5.812,3.854 3.854,5.811 3.854,8.216 L3.854,16.784 C3.854,19.189 5.812,21.146 8.216,21.146 L16.784,21.146 C19.189,21.146 21.146,19.189 21.146,16.784 L21.146,8.216 ZM16.784,19.264 L8.216,19.264 C6.849,19.264 5.736,18.151 5.736,16.784 L5.736,8.216 C5.736,6.849 6.849,5.736 8.216,5.736 L16.784,5.736 C18.150,5.736 19.264,6.849 19.264,8.216 L19.264,16.784 C19.264,18.151 18.150,19.264 16.784,19.264 ZM12.500,8.046 C10.044,8.046 8.047,10.044 8.047,12.500 C8.047,14.956 10.044,16.953 12.500,16.953 C14.956,16.953 16.953,14.956 16.953,12.500 C16.953,10.044 14.956,8.046 12.500,8.046 ZM17.096,6.860 C16.515,6.860 16.042,7.333 16.042,7.914 C16.042,8.495 16.515,8.967 17.096,8.967 C17.677,8.967 18.150,8.495 18.150,7.914 C18.150,7.333 17.677,6.860 17.096,6.860 ZM12.500,15.072 C11.082,15.072 9.927,13.918 9.927,12.500 C9.927,11.082 11.082,9.929 12.500,9.929 C13.918,9.929 15.071,11.082 15.071,12.500 C15.071,13.918 13.918,15.072 12.500,15.072 Z"/>
</svg>