<svg 
 xmlns="http://www.w3.org/2000/svg"
 xmlns:xlink="http://www.w3.org/1999/xlink"
 width="21px" height="21px">
<path fill-rule="evenodd"  fill="rgb(0, 0, 0)"
 d="M19.754,18.579 L14.947,13.771 C16.138,12.318 16.856,10.457 16.856,8.428 C16.856,3.775 13.082,0.000 8.428,0.000 C3.771,0.000 0.000,3.775 0.000,8.428 C0.000,13.081 3.771,16.857 8.428,16.857 C10.457,16.857 12.313,16.143 13.768,14.950 L18.574,19.754 C18.901,20.081 19.428,20.081 19.754,19.754 C20.081,19.432 20.081,18.902 19.754,18.579 ZM8.428,15.179 C4.702,15.179 1.674,12.151 1.674,8.428 C1.674,4.706 4.702,1.673 8.428,1.673 C12.150,1.673 15.184,4.706 15.184,8.428 C15.184,12.151 12.150,15.179 8.428,15.179 Z"/>
</svg>