<svg 
 xmlns="http://www.w3.org/2000/svg"
 xmlns:xlink="http://www.w3.org/1999/xlink"
 width="25px" height="25px">
<path fill-rule="evenodd"  fill="rgb(246, 136, 24)"
 d="M-0.008,-0.008 L-0.008,25.008 L25.009,25.008 L25.009,-0.008 L-0.008,-0.008 ZM18.746,13.832 C19.319,14.392 19.927,14.920 20.444,15.539 C20.670,15.813 20.887,16.095 21.050,16.412 C21.283,16.867 21.072,17.364 20.666,17.392 L18.144,17.391 C17.492,17.444 16.975,17.182 16.536,16.736 C16.189,16.382 15.862,16.002 15.527,15.635 C15.392,15.484 15.246,15.343 15.075,15.230 C14.730,15.007 14.430,15.075 14.233,15.434 C14.034,15.800 13.987,16.205 13.968,16.612 C13.941,17.207 13.762,17.362 13.165,17.391 C11.889,17.450 10.679,17.256 9.555,16.614 C8.563,16.047 7.794,15.246 7.125,14.340 C5.822,12.574 4.824,10.634 3.930,8.640 C3.726,8.191 3.873,7.950 4.369,7.941 C5.192,7.924 6.016,7.926 6.840,7.940 C7.174,7.946 7.396,8.137 7.524,8.453 C7.970,9.547 8.514,10.589 9.199,11.555 C9.381,11.812 9.568,12.069 9.830,12.250 C10.123,12.451 10.345,12.386 10.485,12.058 C10.572,11.851 10.609,11.629 10.628,11.407 C10.694,10.647 10.701,9.885 10.589,9.127 C10.519,8.653 10.251,8.347 9.779,8.257 C9.537,8.211 9.574,8.123 9.690,7.985 C9.893,7.747 10.085,7.599 10.464,7.599 L13.315,7.599 C13.765,7.687 13.865,7.890 13.926,8.341 L13.929,11.509 C13.923,11.684 14.016,12.203 14.330,12.318 C14.582,12.401 14.749,12.198 14.901,12.039 C15.583,11.314 16.071,10.457 16.505,9.571 C16.697,9.182 16.865,8.777 17.026,8.372 C17.146,8.072 17.332,7.924 17.670,7.930 L20.415,7.933 C20.496,7.933 20.578,7.933 20.658,7.946 C21.119,8.026 21.247,8.225 21.104,8.677 C20.879,9.385 20.440,9.976 20.012,10.568 C19.553,11.202 19.067,11.813 18.611,12.450 C18.194,13.033 18.227,13.326 18.746,13.832 Z"/>
</svg>