<svg xmlns="http://www.w3.org/2000/svg" viewBox="0 0 231 68.8"><style>.st0{fill:#23e5e0}</style><g id="Слой_2"><g id="XMLID_1_"><path id="XMLID_8_" class="st0" d="M121.5.5v21.2"/><path id="XMLID_15_" class="st0" d="M121.5 22.2c-.3 0-.5-.2-.5-.5V.5c0-.3.2-.5.5-.5s.5.2.5.5v21.2c0 .3-.2.5-.5.5z"/></g><g id="XMLID_2_"><path id="XMLID_14_" class="st0" d="M121.5 22.2c-.1 0-.3 0-.4-.1l-8.9-8.9c-.2-.2-.2-.5 0-.7s.5-.2.7 0l8.9 8.9c.2.2.2.5 0 .7 0 .1-.2.1-.3.1z"/></g><g id="XMLID_3_"><path id="XMLID_13_" class="st0" d="M121.5 22.2c-.1 0-.3 0-.4-.1-.2-.2-.2-.5 0-.7l8.9-8.9c.2-.2.5-.2.7 0s.2.5 0 .7l-8.9 8.9c0 .1-.2.1-.3.1z"/></g><g id="XMLID_4_"><path id="XMLID_12_" class="st0" d="M230.5 1h-109c-.3 0-.5-.2-.5-.5s.2-.5.5-.5h109c.3 0 .5.2.5.5s-.2.5-.5.5z"/></g><g id="XMLID_5_"><path id="XMLID_11_" class="st0" d="M230.5 68.8c-.3 0-.5-.2-.5-.5V.5c0-.3.2-.5.5-.5s.5.2.5.5v67.8c0 .2-.2.5-.5.5z"/></g><g id="XMLID_6_"><path id="XMLID_10_" class="st0" d="M230.5 68.8H.5c-.3 0-.5-.2-.5-.5s.2-.5.5-.5h230c.3 0 .5.2.5.5s-.2.5-.5.5z"/></g><g id="XMLID_7_"><path id="XMLID_9_" class="st0" d="M.5 68.8c-.3 0-.5-.2-.5-.5V34.8c0-.3.2-.5.5-.5s.5.3.5.5v33.4c0 .3-.2.6-.5.6z"/></g></g></svg>