<svg id="Слой_1" xmlns="http://www.w3.org/2000/svg" viewBox="0 0 76 92"><style>.st0{fill:#0da5ce}</style><path id="XMLID_22_" class="st0" d="M1 92c-.6 0-1-.4-1-1V1c0-.6.4-1 1-1s1 .4 1 1v90c0 .6-.4 1-1 1z"/><path id="XMLID_21_" class="st0" d="M52 2H1c-.6 0-1-.4-1-1s.4-1 1-1h51c.6 0 1 .4 1 1s-.4 1-1 1z"/><path id="XMLID_20_" class="st0" d="M52 92H1c-.6 0-1-.4-1-1s.4-1 1-1h51c.6 0 1 .4 1 1s-.4 1-1 1z"/><path id="XMLID_19_" class="st0" d="M52 17c-.6 0-1-.4-1-1V1c0-.6.4-1 1-1s1 .4 1 1v15c0 .6-.4 1-1 1z"/><path id="XMLID_18_" class="st0" d="M52 92c-.6 0-1-.4-1-1V76c0-.6.4-1 1-1s1 .4 1 1v15c0 .6-.4 1-1 1z"/><path id="XMLID_17_" class="st0" d="M75 45H22c-.6 0-1-.4-1-1s.4-1 1-1h53c.6 0 1 .4 1 1s-.4 1-1 1z"/><path id="XMLID_16_" class="st0" d="M56.8 63.2c-.3 0-.5-.1-.7-.3-.4-.4-.4-1 0-1.4l18.2-18.2c.4-.4 1-.4 1.4 0s.4 1 0 1.4L57.5 62.9c-.2.2-.4.3-.7.3z"/><path id="XMLID_15_" class="st0" d="M75 45.2c-.3 0-.5-.1-.7-.3L56.1 26.7c-.4-.4-.4-1 0-1.4s1-.4 1.4 0l18.2 18.2c.4.4.4 1 0 1.4-.2.2-.4.3-.7.3z"/></svg>