<svg xmlns="http://www.w3.org/2000/svg" viewBox="-149 324.7 297 193.5"><path fill="#23e5e0" d="M145.9 397.9c-.6-.8-14.2-18.7-38.9-36.7-32.8-23.9-70-36.5-107.5-36.5s-74.7 12.6-107.5 36.5c-24.7 18-38.3 35.9-38.9 36.7-2.8 3.7-2.8 8.8 0 12.5.5.7 11 14.6 30.3 30.1l-14 28c-2.6 5.2-.5 11.4 4.7 14 1.5.8 3.1 1.1 4.7 1.1 3.8 0 7.5-2.1 9.4-5.8l12.4-24.9c10.6 7 21.7 12.8 33 17.4l-12.4 24.8c-2.6 5.2-.5 11.4 4.7 14 1.5.8 3.1 1.1 4.7 1.1 3.8 0 7.5-2.1 9.4-5.8l13.6-27.3c11.7 3.3 23.6 5.3 35.6 6v24.4c0 5.8 4.7 10.5 10.5 10.5s10.5-4.7 10.5-10.5v-24.4c12-.7 23.9-2.8 35.6-6l13.6 27.3c1.8 3.7 5.5 5.8 9.4 5.8 1.6 0 3.2-.4 4.7-1.1 5.2-2.6 7.3-8.9 4.7-14l-12.4-24.8c11.3-4.6 22.4-10.5 33-17.4l12.4 24.9c1.8 3.7 5.5 5.8 9.4 5.8 1.6 0 3.2-.4 4.7-1.1 5.2-2.6 7.3-8.9 4.7-14l-14-28c19.2-15.5 29.8-29.4 30.3-30.1 2.4-3.7 2.4-8.8-.4-12.5zm-51.7 32.7c-29.5 21.3-61.4 32.1-94.7 32.1-33.3 0-65.2-10.8-94.7-32.1-13.9-10-24-20.2-29.7-26.5 5.7-6.3 15.8-16.4 29.7-26.5 29.5-21.3 61.4-32.1 94.7-32.1 33.3 0 65.2 10.8 94.7 32.1 13.9 10 24 20.2 29.7 26.5-5.7 6.3-15.8 16.5-29.7 26.5z"/></svg>