<svg id="Слой_1" xmlns="http://www.w3.org/2000/svg" xmlns:xlink="http://www.w3.org/1999/xlink" viewBox="0 0 237.8 128"><style>.st0{clip-path:url(#XMLID_27_)}</style><g id="XMLID_2_"><g id="XMLID_6_"><defs><path id="XMLID_7_" d="M0 0h237.8v128H0z"/></defs><clipPath id="XMLID_27_"><use xlink:href="#XMLID_7_" overflow="visible"/></clipPath><path id="XMLID_8_" class="st0" fill="#23e5e0" d="M235.9 58.6c-.5-.6-11.3-15-31.1-29.4-26.3-19.1-56-29.2-86-29.2s-59.7 10.1-86 29.2C13 43.6 2.1 58 1.7 58.6c-2.2 3-2.2 7.1 0 10 .4.6 11.3 15 31.1 29.4 26.3 19.1 56 29.2 86 29.2s59.7-10.1 86-29.2c19.8-14.4 30.7-28.8 31.1-29.4 2.3-3 2.3-7.1 0-10zm-70.2 5c0 25.8-21 46.9-46.9 46.9-25.8 0-46.9-21-46.9-46.9s21-46.9 46.9-46.9 46.9 21.1 46.9 46.9zm-146.4 0c7.1-7.9 23.1-23.4 46.1-34.4-6.4 9.9-10.2 21.7-10.2 34.4S59 88.2 65.4 98.1C57.8 94.4 50.3 90 43 84.7c-11.1-8-19.1-16.1-23.7-21.1zm175.2 21.1c-7.3 5.3-14.8 9.7-22.4 13.4 6.5-10 10.2-21.8 10.2-34.5s-3.8-24.6-10.2-34.5c7.6 3.7 15.1 8.1 22.4 13.4 11.1 8 19.2 16.1 23.7 21.2-4.5 4.9-12.6 13-23.7 21zm0 0"/></g><path id="XMLID_3_" fill="#23e5e0" d="M132.6 63.6c0 7.6-6.2 13.8-13.8 13.8-7.6 0-13.8-6.2-13.8-13.8s6.2-13.8 13.8-13.8c7.6 0 13.8 6.2 13.8 13.8zm0 0"/></g></svg>