<svg id="Слой_1" xmlns="http://www.w3.org/2000/svg" viewBox="0 0 47.4 49.5"><style>.st0{fill:#0da5ce}</style><path class="st0" d="M23.7 30.3c-8.2 0-14.9-6.8-14.9-15.1S15.5 0 23.7 0s14.9 6.8 14.9 15.1-6.7 15.2-14.9 15.2zm0-28.3c-7.1 0-12.9 5.9-12.9 13.1 0 7.2 5.8 13.1 12.9 13.1s12.9-5.9 12.9-13.1C36.6 7.9 30.8 2 23.7 2z"/><path class="st0" d="M1 49.5H.8c-.5-.1-.9-.6-.8-1.2C2 37.9 10.3 30 20.7 28.7c.6-.1 1 .3 1.1.9.1.5-.3 1-.9 1.1-9.5 1.2-17.1 8.5-18.9 18-.1.4-.5.8-1 .8z"/><path class="st0" d="M20.8 30.7c-.5 0-.9-.4-1-.9-.1-.5.3-1 .9-1.1 1.8-.2 3.4-.3 5.2-.1.6.1 1 .5.9 1.1-.1.5-.5 1-1.1.9-1.7-.2-3.2-.1-4.8.1h-.1z"/><path class="st0" d="M26.6 30.2c-.3 0-.5-.1-.8-.1l.1-1c.3 0 .6.1.8.1l-.1 1z"/><path class="st0" d="M46.4 49.5c-.5 0-.9-.3-1-.8-1.8-9.6-9.4-16.8-18.9-18-.5-.1-.9-.6-.9-1.1.1-.5.6-.9 1.1-.9 10.4 1.3 18.7 9.2 20.6 19.6.1.5-.3 1.1-.8 1.2h-.1z"/></svg>