<svg xmlns="http://www.w3.org/2000/svg" width="233.825" height="254.914" viewBox="0 0 233.825 254.914"><path fill="#23E5E0" d="M17.031 224.415c-2.418 0-4.598.561-6.54 1.683-1.943 1.124-3.455 2.688-4.533 4.695-1.08 2.008-1.618 4.307-1.618 6.896 0 2.59.539 4.901 1.618 6.929 1.079 2.029 2.59 3.606 4.533 4.727 1.943 1.123 4.122 1.683 6.54 1.683 2.202 0 4.218-.388 6.054-1.165 1.834-.776 3.377-1.899 4.629-3.367l2.462 2.59c-1.512 1.813-3.411 3.216-5.698 4.209-2.289.993-4.835 1.49-7.641 1.49-3.238 0-6.13-.723-8.677-2.17-2.548-1.445-4.544-3.474-5.99-6.087C.723 243.916 0 240.97 0 237.689c0-3.28.723-6.226 2.169-8.838s3.442-4.641 5.99-6.087c2.547-1.446 5.439-2.17 8.677-2.17 2.632 0 5.039.432 7.219 1.295 2.179.864 4.047 2.073 5.601 3.627l-2.46 2.914c-2.763-2.676-6.151-4.015-10.165-4.015zm43.579-1.651c2.59 1.446 4.62 3.464 6.087 6.054s2.202 5.526 2.202 8.806c0 3.325-.734 6.292-2.202 8.903-1.467 2.613-3.497 4.642-6.087 6.087-2.589 1.447-5.526 2.17-8.806 2.17-3.281 0-6.216-.723-8.806-2.17-2.59-1.445-4.62-3.474-6.087-6.087-1.468-2.611-2.202-5.579-2.202-8.903 0-3.28.733-6.216 2.202-8.806a15.626 15.626 0 0 1 6.087-6.054c2.59-1.446 5.525-2.17 8.806-2.17 3.28 0 6.217.724 8.806 2.17zm-15.411 3.269c-1.943 1.123-3.455 2.698-4.533 4.727-1.08 2.029-1.618 4.339-1.618 6.928 0 2.634.539 4.965 1.618 6.993 1.079 2.031 2.59 3.606 4.533 4.727 1.943 1.123 4.144 1.684 6.605 1.684s4.662-.561 6.605-1.684c1.943-1.122 3.453-2.697 4.533-4.727 1.079-2.028 1.618-4.36 1.618-6.993 0-2.589-.54-4.898-1.618-6.928-1.08-2.029-2.59-3.604-4.533-4.727-1.943-1.122-4.144-1.684-6.605-1.684s-4.662.563-6.605 1.684zm37.233-17.256c.56.582.842 1.306.842 2.169 0 .864-.292 1.597-.875 2.202-.582.605-1.285.906-2.104.906-.864 0-1.587-.301-2.169-.906-.583-.604-.875-1.337-.875-2.202 0-.863.292-1.587.875-2.169.582-.583 1.305-.875 2.169-.875.863 0 1.575.292 2.137.875zm-4.339 11.947h4.339v33.931h-4.339v-33.931zm44.259 3.399c2.309 2.354 3.465 5.58 3.465 9.681v20.85h-4.404V234.84c0-3.193-.885-5.698-2.655-7.511-1.771-1.813-4.231-2.719-7.381-2.719-3.497.043-6.293 1.123-8.386 3.237-2.095 2.116-3.293 4.965-3.594 8.549v18.26h-4.339v-33.931h4.339v7.9c1.165-2.632 2.882-4.619 5.148-5.957 2.266-1.337 5.018-2.029 8.256-2.073 4.057-.001 7.241 1.176 9.551 3.528zm22.112 26.712c1.166 0 2.374-.497 3.627-1.49l.971 3.367c-1.986 1.425-3.842 2.137-5.568 2.137-2.029 0-3.649-.68-4.856-2.04-1.21-1.36-1.814-3.292-1.814-5.795v-40.407h4.339v39.954c-.001 2.849 1.1 4.274 3.301 4.274zm42.156-30.111v33.931h-4.339v-7.641c-1.295 2.504-3.108 4.446-5.439 5.828-2.33 1.382-5.03 2.072-8.094 2.072-3.195 0-6.044-.733-8.547-2.202-2.504-1.467-4.446-3.518-5.828-6.151-1.382-2.632-2.072-5.612-2.072-8.936 0-3.323.69-6.281 2.072-8.871 1.382-2.59 3.313-4.62 5.795-6.087s5.299-2.202 8.451-2.202c3.108 0 5.838.691 8.191 2.072 2.351 1.382 4.176 3.325 5.471 5.828v-7.641h4.339zm-8.353 27.099c2.33-2.223 3.669-5.126 4.014-8.709v-2.719c-.345-3.583-1.684-6.509-4.014-8.775-2.332-2.266-5.245-3.4-8.742-3.4-2.46 0-4.663.583-6.605 1.748-1.943 1.165-3.476 2.774-4.598 4.824-1.123 2.052-1.684 4.371-1.684 6.962 0 2.59.55 4.9 1.651 6.928 1.101 2.031 2.633 3.616 4.598 4.76 1.964 1.144 4.177 1.716 6.637 1.716 3.497 0 6.411-1.111 8.743-3.335zm47.69-25.059c2.483 1.446 4.414 3.476 5.795 6.087 1.382 2.611 2.073 5.58 2.073 8.903 0 3.281-.691 6.216-2.073 8.806-1.382 2.59-3.302 4.609-5.763 6.054-2.46 1.447-5.267 2.17-8.419 2.17-3.108 0-5.827-.701-8.159-2.106-2.33-1.402-4.144-3.355-5.439-5.86v7.835h-4.339v-48.048h4.339v21.952c1.252-2.504 3.054-4.457 5.408-5.861 2.351-1.402 5.06-2.104 8.126-2.104 3.152.002 5.969.726 8.451 2.172zm-2.686 26.549c1.942-1.143 3.452-2.73 4.532-4.759 1.079-2.028 1.62-4.339 1.62-6.929 0-2.547-.541-4.834-1.62-6.863-1.08-2.029-2.59-3.615-4.532-4.759-1.943-1.144-4.123-1.717-6.54-1.717-2.462 0-4.653.573-6.573 1.717-1.922 1.144-3.432 2.73-4.533 4.759-1.101 2.029-1.651 4.316-1.651 6.863 0 2.59.54 4.901 1.62 6.929 1.079 2.029 2.59 3.616 4.532 4.759 1.943 1.144 4.144 1.716 6.606 1.716 2.416-.001 4.596-.572 6.539-1.716zM91.427 74.886c-2.761 0-5.001.934-6.721 2.803-1.72 1.87-2.581 4.291-2.581 7.264 0 3.058.861 5.523 2.581 7.39 1.72 1.87 3.96 2.803 6.721 2.803 4.078 0 7.137-1.338 9.175-4.013l5.161 4.269c-1.529 2.209-3.546 3.908-6.053 5.096-2.507 1.19-5.415 1.784-8.729 1.784-3.355 0-6.339-.721-8.951-2.166a15.236 15.236 0 0 1-6.084-6.084c-1.445-2.612-2.167-5.617-2.167-9.016 0-3.44.733-6.477 2.198-9.11 1.466-2.633 3.504-4.672 6.117-6.116 2.612-1.444 5.616-2.167 9.015-2.167 3.099 0 5.872.542 8.314 1.626 2.443 1.083 4.428 2.622 5.957 4.618l-5.033 4.779c-2.294-2.506-5.267-3.76-8.92-3.76zm28.863-20.26c.892.934 1.338 2.125 1.338 3.568 0 1.401-.446 2.569-1.338 3.504-.893.934-2.019 1.401-3.377 1.401-1.36 0-2.485-.467-3.377-1.401-.892-.934-1.338-2.103-1.338-3.504 0-1.444.446-2.634 1.338-3.568.892-.933 2.018-1.401 3.377-1.401 1.358 0 2.484.468 3.377 1.401zm-7.455 13.253h8.282v34.086h-8.282V67.879zm33.606 6.944c-1.763-.552-3.387-.828-4.874-.828-1.401 0-2.516.245-3.345.733-.828.489-1.242 1.242-1.242 2.262 0 1.062.52 1.879 1.561 2.453 1.04.574 2.686 1.179 4.937 1.816 2.378.722 4.332 1.433 5.861 2.134 1.53.701 2.856 1.742 3.982 3.122 1.126 1.38 1.689 3.196 1.689 5.448 0 3.313-1.274 5.861-3.823 7.645s-5.756 2.675-9.621 2.675c-2.634 0-5.203-.414-7.708-1.242-2.507-.828-4.631-2.007-6.372-3.536l2.867-5.798c1.529 1.317 3.355 2.348 5.48 3.09 2.124.744 4.141 1.115 6.053 1.115 1.529 0 2.749-.265 3.663-.796.914-.531 1.37-1.327 1.37-2.39 0-1.189-.531-2.081-1.592-2.675-1.062-.595-2.783-1.252-5.161-1.976-2.294-.679-4.163-1.347-5.607-2.006-1.445-.658-2.698-1.657-3.76-2.995-1.062-1.338-1.592-3.09-1.592-5.256 0-3.355 1.22-5.914 3.663-7.677 2.443-1.763 5.512-2.644 9.207-2.644a23.7 23.7 0 0 1 6.657.955c2.187.637 4.131 1.529 5.83 2.677l-2.995 5.989a24.38 24.38 0 0 0-5.128-2.295z"/><path d="M0 187.873h233.825M0 186.561h233.825v2.624H0zm159.476-60.496c24.857-24.858 24.857-65.304 0-90.161-12.041-12.042-28.051-18.673-45.081-18.673s-33.039 6.632-45.081 18.673c-24.858 24.858-24.858 65.304 0 90.161 12.041 12.041 28.051 18.673 45.081 18.673 17.029 0 33.039-6.632 45.081-18.673zM71.509 38.099c11.455-11.455 26.685-17.764 42.885-17.764s31.431 6.309 42.885 17.764c11.455 11.455 17.764 26.685 17.764 42.885s-6.309 31.431-17.764 42.885c-11.455 11.455-26.685 17.764-42.885 17.764s-31.431-6.309-42.885-17.764c-23.647-23.647-23.647-62.123 0-85.77z" fill="#E5E5E5"/><path fill="#E5E5E5" d="M165.224 17.934a2.308 2.308 0 1 0-2.899 3.591c18.074 14.588 28.439 36.26 28.439 59.458 0 20.399-7.944 39.577-22.368 54.001-14.425 14.424-33.602 22.368-54.001 22.368-12.789 0-25.441-3.222-36.588-9.318a2.307 2.307 0 1 0-2.215 4.049c11.825 6.466 25.242 9.884 38.803 9.884 21.632 0 41.968-8.424 57.264-23.72s23.72-35.633 23.72-57.264c0-24.599-10.991-47.58-30.155-63.049zM65.978 140.046c-17.763-14.58-27.951-36.107-27.951-59.062 0-20.399 7.944-39.577 22.368-54.001s33.601-22.368 54-22.368c12.585 0 25.058 3.125 36.071 9.038a2.307 2.307 0 1 0 2.184-4.066C140.968 3.315 127.739 0 114.395 0 92.764 0 72.427 8.424 57.131 23.72s-23.72 35.633-23.72 57.264c0 24.342 10.803 47.169 29.638 62.629.429.352.947.524 1.463.524a2.306 2.306 0 0 0 1.466-4.091z"/><path fill="#E5E5E5" d="M112.087 9.136v3.704a2.308 2.308 0 1 0 4.616 0V9.136a2.308 2.308 0 1 0-4.616 0zm0 139.992v3.704a2.308 2.308 0 1 0 4.616 0v-3.704a2.308 2.308 0 1 0-4.616 0zm74.156-65.836a2.308 2.308 0 1 0 0-4.616h-3.704a2.308 2.308 0 1 0 0 4.616h3.704zM48.559 80.984a2.308 2.308 0 0 0-2.308-2.308h-3.704a2.308 2.308 0 1 0 0 4.616h3.704a2.308 2.308 0 0 0 2.308-2.308zM162.58 35.107a2.3 2.3 0 0 0 1.632-.676l2.619-2.619a2.309 2.309 0 0 0-3.264-3.264l-2.619 2.619a2.309 2.309 0 0 0 1.632 3.94zm-98.002 92.43l-2.619 2.619a2.309 2.309 0 0 0 3.264 3.264l2.619-2.619a2.309 2.309 0 0 0-3.264-3.264zm96.37 0a2.309 2.309 0 0 0 0 3.264l2.619 2.619c.451.45 1.041.676 1.632.676a2.309 2.309 0 0 0 1.632-3.94l-2.619-2.619a2.309 2.309 0 0 0-3.264 0zM61.959 28.548a2.309 2.309 0 0 0 0 3.264l2.619 2.619c.45.45 1.041.676 1.632.676a2.309 2.309 0 0 0 1.632-3.94l-2.619-2.619a2.309 2.309 0 0 0-3.264 0zm79.188-14.286l-1.488 3.392a2.309 2.309 0 0 0 4.226 1.855l1.488-3.392a2.309 2.309 0 0 0-4.226-1.855zM84.905 142.46l-1.488 3.392a2.307 2.307 0 1 0 4.226 1.854l1.488-3.392a2.307 2.307 0 1 0-4.226-1.854zm92.82-36.213a2.309 2.309 0 0 0-1.855 4.227l3.392 1.488a2.306 2.306 0 0 0 3.04-1.186 2.309 2.309 0 0 0-1.186-3.041l-3.391-1.488zM51.991 55.916a2.308 2.308 0 0 0 .928-4.422l-3.392-1.488a2.309 2.309 0 0 0-1.855 4.227l3.392 1.488c.303.132.617.195.927.195zm128.5-3.196l-3.451 1.346a2.308 2.308 0 0 0 1.677 4.301l3.451-1.346a2.308 2.308 0 0 0-1.677-4.301zm-133.03 56.686c.279 0 .563-.051.838-.158l3.451-1.346a2.307 2.307 0 1 0-1.677-4.299l-3.451 1.346a2.308 2.308 0 0 0 .839 4.457zm90.863 32.912a2.308 2.308 0 0 0-1.311 2.989l1.346 3.451a2.309 2.309 0 1 0 4.3-1.677l-1.346-3.451a2.307 2.307 0 0 0-2.989-1.312zM87.442 11.9a2.309 2.309 0 0 0-1.311 2.989l1.346 3.451a2.309 2.309 0 0 0 4.3-1.676l-1.346-3.451a2.308 2.308 0 0 0-2.989-1.313z"/></svg>