<svg xmlns="http://www.w3.org/2000/svg" viewBox="0 0 46.4 30.4"><path fill="#0da5ce" d="M46.4 3.9c0-1-.4-1.9-1-2.6C44.6.5 43.6 0 42.5 0H3.9C2.8 0 1.8.5 1.1 1.2.4 2 0 2.9 0 3.9v22.7c0 1 .4 1.9 1.1 2.6.7.7 1.7 1.2 2.8 1.2h38.6c1.1 0 2.1-.5 2.8-1.2.7-.7 1.1-1.6 1.1-2.6V3.9zM31.2 14L44.6 2.9c.1.3.2.6.2.9v22.7c0 .3-.1.6-.2.9L31.2 14zM42.5 1.6c.3 0 .7.1.9.2L23.2 18.6 3 1.8c.3-.1.6-.2.9-.2h38.6zM1.8 27.4c-.1-.3-.2-.6-.2-.9V3.9c0-.3.1-.6.2-.9l13.4 11L1.8 27.4zm2.1 1.4c-.4 0-.7-.1-1-.3L16.4 15l6.3 5.2c.1.1.3.2.5.2s.4-.1.5-.2L30 15l13.5 13.5c-.3.2-.7.3-1 .3H3.9zm0 0"/></svg>