<svg id="Слой_1" xmlns="http://www.w3.org/2000/svg" viewBox="0 0 661.8 661.8"><style>.st0{opacity:.2}.st1{fill:#23e5e0}.st2{opacity:.6}.st3{opacity:.8}.st4{fill:#23e5e0;stroke:#01ffff;stroke-width:17;stroke-miterlimit:10}.st5{opacity:.4}.st6{fill:#23e5e0;stroke:#01ffff;stroke-width:6;stroke-miterlimit:10}.st7{fill:#fff}</style><g class="st0"><path class="st1" d="M330.9 661.8c-39.3 0-77.8-6.8-114.4-20.3-35.4-13-68-31.9-97.1-56.1C60.9 536.7 20.7 469 6.2 394.7 2.1 373.8 0 352.4 0 330.9 0 266.3 18.6 203.8 53.8 150 115.2 56.1 218.8 0 330.9 0c88.4 0 171.5 34.4 234 96.9 62.5 62.5 96.9 145.6 96.9 234s-34.4 171.5-96.9 234-145.6 96.9-234 96.9zm0-635.8C227.6 26 132.2 77.7 75.5 164.2 43.1 213.8 26 271.4 26 330.9c0 19.8 1.9 39.6 5.7 58.9 27.9 142.5 153.7 246 299.2 246 168.1 0 304.9-136.8 304.9-304.9C635.8 162.8 499 26 330.9 26z"/></g><g class="st2"><g class="st3"><path class="st1" d="M330.9 553.4c-59.4 0-115.3-23.1-157.3-65.2-42-42-65.2-97.9-65.2-157.3 0-59.4 23.1-115.3 65.2-157.3 42-42 97.9-65.2 157.3-65.2s115.3 23.1 157.3 65.2c42 42 65.2 97.9 65.2 157.3 0 59.4-23.1 115.3-65.2 157.3-42 42-97.9 65.2-157.3 65.2zm0-442c-121 0-219.5 98.5-219.5 219.5s98.5 219.5 219.5 219.5 219.5-98.5 219.5-219.5-98.5-219.5-219.5-219.5z"/></g></g><g class="st5"><path class="st1" d="M330.9 505.9c-96.5 0-175-78.5-175-175s78.5-175 175-175 175 78.5 175 175-78.5 175-175 175zm0-346c-94.3 0-171 76.7-171 171s76.7 171 171 171 171-76.7 171-171-76.7-171-171-171z"/></g><g class="st2"><path class="st1" d="M393.3 239.1c0-3 .4-5.9 1.1-8.6-20.7-3.5-48.3-6.6-63.6-6.6-14.8 0-41.1 2.9-61.6 6.3.8 2.9 1.2 5.9 1.2 9 0 18-14.1 32.7-31.9 33.6 2.2 29.7 9.8 70.1 18.9 91.9 14.9 36.1 66.6 67.9 73.5 73.5 6.8-5.6 58.5-37.3 73.4-73.5 9-21.8 16.7-62.3 18.9-92-16.8-2.1-29.9-16.3-29.9-33.6zm5 86.5c-2.9 13-6.2 24.5-9.5 32.5-9.9 24-41.9 47.9-57.9 59.2-15.9-11.3-48-35.2-57.9-59.2-3.3-7.9-6.6-19.5-9.5-32.5-2.8-12.7-5.2-26.7-6.8-40.1 16.5-7 28.4-22.6 30.3-41 17-2.3 33.9-3.8 43.9-3.8 10.3 0 28.4 1.7 45.9 4.1 2 17.5 12.9 32.5 28.3 39.8-1.5 13.6-4 28-6.8 41z"/></g><g class="st2"><path class="st7" d="M359.3 323.1c-2-2.6-5-4.3-9-5.3 5.1-2.6 7.3-7 6.7-13.2-.2-2.3-.8-4.2-1.9-5.9-1-1.7-2.5-3-4.2-4-1.8-1-3.7-1.8-5.8-2.3-2.1-.5-4.5-.9-7.2-1.2v-12.9H330v12.6c-1.4 0-3.5 0-6.3.1v-12.7h-7.9v12.9c-1.1 0-2.8.1-5 .1l-10.9-.1v8.4h5.7c2.6 0 4.1 1.2 4.6 3.5v14.7c.3 0 .6 0 .8.1h-.8v20.6c-.3 1.7-1.3 2.6-3 2.6h-5.7l-1.6 9.4h15.9v13.1h7.9v-12.9c1.4 0 3.5.1 6.3.1v12.9h7.9v-13.1c2.8-.1 5.3-.4 7.5-.8s4.3-1 6.2-1.8c2-.8 3.6-1.8 5-3 1.3-1.2 2.4-2.7 3.3-4.6.9-1.8 1.4-4 1.7-6.4.5-4.7-.3-8.3-2.3-10.9zm-35.4-22.9h2c1.1 0 2 0 2.8-.1.7 0 1.7 0 3 .1s2.3.2 3.2.4c.9.2 1.8.5 2.8.8 1 .4 1.8.9 2.5 1.4.6.6 1.1 1.3 1.6 2.2.4.9.6 1.9.6 3 0 1-.2 1.8-.5 2.6s-.8 1.4-1.4 2c-.6.5-1.2 1-1.9 1.4-.7.4-1.5.7-2.5 1-1 .2-1.9.4-2.6.6-.8.1-1.7.2-2.8.3-1.1 0-2 .1-2.6.1h-4.2v-15.8zm21.6 35c-.3.8-.7 1.5-1.3 2.1-.5.6-1.2 1.1-2 1.5-.8.4-1.7.8-2.4 1.1-.8.3-1.7.5-2.8.7-1.1.2-2.1.4-2.9.4-.8.1-1.8.2-3 .2s-2.1.1-2.7.1H324V324c.3 0 1.1 0 2.4-.1h3.3c.8 0 2 0 3.5.2 1.5.1 2.8.3 3.8.5s2.1.5 3.4 1c1.2.4 2.2.9 3 1.6.8.6 1.4 1.4 1.9 2.4s.8 2.1.8 3.3c-.1.6-.3 1.5-.6 2.3zm0 0"/></g></svg>