<svg id="Слой_1" xmlns="http://www.w3.org/2000/svg" viewBox="0 0 567.1 567.3"><style>.st0{opacity:.4}.st1{fill:#23e5e0}</style><g id="XMLID_26_"><g id="XMLID_27_" class="st0"><g id="XMLID_698_"><g id="XMLID_699_"><path id="XMLID_700_" class="st1" d="M66.1 113.6c4.1 3.1 5.2 6.3 3.2 8.9-1.8 2.3-5.1 2.3-9.1-.7s-4.9-6.4-3.1-8.8c1.9-2.5 5.2-2.3 9 .6zm-4.7 6.6c3.1 2.3 5.6 2.7 6.7 1.2 1.2-1.7-.1-3.9-3.1-6.2-2.9-2.2-5.4-2.9-6.7-1.2-1.1 1.4-.2 3.8 3.1 6.2z"/></g></g><g id="XMLID_21_"><g id="XMLID_22_"><path id="XMLID_23_" class="st1" d="M58.4 122.9c4.2 2.9 5.4 6.1 3.5 8.8-1.7 2.4-5 2.5-9.1-.3-4.1-2.9-5.1-6.2-3.4-8.7 1.7-2.6 5.1-2.5 9 .2zm-4.5 6.8c3.2 2.2 5.7 2.5 6.7 1 1.2-1.7-.2-3.9-3.4-6.1-3-2.1-5.5-2.7-6.7-1-1 1.5.1 3.8 3.4 6.1z"/></g></g><g id="XMLID_688_"><g id="XMLID_689_"><path id="XMLID_690_" class="st1" d="M73.6 104.3c3.9 3.2 4.9 6.5 2.8 9-1.9 2.3-5.2 2-9.1-1.1-3.9-3.2-4.6-6.6-2.7-9 2.1-2.3 5.4-1.9 9 1.1zm-4.9 6.4c3 2.5 5.5 3 6.6 1.5 1.3-1.6.1-3.9-2.9-6.3-2.8-2.3-5.3-3.1-6.6-1.5-1.1 1.4-.3 3.8 2.9 6.3z"/></g></g><g id="XMLID_684_"><g id="XMLID_685_"><path id="XMLID_686_" class="st1" d="M73.9 95.9l-.7 2.9-1.4-.7.9-3.6 1.2-1.3 11.1 10-1.3 1.5-9.8-8.8z"/></g></g><g id="XMLID_680_"><g id="XMLID_681_"><path id="XMLID_682_" class="st1" d="M82.2 87l-.8 2.9-1.4-.8 1-3.6 1.2-1.2 10.7 10.5-1.4 1.4-9.3-9.2z"/></g></g><g id="XMLID_675_"><g id="XMLID_676_"><path id="XMLID_677_" class="st1" d="M98.7 78.6c3.5 3.7 4 7 1.6 9.3-2.1 2-5.4 1.4-8.9-2.2-3.4-3.7-3.7-7.2-1.5-9.2 2.3-2.2 5.5-1.3 8.8 2.1zm-5.8 5.7c2.7 2.8 5 3.6 6.4 2.4 1.5-1.4.6-3.9-2-6.6-2.5-2.7-4.9-3.8-6.4-2.4-1.3 1.2-.8 3.7 2 6.6z"/></g></g><g id="XMLID_670_"><g id="XMLID_671_"><path id="XMLID_672_" class="st1" d="M107.7 70.8c3.3 3.9 3.7 7.2 1.2 9.4-2.2 1.9-5.5 1.1-8.8-2.6-3.3-3.8-3.4-7.3-1.1-9.3 2.4-2.1 5.6-1.1 8.7 2.5zm-6 5.4c2.5 3 4.9 3.8 6.3 2.6 1.6-1.3.7-3.8-1.7-6.7-2.4-2.8-4.7-4-6.3-2.6-1.4 1.2-.9 3.7 1.7 6.7z"/></g></g><g id="XMLID_665_"><g id="XMLID_666_"><path id="XMLID_667_" class="st1" d="M117.1 63.4c3.1 4 3.4 7.4.8 9.4-2.3 1.8-5.5.9-8.6-3-3.1-3.9-3.1-7.4-.7-9.3 2.4-2 5.6-.9 8.5 2.9zm-6.2 5.2c2.4 3.1 4.7 4.1 6.2 2.9 1.6-1.3.9-3.8-1.4-6.8-2.3-2.9-4.5-4.2-6.2-2.9-1.5 1.1-1.1 3.6 1.4 6.8z"/></g></g><g id="XMLID_660_"><g id="XMLID_661_"><path id="XMLID_662_" class="st1" d="M126.8 56.3c3 4.1 3.1 7.5.4 9.4-2.4 1.7-5.6.6-8.5-3.4-2.9-4.1-2.8-7.6-.3-9.3 2.5-1.8 5.6-.5 8.4 3.3zm-6.5 5c2.3 3.2 4.5 4.3 6 3.2 1.7-1.2 1.1-3.7-1.2-6.8-2.1-3-4.3-4.4-6-3.2-1.4 1-1.1 3.5 1.2 6.8z"/></g></g><g id="XMLID_656_"><g id="XMLID_657_"><path id="XMLID_658_" class="st1" d="M129.2 48.3l-1.4 2.6-1.2-1.1 1.8-3.3 1.4-.9 8.2 12.5-1.6 1.1-7.2-10.9z"/></g></g><g id="XMLID_652_"><g id="XMLID_653_"><path id="XMLID_654_" class="st1" d="M139.5 41.8l-1.6 2.6-1.1-1.1 1.9-3.2 1.5-.9 7.6 12.8-1.7 1-6.6-11.2z"/></g></g><g id="XMLID_648_"><g id="XMLID_649_"><path id="XMLID_650_" class="st1" d="M150.1 35.7l-1.7 2.5-1.1-1.2 2-3.1 1.5-.8 7.1 13.2-1.7.9-6.1-11.5z"/></g></g><g id="XMLID_643_"><g id="XMLID_644_"><path id="XMLID_645_" class="st1" d="M168.3 32.7c2.2 4.6 1.7 7.9-1.3 9.4-2.6 1.3-5.6-.3-7.8-4.8s-1.4-7.9 1.3-9.3c2.9-1.4 5.8.4 7.8 4.7zm-7.2 3.7c1.7 3.5 3.7 5 5.4 4.2 1.9-.9 1.7-3.5 0-6.9-1.6-3.3-3.5-5.1-5.4-4.2-1.5.7-1.8 3.2 0 6.9z"/></g></g><g id="XMLID_638_"><g id="XMLID_639_"><path id="XMLID_640_" class="st1" d="M179.3 27.9c2 4.7 1.4 8-1.7 9.3-2.7 1.2-5.6-.6-7.6-5.1-2-4.6-1.1-8 1.7-9.2 3-1.2 5.7.6 7.6 5zm-7.4 3.4c1.5 3.6 3.5 5.1 5.2 4.4 1.9-.8 1.9-3.4.3-6.9-1.5-3.4-3.3-5.2-5.2-4.4-1.6.7-1.9 3.2-.3 6.9z"/></g></g><g id="XMLID_633_"><g id="XMLID_634_"><path id="XMLID_635_" class="st1" d="M190.5 23.6c1.8 4.8 1 8-2.1 9.2-2.7 1-5.6-.8-7.3-5.4-1.8-4.7-.7-8 2.1-9.1 2.9-1.1 5.6.9 7.3 5.3zm-7.5 3.1c1.4 3.6 3.3 5.3 5 4.6 1.9-.7 2-3.3.6-6.9-1.3-3.4-3-5.4-5-4.6-1.6.6-2.1 3.1-.6 6.9z"/></g></g><g id="XMLID_628_"><g id="XMLID_629_"><path id="XMLID_630_" class="st1" d="M201.8 19.8c1.6 4.8.7 8.1-2.5 9.1-2.8.9-5.5-1.1-7.1-5.7-1.6-4.8-.4-8.1 2.5-9 3-1 5.6 1.1 7.1 5.6zm-7.6 2.8c1.2 3.7 3 5.4 4.8 4.8 2-.6 2.1-3.3.9-6.9-1.2-3.5-2.8-5.5-4.8-4.8-1.6.6-2.2 3-.9 6.9z"/></g></g><g id="XMLID_624_"><g id="XMLID_625_"><path id="XMLID_626_" class="st1" d="M206.5 12.8l-2.2 2.1-.8-1.4 2.7-2.6 1.7-.5 4.1 14.4-1.9.5-3.6-12.5z"/></g></g><g id="XMLID_620_"><g id="XMLID_621_"><path id="XMLID_622_" class="st1" d="M218.3 9.7l-2.3 2-.7-1.4 2.8-2.5 1.7-.4 3.4 14.5-1.9.4-3-12.6z"/></g></g><g id="XMLID_615_"><g id="XMLID_616_"><path id="XMLID_617_" class="st1" d="M236.7 11.5c1 5-.4 8.1-3.6 8.7-2.9.5-5.3-1.8-6.3-6.6-.9-4.9.7-8 3.7-8.6 3-.6 5.3 1.8 6.2 6.5zm-7.9 1.7c.7 3.8 2.3 5.8 4.1 5.4 2-.4 2.6-2.9 1.8-6.7-.7-3.6-2.1-5.8-4.1-5.4-1.7.3-2.6 2.7-1.8 6.7z"/></g></g><g id="XMLID_611_"><g id="XMLID_612_"><path id="XMLID_613_" class="st1" d="M242.3 5.1l-2.4 1.8-.6-1.5 3-2.2L244 3l2.2 14.8-1.9.3-2-13z"/></g></g><g id="XMLID_606_"><g id="XMLID_607_"><path id="XMLID_608_" class="st1" d="M260.5 8.4c.5 5.1-1.1 8-4.4 8.4-2.9.3-5.2-2.2-5.7-7.1-.5-5 1.4-8 4.4-8.3 3.1-.3 5.2 2.3 5.7 7zm-8.1 1.1c.4 3.9 1.8 5.9 3.6 5.8 2.1-.2 2.8-2.7 2.4-6.5-.4-3.7-1.6-6-3.6-5.8-1.8.2-2.8 2.4-2.4 6.5z"/></g></g><g id="XMLID_602_"><g id="XMLID_603_"><path id="XMLID_604_" class="st1" d="M266.5 2.6L264 4.2l-.5-1.5 3.2-1.9 1.7-.1.9 14.9-2 .1-.8-13.1z"/></g></g><g id="XMLID_597_"><g id="XMLID_598_"><path id="XMLID_599_" class="st1" d="M284.3 7.5c.1 5.1-1.8 7.9-5.1 8-2.9 0-4.9-2.7-5.1-7.6-.1-5 2-7.8 5.1-7.9 3.2 0 5.1 2.7 5.1 7.5zm-8.1.3c.1 3.9 1.3 6.1 3.1 6 2.1 0 3-2.5 3-6.3-.1-3.7-1-6.1-3.1-6-1.8.1-3 2.3-3 6.3z"/></g></g><g id="XMLID_593_"><g id="XMLID_594_"><path id="XMLID_595_" class="st1" d="M290.9 2.2l-2.7 1.3-.3-1.5 3.3-1.7h1.7l-.4 14.9-2-.1.4-12.9z"/></g></g><g id="XMLID_588_"><g id="XMLID_589_"><path id="XMLID_590_" class="st1" d="M308.3 8.6c-.4 5.1-2.4 7.7-5.7 7.5-2.9-.2-4.7-3.1-4.4-8 .3-5 2.7-7.6 5.7-7.4 3.1.2 4.7 3.1 4.4 7.9zm-8.2-.4c-.3 3.9.8 6.2 2.6 6.3 2.1.1 3.2-2.2 3.5-6 .3-3.7-.5-6.1-2.6-6.3-1.7-.1-3.2 2-3.5 6z"/></g></g><g id="XMLID_583_"><g id="XMLID_584_"><path id="XMLID_585_" class="st1" d="M320.2 9.9c-.6 5.1-2.8 7.6-6.1 7.3-2.9-.3-4.6-3.3-4-8.2.6-5 3-7.5 6-7.1 3.1.2 4.6 3.2 4.1 8zm-8.1-.7c-.4 3.9.5 6.2 2.3 6.4 2.1.2 3.3-2.1 3.7-5.8.4-3.7-.2-6.2-2.3-6.4-1.8-.3-3.3 1.7-3.7 5.8z"/></g></g><g id="XMLID_578_"><g id="XMLID_579_"><path id="XMLID_580_" class="st1" d="M332 11.7c-.8 5-3.1 7.5-6.4 7-2.9-.5-4.4-3.5-3.7-8.4.8-5 3.3-7.3 6.3-6.9 3.2.5 4.5 3.6 3.8 8.3zm-8.1-1c-.6 3.8.2 6.2 2.1 6.5 2 .3 3.4-1.9 4-5.7.6-3.6 0-6.2-2.1-6.5-1.8-.3-3.4 1.6-4 5.7z"/></g></g><g id="XMLID_573_"><g id="XMLID_574_"><path id="XMLID_575_" class="st1" d="M343.7 14c-1 5-3.4 7.4-6.7 6.7-2.9-.6-4.3-3.7-3.3-8.5 1-4.9 3.7-7.2 6.6-6.6 3.2.7 4.4 3.8 3.4 8.4zm-8-1.4c-.8 3.8 0 6.2 1.8 6.6 2 .4 3.5-1.8 4.2-5.5.7-3.6.3-6.2-1.8-6.6-1.7-.3-3.4 1.6-4.2 5.5z"/></g></g><g id="XMLID_569_"><g id="XMLID_570_"><path id="XMLID_571_" class="st1" d="M351.3 10.3l-2.9.7V9.4l3.6-.9 1.7.4-3.7 14.5-1.9-.5 3.2-12.6z"/></g></g><g id="XMLID_565_"><g id="XMLID_566_"><path id="XMLID_567_" class="st1" d="M363 13.4l-2.9.6.1-1.6 3.6-.8 1.7.5-4.2 14.3-1.9-.6 3.6-12.4z"/></g></g><g id="XMLID_561_"><g id="XMLID_562_"><path id="XMLID_563_" class="st1" d="M374.7 17.1l-3 .5.1-1.6 3.7-.6 1.6.6-4.9 14.1-1.8-.6 4.3-12.4z"/></g></g><g id="XMLID_556_"><g id="XMLID_557_"><path id="XMLID_558_" class="st1" d="M389.3 28.4c-1.9 4.7-4.6 6.7-7.7 5.4-2.7-1.1-3.6-4.3-1.8-9s4.9-6.4 7.7-5.3c2.9 1.2 3.5 4.5 1.8 8.9zm-7.6-2.7c-1.4 3.6-1.1 6.1.6 6.8 1.9.8 3.7-1.1 5.1-4.7 1.3-3.4 1.4-6-.6-6.8-1.7-.7-3.6.9-5.1 4.7z"/></g></g><g id="XMLID_551_"><g id="XMLID_552_"><path id="XMLID_553_" class="st1" d="M400.3 33.2c-2.1 4.6-4.9 6.4-8 5.1-2.7-1.2-3.4-4.5-1.4-9 2-4.6 5.1-6.2 7.9-5 2.9 1.3 3.4 4.6 1.5 8.9zm-7.6-3.1c-1.6 3.6-1.4 6.1.3 6.8 1.9.8 3.8-1 5.3-4.5 1.5-3.4 1.6-6-.3-6.8-1.5-.6-3.6.8-5.3 4.5z"/></g></g><g id="XMLID_546_"><g id="XMLID_547_"><path id="XMLID_548_" class="st1" d="M411 38.5c-2.3 4.6-5.2 6.2-8.2 4.8-2.6-1.3-3.2-4.6-1-9.1s5.4-6 8.1-4.6c2.9 1.3 3.2 4.7 1.1 8.9zm-7.4-3.4c-1.7 3.5-1.6 6 0 6.8 1.9.9 3.8-.8 5.5-4.2 1.6-3.3 1.9-5.9 0-6.8-1.5-.8-3.7.6-5.5 4.2z"/></g></g><g id="XMLID_542_"><g id="XMLID_543_"><path id="XMLID_544_" class="st1" d="M419.3 36.8l-3-.1.4-1.5h3.7l1.5.8-7.2 13.1-1.7-.9 6.3-11.4z"/></g></g><g id="XMLID_537_"><g id="XMLID_538_"><path id="XMLID_539_" class="st1" d="M431.7 50.5c-2.7 4.3-5.7 5.7-8.5 4-2.5-1.5-2.8-4.9-.2-9.1 2.6-4.3 5.9-5.5 8.5-3.9 2.6 1.6 2.7 4.9.2 9zm-7-4.1c-2 3.3-2.2 5.8-.6 6.8 1.8 1.1 3.9-.5 5.9-3.7 1.9-3.1 2.4-5.7.6-6.8-1.6-.9-3.8.3-5.9 3.7z"/></g></g><g id="XMLID_533_"><g id="XMLID_534_"><path id="XMLID_535_" class="st1" d="M440.1 49.5l-3-.3.5-1.5 3.7.4 1.4 1-8.3 12.4-1.6-1.1 7.3-10.9z"/></g></g><g id="XMLID_528_"><g id="XMLID_529_"><path id="XMLID_530_" class="st1" d="M451.3 64.2c-3 4.1-6.2 5.2-8.9 3.3-2.4-1.7-2.3-5.1.6-9.1 3-4 6.4-5 8.8-3.2 2.6 1.8 2.4 5.1-.5 9zm-6.6-4.7c-2.3 3.1-2.7 5.6-1.2 6.7 1.7 1.2 3.9-.1 6.2-3.2 2.2-3 2.9-5.5 1.2-6.7-1.5-1-3.8 0-6.2 3.2z"/></g></g><g id="XMLID_524_"><g id="XMLID_525_"><path id="XMLID_526_" class="st1" d="M459.8 63.9l-2.9-.6.7-1.4 3.6.7 1.3 1.1-9.4 11.6-1.5-1.2 8.2-10.2z"/></g></g><g id="XMLID_519_"><g id="XMLID_520_"><path id="XMLID_521_" class="st1" d="M469.7 79.5c-3.4 3.8-6.6 4.7-9.1 2.5-2.2-1.9-1.9-5.3 1.4-9 3.3-3.8 6.8-4.4 9-2.4 2.3 2 1.8 5.3-1.3 8.9zm-6.3-5.2c-2.6 2.9-3.1 5.4-1.7 6.6 1.6 1.4 3.9.2 6.4-2.7 2.4-2.8 3.3-5.2 1.7-6.6-1.3-1.1-3.7-.3-6.4 2.7z"/></g></g><g id="XMLID_515_"><g id="XMLID_516_"><path id="XMLID_517_" class="st1" d="M478.1 80l-2.9-.8.8-1.4 3.6 1 1.2 1.2-10.3 10.8-1.4-1.4 9-9.4z"/></g></g><g id="XMLID_510_"><g id="XMLID_511_"><path id="XMLID_512_" class="st1" d="M486.7 96.4c-3.7 3.5-7 4.1-9.3 1.7-2-2.1-1.4-5.4 2.1-8.9 3.6-3.5 7.1-3.8 9.2-1.6 2.2 2.3 1.4 5.5-2 8.8zm-5.8-5.7c-2.8 2.7-3.6 5.1-2.3 6.4 1.4 1.5 3.9.5 6.6-2.1 2.7-2.5 3.8-4.9 2.3-6.4-1.2-1.3-3.7-.7-6.6 2.1z"/></g></g><g id="XMLID_505_"><g id="XMLID_506_"><path id="XMLID_507_" class="st1" d="M494.6 105.4c-3.8 3.4-7.2 3.8-9.4 1.3-1.9-2.2-1.2-5.5 2.5-8.8 3.8-3.3 7.3-3.5 9.3-1.2 2.1 2.3 1.2 5.5-2.4 8.7zm-5.5-6c-2.9 2.6-3.8 4.9-2.6 6.3 1.4 1.6 3.8.7 6.7-1.8 2.8-2.4 4-4.7 2.6-6.3-1.2-1.3-3.7-.9-6.7 1.8z"/></g></g><g id="XMLID_500_"><g id="XMLID_501_"><path id="XMLID_502_" class="st1" d="M502.1 114.6c-4 3.2-7.3 3.5-9.4.9-1.8-2.3-.9-5.5 2.9-8.7 3.9-3.1 7.4-3.2 9.3-.8 2 2.5.9 5.7-2.8 8.6zm-5.2-6.1c-3 2.4-4 4.8-2.8 6.2 1.3 1.6 3.8.9 6.8-1.5 2.9-2.3 4.2-4.6 2.8-6.2-1.2-1.4-3.7-1.1-6.8 1.5z"/></g></g><g id="XMLID_495_"><g id="XMLID_496_"><path id="XMLID_497_" class="st1" d="M509.2 124.3c-4.1 3-7.5 3.2-9.4.5-1.7-2.4-.7-5.6 3.3-8.5 4-3 7.5-2.9 9.3-.4 1.9 2.4.7 5.5-3.2 8.4zm-5-6.4c-3.1 2.3-4.2 4.6-3.1 6.1 1.2 1.7 3.8 1 6.8-1.2s4.3-4.4 3.1-6.1c-1-1.5-3.5-1.3-6.8 1.2z"/></g></g><g id="XMLID_490_"><g id="XMLID_491_"><path id="XMLID_492_" class="st1" d="M515.9 134.2c-4.2 2.8-7.6 2.8-9.4.1-1.6-2.4-.5-5.6 3.6-8.4 4.2-2.8 7.7-2.5 9.4 0 1.7 2.6.4 5.6-3.6 8.3zm-4.7-6.6c-3.2 2.2-4.4 4.4-3.4 5.9 1.2 1.7 3.7 1.2 6.9-.9 3.1-2.1 4.5-4.2 3.4-5.9-1-1.6-3.5-1.4-6.9.9z"/></g></g><g id="XMLID_485_"><g id="XMLID_486_"><path id="XMLID_487_" class="st1" d="M522.2 144.4c-4.3 2.6-7.7 2.5-9.4-.3-1.5-2.5-.2-5.6 4-8.2 4.3-2.6 7.8-2.2 9.3.4 1.6 2.6.2 5.6-3.9 8.1zm-4.4-6.9c-3.3 2-4.6 4.2-3.6 5.8 1.1 1.8 3.7 1.4 6.9-.6 3.1-1.9 4.7-4 3.6-5.8-.9-1.5-3.4-1.5-6.9.6z"/></g></g><g id="XMLID_480_"><g id="XMLID_481_"><path id="XMLID_482_" class="st1" d="M528 154.8c-4.5 2.5-7.8 2.2-9.4-.7-1.4-2.6 0-5.6 4.3-8 4.4-2.4 7.9-1.9 9.3.8 1.6 2.7 0 5.6-4.2 7.9zm-4.1-7c-3.4 1.9-4.8 4-3.9 5.6 1 1.8 3.6 1.5 6.9-.3 3.2-1.8 4.9-3.8 3.9-5.6-.8-1.6-3.3-1.6-6.9.3z"/></g></g><g id="XMLID_475_"><g id="XMLID_476_"><path id="XMLID_477_" class="st1" d="M533.4 165.5c-4.6 2.3-7.9 1.8-9.4-1.1-1.3-2.6.3-5.6 4.7-7.8 4.5-2.2 7.9-1.5 9.3 1.2 1.4 2.7-.3 5.6-4.6 7.7zm-3.8-7.2c-3.5 1.7-4.9 3.8-4.1 5.4.9 1.9 3.5 1.7 6.9 0 3.3-1.6 5-3.6 4.1-5.4-.8-1.6-3.3-1.8-6.9 0z"/></g></g><g id="XMLID_470_"><g id="XMLID_471_"><path id="XMLID_472_" class="st1" d="M538.3 176.4c-4.6 2.1-8 1.5-9.3-1.6-1.2-2.7.5-5.6 5-7.6 4.6-2 8-1.2 9.2 1.6 1.3 2.9-.6 5.7-4.9 7.6zm-3.5-7.3c-3.6 1.6-5.1 3.6-4.3 5.2.8 1.9 3.4 1.8 6.9.3 3.4-1.5 5.2-3.3 4.3-5.2-.7-1.6-3.2-1.9-6.9-.3z"/></g></g><g id="XMLID_465_"><g id="XMLID_466_"><path id="XMLID_467_" class="st1" d="M542.7 187.6c-4.7 1.9-8 1.1-9.2-2-1.1-2.7.8-5.6 5.3-7.4 4.7-1.8 8-.8 9.1 2 1.2 2.9-.8 5.6-5.2 7.4zm-3.2-7.5c-3.6 1.4-5.2 3.3-4.6 5.1.8 1.9 3.4 2 6.9.6 3.4-1.3 5.3-3.1 4.6-5.1-.6-1.7-3.1-2.1-6.9-.6z"/></g></g><g id="XMLID_460_"><g id="XMLID_461_"><path id="XMLID_462_" class="st1" d="M546.6 198.9c-4.8 1.6-8.1.8-9.1-2.4-.9-2.8 1-5.5 5.7-7.2 4.7-1.6 8.1-.5 9 2.4 1 3-1.1 5.6-5.6 7.2zm-2.9-7.6c-3.7 1.3-5.4 3.1-4.8 4.8.7 2 3.3 2.1 6.9.9 3.5-1.2 5.5-2.9 4.8-4.8-.5-1.7-3-2.3-6.9-.9z"/></g></g><g id="XMLID_455_"><g id="XMLID_456_"><path id="XMLID_457_" class="st1" d="M550 210.4c-4.9 1.4-8.1.4-9-2.8-.8-2.8 1.2-5.5 6-6.9 4.8-1.4 8.1-.1 8.9 2.8.9 3-1.3 5.5-5.9 6.9zm-2.5-7.8c-3.7 1.1-5.5 2.9-5 4.6.6 2 3.2 2.3 6.8 1.2 3.5-1 5.6-2.6 5-4.6-.5-1.7-2.9-2.3-6.8-1.2z"/></g></g><g id="XMLID_450_"><g id="XMLID_451_"><path id="XMLID_452_" class="st1" d="M552.9 222c-4.9 1.2-8.1.1-8.9-3.2-.7-2.8 1.5-5.4 6.3-6.6 4.9-1.2 8.1.2 8.8 3.2.7 3-1.5 5.4-6.2 6.6zm-2.1-7.9c-3.8.9-5.6 2.6-5.2 4.4.5 2 3.1 2.4 6.8 1.5 3.6-.9 5.7-2.4 5.2-4.4-.5-1.7-2.9-2.4-6.8-1.5z"/></g></g><g id="XMLID_445_"><g id="XMLID_446_"><path id="XMLID_447_" class="st1" d="M555.3 233.7c-5 1-8.1-.3-8.8-3.5-.6-2.9 1.7-5.3 6.5-6.4 4.9-1 8 .6 8.6 3.6.8 3-1.6 5.3-6.3 6.3zm-1.8-7.9c-3.8.8-5.7 2.4-5.4 4.2.4 2 3 2.5 6.7 1.8 3.6-.7 5.8-2.1 5.4-4.2-.3-1.8-2.7-2.6-6.7-1.8z"/></g></g><g id="XMLID_440_"><g id="XMLID_441_"><path id="XMLID_442_" class="st1" d="M557.2 245.5c-5 .8-8.1-.6-8.6-3.9-.5-2.9 1.9-5.3 6.8-6.1 5-.8 8 .9 8.5 3.9.5 3.2-2 5.4-6.7 6.1zm-1.4-8c-3.8.6-5.8 2.1-5.5 3.9.3 2 2.9 2.6 6.6 2.1 3.6-.6 5.9-1.9 5.5-3.9-.3-1.8-2.6-2.7-6.6-2.1z"/></g></g><g id="XMLID_435_"><g id="XMLID_436_"><path id="XMLID_437_" class="st1" d="M558.6 257.4c-5.1.6-8.1-1-8.4-4.3-.3-2.9 2.2-5.2 7.1-5.8 5-.6 8 1.3 8.3 4.3.3 3.1-2.2 5.2-7 5.8zm-1.1-8.1c-3.9.4-5.9 1.9-5.7 3.7.2 2.1 2.7 2.8 6.5 2.3 3.7-.4 6-1.6 5.7-3.7-.2-1.7-2.5-2.7-6.5-2.3z"/></g></g><g id="XMLID_430_"><g id="XMLID_431_"><path id="XMLID_432_" class="st1" d="M559.5 269.3c-5.1.4-8-1.3-8.2-4.6-.2-2.9 2.4-5.1 7.3-5.5 5-.3 7.9 1.6 8.1 4.7.2 3.1-2.5 5.1-7.2 5.4zm-.8-8.1c-3.9.3-6 1.6-5.9 3.5.1 2.1 2.6 2.9 6.4 2.6 3.7-.3 6-1.4 5.9-3.4-.1-1.8-2.3-2.9-6.4-2.7z"/></g></g><g id="XMLID_426_"><g id="XMLID_427_"><path id="XMLID_428_" class="st1" d="M565.1 275.6l-1.5-2.6 1.5-.4 1.8 3.2v1.7l-14.9.4-.1-2 13.2-.3z"/></g></g><g id="XMLID_422_"><g id="XMLID_423_"><path id="XMLID_424_" class="st1" d="M565.2 287.8l-1.4-2.7 1.5-.4 1.7 3.3v1.7l-14.9-.2v-2l13.1.3z"/></g></g><g id="XMLID_417_"><g id="XMLID_418_"><path id="XMLID_419_" class="st1" d="M559 305.2c-5.1-.3-7.8-2.3-7.6-5.7.2-2.9 3-4.7 8-4.5 5 .3 7.6 2.6 7.5 5.6-.2 3.2-3.1 4.9-7.9 4.6zm.3-8.1c-3.9-.2-6.2.8-6.3 2.7-.1 2.1 2.2 3.2 6 3.4 3.7.2 6.1-.6 6.3-2.7.1-1.8-2-3.2-6-3.4z"/></g></g><g id="XMLID_412_"><g id="XMLID_413_"><path id="XMLID_414_" class="st1" d="M557.9 317.1c-5.1-.5-7.7-2.7-7.3-6 .3-2.9 3.2-4.6 8.1-4.1 5 .5 7.5 2.9 7.2 6-.3 3.1-3.3 4.6-8 4.1zm.5-8.1c-3.9-.4-6.2.6-6.4 2.4-.2 2.1 2.1 3.3 5.9 3.7 3.7.4 6.2-.3 6.4-2.4.2-1.8-1.8-3.3-5.9-3.7z"/></g></g><g id="XMLID_407_"><g id="XMLID_408_"><path id="XMLID_409_" class="st1" d="M556.2 328.9c-5-.7-7.5-3-7.1-6.3.4-2.9 3.4-4.5 8.3-3.8 5 .7 7.4 3.3 6.9 6.3-.4 3.1-3.4 4.5-8.1 3.8zm.9-8c-3.8-.6-6.2.3-6.5 2.1-.3 2 1.9 3.4 5.7 3.9 3.6.5 6.2-.1 6.5-2.1.3-1.8-1.7-3.4-5.7-3.9z"/></g></g><g id="XMLID_402_"><g id="XMLID_403_"><path id="XMLID_404_" class="st1" d="M554 340.7c-5-1-7.4-3.3-6.8-6.6.5-2.9 3.6-4.3 8.5-3.4 4.9.9 7.2 3.6 6.7 6.6-.7 3-3.8 4.3-8.4 3.4zm1.3-8c-3.8-.7-6.2 0-6.6 1.8-.4 2 1.8 3.5 5.6 4.2 3.6.7 6.2.2 6.6-1.8.2-1.8-1.6-3.5-5.6-4.2z"/></g></g><g id="XMLID_398_"><g id="XMLID_399_"><path id="XMLID_400_" class="st1" d="M557.8 348.2l-.8-2.9h1.6l.9 3.6-.4 1.7-14.5-3.4.4-1.9 12.8 2.9z"/></g></g><g id="XMLID_393_"><g id="XMLID_394_"><path id="XMLID_395_" class="st1" d="M548 363.9c-4.9-1.4-7.1-4-6.2-7.1.8-2.8 4-4 8.7-2.7 4.8 1.4 6.9 4.2 6.1 7.1-.8 3-4 4-8.6 2.7zm2-7.9c-3.7-1.1-6.2-.5-6.7 1.3-.6 2 1.5 3.6 5.2 4.6 3.5 1 6.1.8 6.7-1.3.5-1.7-1.3-3.5-5.2-4.6z"/></g></g><g id="XMLID_388_"><g id="XMLID_389_"><path id="XMLID_390_" class="st1" d="M544.3 375.2c-4.8-1.6-6.9-4.3-5.9-7.4.9-2.8 4.1-3.8 8.8-2.3 4.8 1.6 6.7 4.5 5.7 7.4-.9 3-4.1 3.8-8.6 2.3zm2.3-7.7c-3.7-1.2-6.2-.8-6.7 1-.6 2 1.3 3.7 5 4.9 3.5 1.2 6.1 1 6.7-1 .5-1.8-1.1-3.7-5-4.9z"/></g></g><g id="XMLID_383_"><g id="XMLID_384_"><path id="XMLID_385_" class="st1" d="M540.1 386.4c-4.8-1.8-6.7-4.6-5.5-7.7 1-2.7 4.3-3.6 8.9-1.9 4.7 1.8 6.5 4.8 5.4 7.6-1.1 3.1-4.4 3.7-8.8 2zm2.7-7.6c-3.6-1.4-6.1-1-6.8.7-.7 1.9 1.2 3.7 4.7 5.1 3.4 1.3 6 1.3 6.8-.7.6-1.7-.9-3.7-4.7-5.1z"/></g></g><g id="XMLID_378_"><g id="XMLID_379_"><path id="XMLID_380_" class="st1" d="M535.4 397.4c-4.7-2-6.5-4.9-5.2-7.9 1.2-2.7 4.5-3.4 9-1.5 4.6 2 6.3 5.1 5.1 7.8-1.2 3-4.5 3.5-8.9 1.6zm3-7.5c-3.6-1.5-6.1-1.3-6.8.4-.8 1.9 1 3.8 4.5 5.3 3.4 1.5 6 1.5 6.8-.4.7-1.7-.8-3.7-4.5-5.3z"/></g></g><g id="XMLID_374_"><g id="XMLID_375_"><path id="XMLID_376_" class="st1" d="M537.5 405.6l-.1-3 1.6.3.2 3.7-.8 1.6-13.5-6.5.9-1.8 11.7 5.7z"/></g></g><g id="XMLID_369_"><g id="XMLID_370_"><path id="XMLID_371_" class="st1" d="M524.6 418.8c-4.5-2.4-6.1-5.4-4.5-8.3 1.4-2.6 4.7-3 9.1-.7 4.4 2.4 5.8 5.6 4.4 8.3-1.5 2.7-4.8 3-9 .7zm3.6-7.3c-3.4-1.8-5.9-1.8-6.8-.2-1 1.8.7 3.8 4 5.6 3.2 1.7 5.8 2.1 6.8.2.9-1.5-.4-3.6-4-5.6z"/></g></g><g id="XMLID_364_"><g id="XMLID_365_"><path id="XMLID_366_" class="st1" d="M518.5 429.1c-4.4-2.6-5.8-5.7-4.1-8.5 1.5-2.5 4.9-2.8 9.1-.3 4.3 2.6 5.6 5.8 4 8.4-1.6 2.7-4.9 2.8-9 .4zm3.9-7.1c-3.3-2-5.8-2.1-6.8-.5-1.1 1.8.5 3.9 3.8 5.8 3.2 1.9 5.7 2.3 6.8.5.9-1.5-.3-3.7-3.8-5.8z"/></g></g><g id="XMLID_360_"><g id="XMLID_361_"><path id="XMLID_362_" class="st1" d="M519.5 437.5l.3-3 1.5.5-.3 3.7-.9 1.4-12.5-8.2 1.1-1.6 10.8 7.2z"/></g></g><g id="XMLID_355_"><g id="XMLID_356_"><path id="XMLID_357_" class="st1" d="M505 448.9c-4.1-3-5.3-6.1-3.4-8.8 1.7-2.4 5.1-2.4 9.1.5 4.1 2.9 5.1 6.3 3.3 8.8-1.8 2.4-5.1 2.2-9-.5zm4.6-6.8c-3.2-2.3-5.6-2.6-6.7-1.1-1.2 1.7.2 3.9 3.3 6.1 3 2.1 5.5 2.8 6.7 1.1 1-1.4 0-3.7-3.3-6.1z"/></g></g><g id="XMLID_351_"><g id="XMLID_352_"><path id="XMLID_353_" class="st1" d="M505.3 457.3l.5-2.9 1.5.6-.6 3.6-1.1 1.4-11.7-9.2 1.2-1.5 10.2 8z"/></g></g><g id="XMLID_346_"><g id="XMLID_347_"><path id="XMLID_348_" class="st1" d="M489.9 467.4c-3.9-3.3-4.8-6.6-2.6-9.1 1.9-2.2 5.3-1.9 9 1.3 3.8 3.3 4.5 6.7 2.5 9s-5.3 1.9-8.9-1.2zm5.1-6.3c-2.9-2.5-5.4-3.1-6.6-1.7-1.3 1.6-.2 3.9 2.7 6.4 2.8 2.4 5.2 3.3 6.6 1.7 1.2-1.4.4-3.8-2.7-6.4z"/></g></g><g id="XMLID_342_"><g id="XMLID_343_"><path id="XMLID_344_" class="st1" d="M489.5 475.8l.8-2.9 1.4.8-1 3.6-1.2 1.3-10.9-10.2 1.3-1.4 9.6 8.8z"/></g></g><g id="XMLID_337_"><g id="XMLID_338_"><path id="XMLID_339_" class="st1" d="M473.2 484.5c-3.6-3.6-4.2-7-1.8-9.3 2.1-2 5.4-1.5 8.9 2 3.5 3.6 3.9 7.1 1.7 9.2-2.2 2.3-5.5 1.5-8.8-1.9zm5.6-5.8c-2.7-2.8-5.1-3.5-6.4-2.2-1.5 1.4-.5 3.9 2.2 6.6 2.6 2.6 4.9 3.7 6.4 2.2 1.3-1.2.7-3.7-2.2-6.6z"/></g></g><g id="XMLID_332_"><g id="XMLID_333_"><path id="XMLID_334_" class="st1" d="M464.3 492.6c-3.4-3.8-3.9-7.1-1.4-9.3 2.2-2 5.5-1.2 8.8 2.4 3.3 3.7 3.6 7.2 1.3 9.3-2.3 2-5.5 1.1-8.7-2.4zm5.9-5.6c-2.6-2.9-5-3.7-6.3-2.5-1.5 1.4-.7 3.8 1.9 6.7 2.5 2.7 4.8 3.9 6.3 2.5 1.3-1.2.8-3.7-1.9-6.7z"/></g></g><g id="XMLID_327_"><g id="XMLID_328_"><path id="XMLID_329_" class="st1" d="M455.1 500.2c-3.2-3.9-3.6-7.3-1-9.4 2.3-1.9 5.5-1 8.7 2.8 3.2 3.9 3.3 7.4.9 9.3-2.4 2-5.6 1-8.6-2.7zm6.1-5.3c-2.5-3-4.8-3.9-6.2-2.8-1.6 1.3-.8 3.8 1.6 6.8 2.3 2.8 4.6 4.1 6.2 2.8 1.4-1.2 1-3.7-1.6-6.8z"/></g></g><g id="XMLID_323_"><g id="XMLID_324_"><path id="XMLID_325_" class="st1" d="M453.3 508.4l1.3-2.7 1.2 1-1.6 3.4-1.4 1-9-11.9 1.6-1.2 7.9 10.4z"/></g></g><g id="XMLID_319_"><g id="XMLID_320_"><path id="XMLID_321_" class="st1" d="M443.4 515.6l1.4-2.7 1.2 1-1.7 3.3-1.4 1-8.5-12.3 1.6-1.1 7.4 10.8z"/></g></g><g id="XMLID_314_"><g id="XMLID_315_"><path id="XMLID_316_" class="st1" d="M425.6 520.6c-2.7-4.3-2.6-7.7.2-9.4 2.5-1.5 5.6-.3 8.3 3.9 2.7 4.3 2.3 7.7-.3 9.3-2.7 1.7-5.7.3-8.2-3.8zm6.8-4.5c-2.1-3.3-4.2-4.5-5.8-3.6-1.8 1.1-1.3 3.7.7 6.9 2 3.1 4 4.7 5.8 3.6 1.5-.9 1.4-3.4-.7-6.9z"/></g></g><g id="XMLID_309_"><g id="XMLID_310_"><path id="XMLID_311_" class="st1" d="M415.2 526.5c-2.5-4.4-2.2-7.8.6-9.4 2.5-1.4 5.6 0 8.1 4.2 2.5 4.4 2 7.8-.7 9.3-2.7 1.6-5.6.1-8-4.1zm7-4.2c-1.9-3.4-4-4.7-5.6-3.8-1.8 1-1.5 3.6.4 6.9 1.8 3.2 3.8 4.8 5.6 3.8 1.5-.8 1.6-3.3-.4-6.9z"/></g></g><g id="XMLID_304_"><g id="XMLID_305_"><path id="XMLID_306_" class="st1" d="M404.6 532c-2.3-4.5-1.9-7.9 1-9.4 2.6-1.3 5.6.2 7.9 4.6 2.3 4.5 1.6 7.9-1.1 9.3-2.8 1.4-5.7-.2-7.8-4.5zm7.1-3.9c-1.8-3.5-3.8-4.9-5.5-4-1.8.9-1.6 3.5.1 6.9 1.7 3.3 3.6 5 5.5 4 1.6-.7 1.8-3.2-.1-6.9z"/></g></g><g id="XMLID_299_"><g id="XMLID_300_"><path id="XMLID_301_" class="st1" d="M393.7 537c-2.1-4.6-1.6-8 1.5-9.3 2.7-1.2 5.6.5 7.7 4.9 2.1 4.6 1.3 8-1.5 9.2-2.9 1.4-5.7-.4-7.7-4.8zm7.3-3.6c-1.6-3.5-3.6-5-5.3-4.3-1.9.9-1.8 3.5-.2 6.9 1.5 3.3 3.4 5.2 5.3 4.3 1.6-.6 1.9-3.1.2-6.9z"/></g></g><g id="XMLID_294_"><g id="XMLID_295_"><path id="XMLID_296_" class="st1" d="M382.6 541.6c-1.9-4.7-1.2-8 1.9-9.3 2.7-1.1 5.6.7 7.5 5.3 1.9 4.6.9 8-1.9 9.2-3 1.1-5.7-.8-7.5-5.2zm7.5-3.3c-1.5-3.6-3.4-5.2-5.1-4.5-1.9.8-1.9 3.4-.5 6.9 1.4 3.4 3.2 5.3 5.1 4.5 1.6-.6 2-3.1.5-6.9z"/></g></g><g id="XMLID_290_"><g id="XMLID_291_"><path id="XMLID_292_" class="st1" d="M378.4 548.9l2-2.2.9 1.3-2.5 2.7-1.6.6-5-14.1 1.8-.7 4.4 12.4z"/></g></g><g id="XMLID_285_"><g id="XMLID_286_"><path id="XMLID_287_" class="st1" d="M359.9 549.2c-1.5-4.9-.5-8.1 2.7-9.1 2.8-.9 5.5 1.2 7 5.9 1.5 4.8.2 8.1-2.7 9-3 .9-5.6-1.3-7-5.8zm7.7-2.6c-1.1-3.7-2.9-5.5-4.7-4.9-2 .6-2.2 3.2-1.1 6.9 1.1 3.5 2.7 5.5 4.7 4.9 1.7-.6 2.3-3 1.1-6.9z"/></g></g><g id="XMLID_280_"><g id="XMLID_281_"><path id="XMLID_282_" class="st1" d="M348.4 552.2c-1.3-4.9-.2-8.1 3-8.9 2.8-.7 5.4 1.4 6.7 6.2 1.3 4.9-.1 8.1-3.1 8.8-3 .8-5.4-1.5-6.6-6.1zm7.8-2.3c-1-3.8-2.7-5.6-4.5-5.1-2 .5-2.4 3.1-1.4 6.8.9 3.6 2.4 5.7 4.5 5.1 1.7-.4 2.4-2.8 1.4-6.8z"/></g></g><g id="XMLID_276_"><g id="XMLID_277_"><path id="XMLID_278_" class="st1" d="M343.2 558.9l2.3-1.9.7 1.4-2.8 2.4-1.7.4-3.1-14.6 1.9-.4 2.7 12.7z"/></g></g><g id="XMLID_271_"><g id="XMLID_272_"><path id="XMLID_273_" class="st1" d="M324.9 556.8c-.8-5 .6-8.1 3.8-8.6 2.9-.5 5.3 1.9 6.1 6.8.8 4.9-.8 8-3.8 8.5-3.1.4-5.3-2-6.1-6.7zm8-1.6c-.6-3.8-2.2-5.8-4-5.5-2 .3-2.6 2.9-2 6.7.6 3.6 1.9 5.9 4 5.5 1.7-.4 2.6-2.7 2-6.7z"/></g></g><g id="XMLID_267_"><g id="XMLID_268_"><path id="XMLID_269_" class="st1" d="M319.2 563l2.5-1.7.6 1.5-3 2.1-1.7.2-1.8-14.8 1.9-.2 1.5 12.9z"/></g></g><g id="XMLID_262_"><g id="XMLID_263_"><path id="XMLID_264_" class="st1" d="M301.1 559.3c-.4-5.1 1.2-8 4.5-8.3 2.9-.2 5.1 2.3 5.5 7.3.4 5-1.5 7.9-4.6 8.2-3 .2-5-2.5-5.4-7.2zm8-.9c-.3-3.9-1.7-6-3.5-5.8-2.1.2-2.9 2.7-2.5 6.5.3 3.7 1.4 6 3.5 5.8 1.8-.2 2.9-2.4 2.5-6.5z"/></g></g><g id="XMLID_258_"><g id="XMLID_259_"><path id="XMLID_260_" class="st1" d="M294.9 565l2.6-1.5.4 1.5-3.2 1.9-1.7.1-.6-14.9 2-.1.5 13z"/></g></g><g id="XMLID_253_"><g id="XMLID_254_"><path id="XMLID_255_" class="st1" d="M277.1 559.7c.1-5.1 2-7.9 5.3-7.8 2.9 0 4.9 2.8 4.8 7.8-.1 5-2.3 7.7-5.3 7.7-3.1-.1-4.8-2.9-4.8-7.7zm8.2-.1c.1-3.9-1.1-6.1-2.9-6.1-2.1 0-3.1 2.4-3.2 6.2-.1 3.7.8 6.1 2.9 6.1 1.8 0 3.1-2.1 3.2-6.2z"/></g></g><g id="XMLID_249_"><g id="XMLID_250_"><path id="XMLID_251_" class="st1" d="M270.5 564.9l2.7-1.3.3 1.6-3.3 1.6-1.7-.1.7-14.9 2 .1-.7 13z"/></g></g><g id="XMLID_244_"><g id="XMLID_245_"><path id="XMLID_246_" class="st1" d="M253.3 558.2c.5-5.1 2.6-7.7 5.9-7.4 2.9.3 4.6 3.2 4.2 8.1-.5 5-2.9 7.5-5.9 7.3-3.1-.3-4.6-3.3-4.2-8zm8.1.5c.4-3.9-.6-6.2-2.5-6.3-2.1-.2-3.3 2.1-3.6 5.9-.3 3.7.4 6.2 2.5 6.3 1.8.2 3.2-1.9 3.6-5.9z"/></g></g><g id="XMLID_239_"><g id="XMLID_240_"><path id="XMLID_241_" class="st1" d="M241.4 556.6c.7-5 2.9-7.6 6.2-7.1 2.9.4 4.5 3.4 3.9 8.3-.7 5-3.2 7.4-6.2 7-3.1-.4-4.5-3.5-3.9-8.2zm8.1.9c.5-3.9-.4-6.2-2.2-6.4-2.1-.3-3.4 2-3.9 5.8-.5 3.6.1 6.2 2.2 6.4 1.8.2 3.4-1.8 3.9-5.8z"/></g></g><g id="XMLID_234_"><g id="XMLID_235_"><path id="XMLID_236_" class="st1" d="M229.7 554.5c.9-5 3.2-7.4 6.5-6.8 2.9.5 4.3 3.6 3.5 8.4-.9 4.9-3.5 7.3-6.5 6.7-3.1-.5-4.4-3.6-3.5-8.3zm8 1.2c.7-3.8-.1-6.2-1.9-6.5-2-.4-3.4 1.8-4.1 5.6-.6 3.6-.1 6.2 1.9 6.5 1.7.4 3.4-1.5 4.1-5.6z"/></g></g><g id="XMLID_230_"><g id="XMLID_231_"><path id="XMLID_232_" class="st1" d="M222.2 558.5l2.9-.8v1.6l-3.6 1-1.7-.4 3.3-14.6 1.9.4-2.8 12.8z"/></g></g><g id="XMLID_226_"><g id="XMLID_227_"><path id="XMLID_228_" class="st1" d="M210.3 555.6l2.9-.7v1.6l-3.6.8-1.7-.5 3.9-14.4 1.9.5-3.4 12.7z"/></g></g><g id="XMLID_222_"><g id="XMLID_223_"><path id="XMLID_224_" class="st1" d="M198.6 552.1l2.9-.5-.1 1.6-3.6.7-1.6-.5 4.5-14.2 1.9.6-4 12.3z"/></g></g><g id="XMLID_218_"><g id="XMLID_219_"><path id="XMLID_220_" class="st1" d="M187.1 548.2l3-.4-.2 1.6-3.7.5-1.6-.6 5.2-14 1.8.7-4.5 12.2z"/></g></g><g id="XMLID_213_"><g id="XMLID_214_"><path id="XMLID_215_" class="st1" d="M172.7 536.6c2-4.7 4.8-6.6 7.8-5.3 2.7 1.1 3.5 4.4 1.6 9s-5 6.3-7.8 5.2c-2.9-1.2-3.5-4.5-1.6-8.9zm7.6 2.9c1.5-3.6 1.2-6.1-.5-6.8-1.9-.8-3.8 1-5.2 4.6-1.4 3.4-1.5 6 .5 6.8 1.6.7 3.6-.8 5.2-4.6z"/></g></g><g id="XMLID_208_"><g id="XMLID_209_"><path id="XMLID_210_" class="st1" d="M161.8 531.6c2.2-4.6 5.1-6.3 8.1-4.9 2.6 1.2 3.3 4.6 1.2 9.1-2.1 4.5-5.3 6.1-8 4.8-2.9-1.4-3.3-4.7-1.3-9zm7.5 3.2c1.7-3.5 1.5-6-.2-6.8-1.9-.9-3.8.9-5.4 4.3-1.6 3.3-1.7 5.9.2 6.8 1.6.8 3.7-.6 5.4-4.3z"/></g></g><g id="XMLID_203_"><g id="XMLID_204_"><path id="XMLID_205_" class="st1" d="M151.2 526c2.4-4.5 5.3-6.1 8.3-4.6 2.6 1.4 3.1 4.7.8 9.1-2.3 4.4-5.5 5.9-8.2 4.5-2.8-1.4-3.1-4.8-.9-9zm7.3 3.6c1.8-3.4 1.8-6 .1-6.8-1.8-1-3.8.7-5.6 4.1-1.7 3.3-2 5.8-.1 6.8 1.6.8 3.7-.5 5.6-4.1z"/></g></g><g id="XMLID_198_"><g id="XMLID_199_"><path id="XMLID_200_" class="st1" d="M140.9 520.1c2.6-4.4 5.6-5.9 8.5-4.2 2.5 1.5 2.9 4.8.4 9.1s-5.8 5.6-8.4 4.1c-2.8-1.6-2.9-4.9-.5-9zm7.1 3.8c2-3.4 2-5.9.4-6.8-1.8-1-3.9.6-5.8 3.9-1.8 3.2-2.2 5.7-.4 6.8 1.5.9 3.7-.3 5.8-3.9z"/></g></g><g id="XMLID_194_"><g id="XMLID_195_"><path id="XMLID_196_" class="st1" d="M132.5 521.2l3 .2-.5 1.6-3.7-.3-1.5-.9 8.1-12.6 1.6 1.1-7 10.9z"/></g></g><g id="XMLID_190_"><g id="XMLID_191_"><path id="XMLID_192_" class="st1" d="M122.3 514.4l3 .4-.6 1.5-3.7-.4-1.4-1 8.6-12.2 1.6 1.1-7.5 10.6z"/></g></g><g id="XMLID_186_"><g id="XMLID_187_"><path id="XMLID_188_" class="st1" d="M112.5 507.2l3 .5-.6 1.5-3.7-.6-1.4-1.1 9.1-11.9 1.5 1.2-7.9 10.4z"/></g></g><g id="XMLID_181_"><g id="XMLID_182_"><path id="XMLID_183_" class="st1" d="M102.2 491.9c3.3-3.9 6.5-4.8 9.1-2.7 2.2 1.9 2 5.2-1.2 9.1-3.2 3.8-6.7 4.6-9 2.6-2.3-2.1-1.9-5.4 1.1-9zm6.4 5c2.5-3 3-5.4 1.6-6.6-1.6-1.3-3.9-.1-6.4 2.8-2.4 2.8-3.2 5.3-1.6 6.6 1.4 1.2 3.8.3 6.4-2.8z"/></g></g><g id="XMLID_176_"><g id="XMLID_177_"><path id="XMLID_178_" class="st1" d="M93.4 483.8c3.4-3.7 6.7-4.5 9.2-2.3 2.2 2 1.8 5.3-1.5 9-3.4 3.7-6.8 4.3-9.1 2.2-2.4-2.1-1.8-5.4 1.4-8.9zm6.1 5.3c2.6-2.9 3.2-5.3 1.9-6.5-1.5-1.4-3.9-.3-6.5 2.5-2.5 2.7-3.4 5.1-1.9 6.5 1.4 1.3 3.8.5 6.5-2.5z"/></g></g><g id="XMLID_171_"><g id="XMLID_172_"><path id="XMLID_173_" class="st1" d="M84.9 475.4c3.6-3.6 6.9-4.2 9.3-1.9 2.1 2.1 1.5 5.4-1.9 8.9-3.5 3.5-7 4-9.2 1.8-2.3-2.2-1.6-5.5 1.8-8.8zm5.9 5.5c2.7-2.7 3.5-5.2 2.2-6.5-1.5-1.5-3.9-.5-6.6 2.2-2.6 2.6-3.6 5-2.2 6.5 1.3 1.3 3.7.7 6.6-2.2z"/></g></g><g id="XMLID_166_"><g id="XMLID_167_"><path id="XMLID_168_" class="st1" d="M76.8 466.6c3.7-3.4 7.1-3.9 9.3-1.5 2 2.2 1.3 5.5-2.3 8.8-3.7 3.4-7.2 3.7-9.2 1.4-2.2-2.3-1.3-5.5 2.2-8.7zm5.7 5.8c2.9-2.6 3.7-5 2.4-6.4-1.4-1.5-3.8-.6-6.7 2-2.7 2.5-3.9 4.8-2.4 6.4 1.2 1.3 3.7.8 6.7-2z"/></g></g><g id="XMLID_162_"><g id="XMLID_163_"><path id="XMLID_164_" class="st1" d="M68.5 465.2l2.8 1.1-.9 1.3-3.4-1.4-1.1-1.3 11.4-9.6 1.3 1.5-10.1 8.4z"/></g></g><g id="XMLID_158_"><g id="XMLID_159_"><path id="XMLID_160_" class="st1" d="M60.8 455.7l2.7 1.2-1 1.3-3.4-1.5-1.1-1.4 11.8-9.1 1.2 1.5-10.2 8z"/></g></g><g id="XMLID_153_"><g id="XMLID_154_"><path id="XMLID_155_" class="st1" d="M54.8 438.3c4.2-2.9 7.5-3 9.4-.3 1.7 2.4.6 5.6-3.4 8.5-4.1 2.9-7.6 2.7-9.4.2-1.8-2.6-.5-5.7 3.4-8.4zm4.9 6.5c3.2-2.2 4.3-4.5 3.2-6-1.2-1.7-3.7-1.1-6.9 1.1-3 2.1-4.4 4.3-3.2 6 1 1.4 3.5 1.2 6.9-1.1z"/></g></g><g id="XMLID_149_"><g id="XMLID_150_"><path id="XMLID_151_" class="st1" d="M46.7 435.8l2.6 1.5-1.1 1.2-3.2-1.8-.9-1.5 12.6-8.1 1.1 1.6-11.1 7.1z"/></g></g><g id="XMLID_144_"><g id="XMLID_145_"><path id="XMLID_146_" class="st1" d="M42.3 417.9c4.4-2.6 7.8-2.3 9.4.5 1.5 2.5.1 5.6-4.2 8.1s-7.8 2-9.3-.6c-1.6-2.7-.1-5.6 4.1-8zm4.2 6.9c3.4-2 4.7-4.1 3.7-5.7-1-1.8-3.6-1.4-6.9.5-3.2 1.9-4.8 3.9-3.7 5.7.9 1.5 3.4 1.5 6.9-.5z"/></g></g><g id="XMLID_140_"><g id="XMLID_141_"><path id="XMLID_142_" class="st1" d="M34.4 414.7l2.5 1.7-1.2 1.1-3.1-2.1-.8-1.5L45 407l.9 1.7-11.5 6z"/></g></g><g id="XMLID_135_"><g id="XMLID_136_"><path id="XMLID_137_" class="st1" d="M31.5 396.5c4.6-2.2 7.9-1.7 9.4 1.3 1.2 2.6-.4 5.6-4.8 7.7-4.5 2.1-8 1.4-9.2-1.4-1.5-2.8.3-5.6 4.6-7.6zm3.7 7.2c3.5-1.7 5-3.7 4.2-5.3-.9-1.9-3.5-1.7-6.9-.1-3.3 1.6-5.1 3.4-4.2 5.3.7 1.6 3.2 1.8 6.9.1z"/></g></g><g id="XMLID_131_"><g id="XMLID_132_"><path id="XMLID_133_" class="st1" d="M24 392.7l2.3 1.9-1.3 1-2.9-2.3-.7-1.6 13.8-5.8.8 1.8-12 5z"/></g></g><g id="XMLID_126_"><g id="XMLID_127_"><path id="XMLID_128_" class="st1" d="M22.7 374.2c4.8-1.8 8.1-1 9.2 2.2 1 2.7-.9 5.5-5.5 7.3-4.7 1.7-8 .7-9.1-2.2-1.1-3 .9-5.6 5.4-7.3zm3 7.6c3.6-1.3 5.3-3.2 4.7-5-.7-1.9-3.3-2-6.9-.7-3.5 1.3-5.4 3-4.7 5 .6 1.6 3.1 2.1 6.9.7z"/></g></g><g id="XMLID_121_"><g id="XMLID_122_"><path id="XMLID_123_" class="st1" d="M19 362.9c4.8-1.5 8.1-.6 9.1 2.6.9 2.8-1.1 5.5-5.8 7-4.8 1.5-8.1.3-9-2.6-.9-3 1.2-5.6 5.7-7zm2.7 7.6c3.7-1.2 5.4-3 4.9-4.7-.6-2-3.2-2.2-6.9-1-3.5 1.1-5.5 2.8-4.9 4.7.6 1.7 3 2.3 6.9 1z"/></g></g><g id="XMLID_116_"><g id="XMLID_117_"><path id="XMLID_118_" class="st1" d="M15.9 351.3c4.9-1.3 8.1-.2 9 3 .8 2.8-1.4 5.4-6.1 6.8-4.8 1.3-8.1 0-8.9-3-.9-3.1 1.4-5.5 6-6.8zm2.3 7.8c3.8-1 5.6-2.8 5.1-4.5-.5-2-3.1-2.3-6.8-1.3-3.6 1-5.6 2.5-5.1 4.5.5 1.7 2.9 2.4 6.8 1.3z"/></g></g><g id="XMLID_111_"><g id="XMLID_112_"><path id="XMLID_113_" class="st1" d="M13.2 339.6c5-1.1 8.1.1 8.8 3.3.6 2.8-1.6 5.4-6.4 6.5-4.9 1.1-8.1-.4-8.7-3.4-.7-2.9 1.7-5.3 6.3-6.4zm2 7.9c3.8-.9 5.7-2.5 5.3-4.3-.5-2-3-2.5-6.8-1.6-3.6.8-5.7 2.3-5.3 4.3.4 1.7 2.8 2.5 6.8 1.6z"/></g></g><g id="XMLID_107_"><g id="XMLID_108_"><path id="XMLID_109_" class="st1" d="M6.7 334.3l1.8 2.4-1.4.7-2.3-2.9-.3-1.7 14.7-2.6.3 1.9-12.8 2.2z"/></g></g><g id="XMLID_103_"><g id="XMLID_104_"><path id="XMLID_105_" class="st1" d="M4.8 322.2l1.7 2.4-1.5.7-2.2-3-.2-1.7 14.8-2 .3 1.9-12.9 1.7z"/></g></g><g id="XMLID_99_"><g id="XMLID_100_"><path id="XMLID_101_" class="st1" d="M3.4 310.1l1.6 2.5-1.5.5-2-3.1-.2-1.7 14.9-1.4.2 1.9-13 1.3z"/></g></g><g id="XMLID_94_"><g id="XMLID_95_"><path id="XMLID_96_" class="st1" d="M7.6 292.2c5.1-.2 8 1.5 8.1 4.8.1 2.9-2.5 5-7.4 5.3-5 .2-7.9-1.8-8-4.8-.1-3.2 2.6-5.1 7.3-5.3zm.7 8.1c3.9-.2 6-1.5 5.9-3.3-.1-2.1-2.6-2.9-6.4-2.8-3.7.2-6 1.2-5.9 3.3.1 1.8 2.3 3 6.4 2.8z"/></g></g><g id="XMLID_89_"><g id="XMLID_90_"><path id="XMLID_91_" class="st1" d="M7.5 280.3c5.1-.1 7.9 1.8 8 5.1 0 2.9-2.7 4.9-7.6 5.1-5 .1-7.8-2-7.9-5.1 0-3.2 2.7-5.1 7.5-5.1zm.3 8.1c3.9-.1 6.1-1.3 6-3.1 0-2.1-2.5-3-6.3-3-3.7.1-6.1 1-6 3.1.1 1.8 2.3 3 6.3 3z"/></g></g><g id="XMLID_84_"><g id="XMLID_85_"><path id="XMLID_86_" class="st1" d="M7.9 268.3c5.1.2 7.8 2.2 7.7 5.5-.1 2.9-2.9 4.8-7.9 4.7-5-.2-7.7-2.4-7.6-5.5.2-3.2 3.1-4.9 7.8-4.7zm0 8.1c3.9.1 6.1-1 6.2-2.8.1-2.1-2.3-3.1-6.1-3.3-3.7-.1-6.1.7-6.2 2.8-.1 1.8 2 3.1 6.1 3.3z"/></g></g><g id="XMLID_80_"><g id="XMLID_81_"><path id="XMLID_82_" class="st1" d="M3 261.4l1.2 2.7-1.6.3-1.5-3.4.1-1.7 14.9 1.2-.2 1.9-12.9-1z"/></g></g><g id="XMLID_75_"><g id="XMLID_76_"><path id="XMLID_77_" class="st1" d="M10.3 244.4c5 .6 7.6 2.8 7.2 6.1-.4 2.9-3.3 4.5-8.2 4-5-.6-7.5-3.1-7.1-6.1.4-3.1 3.4-4.6 8.1-4zm-.8 8.1c3.9.5 6.2-.4 6.4-2.3.3-2.1-2-3.3-5.8-3.8-3.7-.5-6.2.2-6.4 2.3-.2 1.8 1.8 3.3 5.8 3.8z"/></g></g><g id="XMLID_71_"><g id="XMLID_72_"><path id="XMLID_73_" class="st1" d="M6 237.2l.9 2.8-1.6.1-1.2-3.5.3-1.7 14.7 2.5-.3 1.9L6 237.2z"/></g></g><g id="XMLID_66_"><g id="XMLID_67_"><path id="XMLID_68_" class="st1" d="M14.7 220.9c5 1.1 7.3 3.5 6.6 6.7-.6 2.9-3.7 4.2-8.5 3.2-4.9-1-7.2-3.7-6.5-6.7.6-3 3.7-4.2 8.4-3.2zm-1.5 8c3.8.8 6.2.1 6.6-1.7.4-2-1.7-3.5-5.5-4.3-3.6-.8-6.2-.3-6.6 1.7-.3 1.7 1.5 3.4 5.5 4.3z"/></g></g><g id="XMLID_62_"><g id="XMLID_63_"><path id="XMLID_64_" class="st1" d="M11 213.3l.7 2.9h-1.6l-.9-3.6.4-1.7 14.5 3.7-.5 1.9-12.6-3.2z"/></g></g><g id="XMLID_57_"><g id="XMLID_58_"><path id="XMLID_59_" class="st1" d="M21.1 197.9c4.9 1.5 7 4.1 6 7.3-.9 2.8-4 3.9-8.8 2.5-4.8-1.5-6.8-4.3-5.9-7.2.9-3.1 4.1-4 8.7-2.6zm-2.2 7.8c3.7 1.1 6.2.6 6.7-1.1.6-2-1.4-3.6-5.1-4.7-3.5-1.1-6.1-.9-6.7 1.1-.4 1.6 1.3 3.5 5.1 4.7z"/></g></g><g id="XMLID_53_"><g id="XMLID_54_"><path id="XMLID_55_" class="st1" d="M18.1 190l.4 3-1.6-.1-.6-3.7.6-1.6 14.1 5-.7 1.8-12.2-4.4z"/></g></g><g id="XMLID_48_"><g id="XMLID_49_"><path id="XMLID_50_" class="st1" d="M29.5 175.5c4.7 1.9 6.6 4.7 5.4 7.8-1.1 2.7-4.4 3.5-9 1.7-4.6-1.9-6.4-4.9-5.3-7.7 1.2-3 4.5-3.6 8.9-1.8zm-2.8 7.6c3.6 1.5 6.1 1.2 6.8-.5.8-1.9-1.1-3.7-4.6-5.2-3.4-1.4-6-1.4-6.8.5-.7 1.6.8 3.6 4.6 5.2z"/></g></g><g id="XMLID_43_"><g id="XMLID_44_"><path id="XMLID_45_" class="st1" d="M34.5 164.5c4.6 2.1 6.4 5 5 8-1.2 2.7-4.5 3.3-9 1.3-4.6-2.1-6.2-5.2-4.9-8 1.2-2.8 4.5-3.2 8.9-1.3zm-3.2 7.5c3.5 1.6 6 1.4 6.8-.2.9-1.9-.9-3.8-4.4-5.4-3.3-1.5-5.9-1.7-6.8.2-.7 1.7.7 3.7 4.4 5.4z"/></g></g><g id="XMLID_38_"><g id="XMLID_39_"><path id="XMLID_40_" class="st1" d="M39.9 153.9c4.5 2.3 6.2 5.3 4.7 8.2-1.3 2.6-4.7 3.1-9.1.9-4.5-2.3-5.9-5.5-4.6-8.2 1.4-2.8 4.7-3.1 9-.9zm-3.5 7.3c3.5 1.8 6 1.7 6.8.1.9-1.8-.8-3.8-4.2-5.6-3.3-1.7-5.9-1.9-6.8-.1-.8 1.6.5 3.8 4.2 5.6z"/></g></g><g id="XMLID_33_"><g id="XMLID_34_"><path id="XMLID_35_" class="st1" d="M45.7 143.4c4.4 2.5 5.9 5.5 4.3 8.4-1.4 2.5-4.8 2.9-9.1.5-4.4-2.5-5.7-5.7-4.2-8.4 1.5-2.6 4.9-2.8 9-.5zm-3.8 7.2c3.4 1.9 5.9 2 6.8.4 1-1.8-.6-3.9-3.9-5.7-3.2-1.8-5.8-2.2-6.8-.4-.9 1.5.4 3.7 3.9 5.7z"/></g></g><g id="XMLID_28_"><g id="XMLID_29_"><path id="XMLID_30_" class="st1" d="M52 133.3c4.3 2.7 5.7 5.8 3.9 8.6-1.5 2.5-4.9 2.7-9.1.1-4.3-2.7-5.4-6-3.8-8.5 1.7-2.7 5-2.8 9-.2zm-4.1 7c3.3 2.1 5.8 2.2 6.8.7 1.1-1.8-.4-3.9-3.7-5.9-3.1-2-5.7-2.4-6.8-.7-.9 1.5.3 3.7 3.7 5.9z"/></g></g></g></g></svg>