<svg id="Слой_1" xmlns="http://www.w3.org/2000/svg" viewBox="0 0 661.8 661.8"><style>.st0{opacity:.4}.st1{fill:#23e5e0}.st2{opacity:.2}.st3{opacity:.6}.st4{opacity:.8}.st5,.st6{fill:#23e5e0;stroke:#01ffff;stroke-width:17;stroke-miterlimit:10}.st6{stroke-width:6}.st7{fill:#fff}</style><g class="st0"><path class="st1" d="M115.3 160.8c4.1 3.1 5.2 6.3 3.2 8.9-1.8 2.3-5.1 2.3-9.1-.7s-4.9-6.4-3.1-8.8c1.9-2.5 5.2-2.3 9 .6zm-4.7 6.6c3.1 2.3 5.6 2.7 6.7 1.2 1.2-1.7-.1-3.9-3.1-6.2-2.9-2.2-5.4-2.9-6.7-1.2-1.1 1.5-.2 3.8 3.1 6.2zm12.2-15.8c3.9 3.2 4.9 6.5 2.8 9-1.9 2.3-5.2 2-9.1-1.1-3.9-3.2-4.6-6.6-2.7-9 2.1-2.4 5.4-2 9 1.1zm-4.9 6.4c3 2.5 5.5 3 6.6 1.5 1.3-1.6.1-3.9-2.9-6.3-2.8-2.3-5.3-3.1-6.6-1.5-1.1 1.3-.3 3.7 2.9 6.3zm5.2-14.9l-.7 2.9-1.4-.7.9-3.6 1.2-1.3 11.1 10-1.3 1.5-9.8-8.8zm8.3-8.9l-.8 2.9-1.4-.8 1-3.6 1.2-1.2 10.7 10.5-1.4 1.4-9.3-9.2zm16.5-8.3c3.5 3.7 4 7 1.6 9.3-2.1 2-5.4 1.4-8.9-2.2-3.4-3.7-3.7-7.2-1.5-9.2 2.3-2.2 5.5-1.4 8.8 2.1zm-5.8 5.7c2.7 2.8 5 3.6 6.4 2.4 1.5-1.4.6-3.9-2-6.6-2.5-2.7-4.9-3.8-6.4-2.4-1.3 1.1-.8 3.6 2 6.6zm14.8-13.6c3.3 3.9 3.7 7.2 1.2 9.4-2.2 1.9-5.5 1.1-8.8-2.6-3.3-3.8-3.4-7.3-1.1-9.3 2.4-2.1 5.6-1.1 8.7 2.5zm-6 5.5c2.5 3 4.9 3.8 6.3 2.6 1.6-1.3.7-3.8-1.7-6.7-2.4-2.8-4.7-4-6.3-2.6-1.4 1.1-.9 3.6 1.7 6.7zm15.4-12.9c3.1 4 3.4 7.4.8 9.4-2.3 1.8-5.5.9-8.6-3-3.1-3.9-3.1-7.4-.7-9.3 2.4-2 5.6-.9 8.5 2.9zm-6.2 5.2c2.4 3.1 4.7 4.1 6.2 2.9 1.6-1.3.9-3.8-1.4-6.8-2.3-2.9-4.5-4.2-6.2-2.9-1.5 1.1-1.1 3.6 1.4 6.8zm15.9-12.2c3 4.1 3.1 7.5.4 9.4-2.4 1.7-5.6.6-8.5-3.4-2.9-4.1-2.8-7.6-.3-9.3 2.5-1.8 5.6-.6 8.4 3.3zm-6.5 4.9c2.3 3.2 4.5 4.3 6 3.2 1.7-1.2 1.1-3.7-1.2-6.8-2.1-3-4.3-4.4-6-3.2-1.4 1-1.1 3.5 1.2 6.8zm8.9-13l-1.4 2.6-1.2-1.1 1.8-3.3 1.4-.9 8.2 12.5-1.6 1.1-7.2-10.9zm10.3-6.5l-1.6 2.6-1.1-1.1 1.9-3.2 1.5-.9 7.6 12.8-1.7 1-6.6-11.2zm10.6-6l-1.7 2.5-1.1-1.2 2-3.1 1.5-.8 7.1 13.2-1.7.9-6.1-11.5zm18.2-3.1c2.2 4.6 1.7 7.9-1.3 9.4-2.6 1.3-5.6-.3-7.8-4.8s-1.4-7.9 1.3-9.3c2.9-1.3 5.8.4 7.8 4.7zm-7.2 3.7c1.7 3.5 3.7 5 5.4 4.2 1.9-.9 1.7-3.5 0-6.9-1.6-3.3-3.5-5.1-5.4-4.2-1.5.8-1.8 3.3 0 6.9zm18.2-8.5c2 4.7 1.4 8-1.7 9.3-2.7 1.2-5.6-.6-7.6-5.1-2-4.6-1.1-8 1.7-9.2 2.9-1.2 5.7.6 7.6 5zm-7.4 3.4c1.5 3.6 3.5 5.1 5.2 4.4 1.9-.8 1.9-3.4.3-6.9-1.5-3.4-3.3-5.2-5.2-4.4-1.6.7-1.9 3.2-.3 6.9zm18.6-7.7c1.8 4.8 1 8-2.1 9.2-2.7 1-5.6-.8-7.3-5.4-1.8-4.7-.7-8 2.1-9.1 2.9-1.1 5.6.9 7.3 5.3zm-7.5 3.1c1.4 3.6 3.3 5.3 5 4.6 1.9-.7 2-3.3.6-6.9-1.3-3.4-3-5.4-5-4.6-1.7.7-2.1 3.1-.6 6.9zM251 67c1.6 4.8.7 8.1-2.5 9.1-2.8.9-5.5-1.1-7.1-5.7-1.6-4.8-.4-8.1 2.5-9 3-1 5.6 1.1 7.1 5.6zm-7.6 2.8c1.2 3.7 3 5.4 4.8 4.8 2-.6 2.1-3.3.9-6.9-1.2-3.5-2.8-5.5-4.8-4.8-1.6.6-2.2 3-.9 6.9zm12.3-9.8l-2.2 2.1-.8-1.4 2.7-2.6 1.7-.5 4.1 14.4-1.9.5-3.6-12.5zm11.8-3l-2.3 2-.7-1.4 2.8-2.5 1.7-.4 3.4 14.5-1.9.4-3-12.6zm18.4 1.7c1 5-.4 8.1-3.6 8.7-2.9.5-5.3-1.8-6.3-6.6-.9-4.9.7-8 3.7-8.6 3-.6 5.3 1.8 6.2 6.5zm-7.9 1.7c.7 3.8 2.3 5.8 4.1 5.4 2-.4 2.6-2.9 1.8-6.7-.7-3.6-2.1-5.8-4.1-5.4-1.7.4-2.6 2.7-1.8 6.7zm13.5-8l-2.4 1.8-.6-1.5 3-2.2 1.7-.2 2.2 14.8-1.9.3-2-13zm18.2 3.3c.5 5.1-1.1 8-4.4 8.4-2.9.3-5.2-2.2-5.7-7.1-.5-5 1.4-8 4.4-8.3 3.1-.4 5.2 2.2 5.7 7zm-8.1 1c.4 3.9 1.8 5.9 3.6 5.8 2.1-.2 2.8-2.7 2.4-6.5-.4-3.7-1.6-6-3.6-5.8-1.8.2-2.8 2.5-2.4 6.5zm14.1-6.9l-2.6 1.6-.5-1.5 3.2-1.9 1.7-.1.9 14.9-2 .1-.7-13.1zm17.8 4.9c.1 5.1-1.8 7.9-5.1 8-2.9 0-4.9-2.7-5.1-7.6-.1-5 2-7.8 5.1-7.9 3.2 0 5.1 2.8 5.1 7.5zm-8.1.4c.1 3.9 1.3 6.1 3.1 6 2.1 0 3-2.5 3-6.3-.1-3.7-1-6.1-3.1-6-1.8 0-3 2.2-3 6.3zm14.7-5.7l-2.7 1.3-.3-1.6 3.3-1.7h1.7l-.4 14.9-2-.1.4-12.8zm17.4 6.4c-.4 5.1-2.4 7.7-5.7 7.5-2.9-.2-4.7-3.1-4.4-8 .3-5 2.7-7.6 5.7-7.4 3.1.2 4.7 3.1 4.4 7.9zm-8.2-.3c-.3 3.9.8 6.2 2.6 6.3 2.1.1 3.2-2.2 3.5-6 .3-3.7-.5-6.1-2.6-6.3-1.7-.2-3.2 1.9-3.5 6zm20.1 1.6c-.6 5.1-2.8 7.6-6.1 7.3-2.9-.3-4.6-3.3-4-8.2.6-5 3-7.5 6-7.1 3.1.3 4.6 3.3 4.1 8zm-8.1-.7c-.4 3.9.5 6.2 2.3 6.4 2.1.2 3.3-2.1 3.7-5.8.4-3.7-.2-6.2-2.3-6.4-1.8-.2-3.3 1.8-3.7 5.8zm19.9 2.5c-.8 5-3.1 7.5-6.4 7-2.9-.5-4.4-3.5-3.7-8.4.8-5 3.3-7.3 6.3-6.9 3.2.6 4.5 3.6 3.8 8.3zm-8.1-1c-.6 3.8.2 6.2 2.1 6.5 2 .3 3.4-1.9 4-5.7.6-3.6 0-6.2-2.1-6.5-1.8-.3-3.4 1.7-4 5.7zm19.8 3.4c-1 5-3.4 7.4-6.7 6.7-2.9-.6-4.3-3.7-3.3-8.5 1-4.9 3.7-7.2 6.6-6.6 3.2.6 4.4 3.7 3.4 8.4zm-8-1.4c-.8 3.8 0 6.2 1.8 6.6 2 .4 3.5-1.8 4.2-5.5.7-3.6.3-6.2-1.8-6.6-1.7-.4-3.4 1.5-4.2 5.5zm15.6-2.4l-2.9.7v-1.6l3.6-.9 1.7.4-3.6 14.5-1.9-.5 3.1-12.6zm11.7 3.2l-2.9.6.1-1.6 3.6-.8 1.7.5-4.2 14.3-1.9-.6 3.6-12.4zm11.7 3.7l-3 .5.1-1.6 3.7-.6 1.6.6-4.9 14.1-1.8-.6 4.3-12.4zm14.6 11.2c-1.9 4.7-4.6 6.7-7.7 5.4-2.7-1.1-3.6-4.3-1.8-9s4.9-6.4 7.7-5.3c2.9 1.2 3.5 4.5 1.8 8.9zm-7.6-2.7c-1.4 3.6-1.1 6.1.6 6.8 1.9.8 3.7-1.1 5.1-4.7 1.3-3.4 1.4-6-.6-6.8-1.7-.7-3.6.9-5.1 4.7zm18.6 7.5c-2.1 4.6-4.9 6.4-8 5.1-2.7-1.2-3.4-4.5-1.4-9 2-4.6 5.1-6.2 7.9-5 2.9 1.3 3.4 4.6 1.5 8.9zm-7.6-3c-1.6 3.6-1.4 6.1.3 6.8 1.9.8 3.8-1 5.3-4.5 1.5-3.4 1.6-6-.3-6.8-1.5-.7-3.6.7-5.3 4.5zm18.3 8.3c-2.3 4.6-5.2 6.2-8.2 4.8-2.6-1.3-3.2-4.6-1-9.1s5.4-6 8.1-4.6c2.9 1.4 3.2 4.7 1.1 8.9zm-7.4-3.4c-1.7 3.5-1.6 6 0 6.8 1.9.9 3.8-.8 5.5-4.2 1.6-3.3 1.9-5.9 0-6.8-1.5-.8-3.7.6-5.5 4.2zm15.7 1.8l-3-.1.4-1.5h3.7l1.5.8-7.2 13.1-1.7-.9 6.3-11.4zm12.4 13.6c-2.7 4.3-5.7 5.7-8.5 4-2.5-1.5-2.8-4.9-.2-9.1 2.6-4.3 5.9-5.5 8.5-3.9 2.6 1.6 2.7 4.9.2 9zm-7-4c-2 3.3-2.2 5.8-.6 6.8 1.8 1.1 3.9-.5 5.9-3.7 1.9-3.1 2.4-5.7.6-6.8-1.6-1-3.8.2-5.9 3.7zm15.4 3l-3-.3.5-1.5 3.7.4 1.4 1-8.3 12.4-1.6-1.1 7.3-10.9zm11.2 14.7c-3 4.1-6.2 5.2-8.9 3.3-2.4-1.7-2.3-5.1.6-9.1 3-4 6.4-5 8.8-3.2 2.6 1.8 2.4 5.2-.5 9zm-6.6-4.6c-2.3 3.1-2.7 5.6-1.2 6.7 1.7 1.2 3.9-.1 6.2-3.2 2.2-3 2.9-5.5 1.2-6.7-1.5-1.1-3.8-.1-6.2 3.2zm15.1 4.4l-2.9-.6.7-1.4 3.6.7 1.3 1.1-9.4 11.6-1.5-1.2 8.2-10.2zm9.9 15.5c-3.4 3.8-6.6 4.7-9.1 2.5-2.2-1.9-1.9-5.3 1.4-9 3.3-3.8 6.8-4.4 9-2.4 2.3 2.1 1.8 5.4-1.3 8.9zm-6.3-5.2c-2.6 2.9-3.1 5.4-1.7 6.6 1.6 1.4 3.9.2 6.4-2.7 2.4-2.8 3.3-5.2 1.7-6.6-1.3-1.1-3.7-.3-6.4 2.7zm14.7 5.7l-2.9-.8.8-1.4 3.6 1 1.2 1.2-10.3 10.8-1.4-1.4 9-9.4zm8.6 16.4c-3.7 3.5-7 4.1-9.3 1.7-2-2.1-1.4-5.4 2.1-8.9 3.6-3.5 7.1-3.8 9.2-1.6 2.2 2.3 1.4 5.5-2 8.8zm-5.8-5.7c-2.8 2.7-3.6 5.1-2.3 6.4 1.4 1.5 3.9.5 6.6-2.1 2.7-2.5 3.8-4.9 2.3-6.4-1.2-1.3-3.7-.7-6.6 2.1zm13.7 14.7c-3.8 3.4-7.2 3.8-9.4 1.3-1.9-2.2-1.2-5.5 2.5-8.8 3.8-3.3 7.3-3.5 9.3-1.2 2.1 2.3 1.2 5.5-2.4 8.7zm-5.5-6c-2.9 2.6-3.8 4.9-2.6 6.3 1.4 1.6 3.8.7 6.7-1.8 2.8-2.4 4-4.7 2.6-6.3-1.2-1.3-3.7-.9-6.7 1.8zm13 15.3c-4 3.2-7.3 3.5-9.4.9-1.8-2.3-.9-5.5 2.9-8.7 3.9-3.1 7.4-3.2 9.3-.8 2 2.4.9 5.6-2.8 8.6zm-5.3-6.2c-3 2.4-4 4.8-2.8 6.2 1.3 1.6 3.8.9 6.8-1.5 2.9-2.3 4.2-4.6 2.8-6.2-1.1-1.4-3.6-1.1-6.8 1.5zm12.4 15.8c-4.1 3-7.5 3.2-9.4.5-1.7-2.4-.7-5.6 3.3-8.5 4-3 7.5-2.9 9.3-.4 1.9 2.5.7 5.6-3.2 8.4zm-5-6.4c-3.1 2.3-4.2 4.6-3.1 6.1 1.2 1.7 3.8 1 6.8-1.2s4.3-4.4 3.1-6.1c-1-1.5-3.5-1.2-6.8 1.2zm11.7 16.3c-4.2 2.8-7.6 2.8-9.4.1-1.6-2.4-.5-5.6 3.6-8.4 4.2-2.8 7.7-2.5 9.4 0 1.7 2.6.4 5.6-3.6 8.3zm-4.7-6.6c-3.2 2.2-4.4 4.4-3.4 5.9 1.2 1.7 3.7 1.2 6.9-.9 3.1-2.1 4.5-4.2 3.4-5.9-1-1.5-3.5-1.4-6.9.9zm11 16.8c-4.3 2.6-7.7 2.5-9.4-.3-1.5-2.5-.2-5.6 4-8.2 4.3-2.6 7.8-2.2 9.3.4 1.6 2.6.2 5.6-3.9 8.1zm-4.4-6.8c-3.3 2-4.6 4.2-3.6 5.8 1.1 1.8 3.7 1.4 6.9-.6 3.1-1.9 4.7-4 3.6-5.8-.9-1.6-3.5-1.6-6.9.6zm10.2 17.3c-4.5 2.5-7.8 2.2-9.4-.7-1.4-2.6 0-5.6 4.3-8 4.4-2.4 7.9-1.9 9.3.8 1.6 2.6 0 5.5-4.2 7.9zm-4.1-7c-3.4 1.9-4.8 4-3.9 5.6 1 1.8 3.6 1.5 6.9-.3 3.2-1.8 4.9-3.8 3.9-5.6-.8-1.6-3.3-1.7-6.9.3zm9.5 17.6c-4.6 2.3-7.9 1.8-9.4-1.1-1.3-2.6.3-5.6 4.7-7.8 4.5-2.2 7.9-1.5 9.3 1.2 1.4 2.8-.4 5.6-4.6 7.7zm-3.8-7.1c-3.5 1.7-4.9 3.8-4.1 5.4.9 1.9 3.5 1.7 6.9 0 3.3-1.6 5-3.6 4.1-5.4-.8-1.6-3.3-1.8-6.9 0zm8.7 18.1c-4.6 2.1-8 1.5-9.3-1.6-1.2-2.7.5-5.6 5-7.6 4.6-2 8-1.2 9.2 1.6 1.3 2.9-.6 5.6-4.9 7.6zm-3.5-7.4c-3.6 1.6-5.1 3.6-4.3 5.2.8 1.9 3.4 1.8 6.9.3 3.4-1.5 5.2-3.3 4.3-5.2-.7-1.6-3.2-1.9-6.9-.3zm7.9 18.5c-4.7 1.9-8 1.1-9.2-2-1.1-2.7.8-5.6 5.3-7.4 4.7-1.8 8-.8 9.1 2 1.2 3-.8 5.7-5.2 7.4zm-3.2-7.5c-3.6 1.4-5.2 3.3-4.6 5.1.8 1.9 3.4 2 6.9.6 3.4-1.3 5.3-3.1 4.6-5.1-.6-1.7-3.1-2.1-6.9-.6zm7.1 18.8c-4.8 1.6-8.1.8-9.1-2.4-.9-2.8 1-5.5 5.7-7.2 4.7-1.6 8.1-.5 9 2.4 1 3-1.1 5.6-5.6 7.2zm-2.9-7.6c-3.7 1.3-5.4 3.1-4.8 4.8.7 2 3.3 2.1 6.9.9 3.5-1.2 5.5-2.9 4.8-4.8-.5-1.7-3-2.2-6.9-.9zm6.3 19.1c-4.9 1.4-8.1.4-9-2.8-.8-2.8 1.2-5.5 6-6.9 4.8-1.4 8.1-.1 8.9 2.8.9 3-1.3 5.5-5.9 6.9zm-2.5-7.7c-3.7 1.1-5.5 2.9-5 4.6.6 2 3.2 2.3 6.8 1.2 3.5-1 5.6-2.6 5-4.6-.5-1.8-2.9-2.4-6.8-1.2zm5.4 19.3c-4.9 1.2-8.1.1-8.9-3.2-.7-2.8 1.5-5.4 6.3-6.6 4.9-1.2 8.1.2 8.8 3.2.7 3-1.6 5.4-6.2 6.6zm-2.1-7.8c-3.8.9-5.6 2.6-5.2 4.4.5 2 3.1 2.4 6.8 1.5 3.6-.9 5.7-2.4 5.2-4.4-.5-1.8-2.9-2.5-6.8-1.5zm4.5 19.5c-5 1-8.1-.3-8.8-3.5-.6-2.9 1.7-5.3 6.5-6.4 4.9-1 8 .6 8.6 3.6.8 3-1.6 5.4-6.3 6.3zm-1.8-7.9c-3.8.8-5.7 2.4-5.4 4.2.4 2 3 2.5 6.7 1.8 3.6-.7 5.8-2.1 5.4-4.2-.3-1.8-2.7-2.6-6.7-1.8zm3.7 19.7c-5 .8-8.1-.6-8.6-3.9-.5-2.9 1.9-5.3 6.8-6.1 5-.8 8 .9 8.5 3.9.5 3.2-2 5.4-6.7 6.1zm-1.4-8c-3.8.6-5.8 2.1-5.5 3.9.3 2 2.9 2.6 6.6 2.1 3.6-.6 5.9-1.9 5.5-3.9-.3-1.8-2.6-2.7-6.6-2.1zm2.8 19.9c-5.1.6-8.1-1-8.4-4.3-.3-2.9 2.2-5.2 7.1-5.8 5-.6 8 1.3 8.3 4.3.3 3.2-2.3 5.3-7 5.8zm-1.1-8c-3.9.4-5.9 1.9-5.7 3.7.2 2.1 2.7 2.8 6.5 2.3 3.7-.4 6-1.6 5.7-3.7-.2-1.8-2.5-2.8-6.5-2.3zm2 19.9c-5.1.4-8-1.3-8.2-4.6-.2-2.9 2.4-5.1 7.3-5.5 5-.3 7.9 1.6 8.1 4.7.2 3.1-2.5 5.1-7.2 5.4zm-.8-8c-3.9.3-6 1.6-5.9 3.5.1 2.1 2.6 2.9 6.4 2.6 3.7-.3 6-1.4 5.9-3.4-.1-1.9-2.3-3-6.4-2.7zm6.4 14.3l-1.5-2.6 1.5-.4 1.8 3.2v1.7l-14.9.4-.1-2 13.2-.3zm.1 12.2l-1.4-2.7 1.5-.4 1.7 3.3v1.7l-14.9-.2v-2l13.1.3zm-6.2 17.4c-5.1-.3-7.8-2.3-7.6-5.7.2-2.9 3-4.7 8-4.5 5 .3 7.6 2.6 7.5 5.6-.2 3.3-3.1 4.9-7.9 4.6zm.3-8.1c-3.9-.2-6.2.8-6.3 2.7-.1 2.1 2.2 3.2 6 3.4 3.7.2 6.1-.6 6.3-2.7.1-1.8-2-3.2-6-3.4zm-1.4 20c-5.1-.5-7.7-2.7-7.3-6 .3-2.9 3.2-4.6 8.1-4.1 5 .5 7.5 2.9 7.2 6-.3 3.1-3.3 4.6-8 4.1zm.5-8.1c-3.9-.4-6.2.6-6.4 2.4-.2 2.1 2.1 3.3 5.9 3.7 3.7.4 6.2-.3 6.4-2.4.2-1.8-1.8-3.3-5.9-3.7zm-2.2 19.9c-5-.7-7.5-3-7.1-6.3.4-2.9 3.4-4.5 8.3-3.8 5 .7 7.4 3.3 6.9 6.3-.4 3.2-3.4 4.5-8.1 3.8zm.9-8c-3.8-.6-6.2.3-6.5 2.1-.3 2 1.9 3.4 5.7 3.9 3.6.5 6.2-.1 6.5-2.1.3-1.7-1.7-3.3-5.7-3.9zm-3.1 19.8c-5-1-7.4-3.3-6.8-6.6.5-2.9 3.6-4.3 8.5-3.4 4.9.9 7.2 3.6 6.7 6.6-.7 3.1-3.8 4.3-8.4 3.4zm1.3-8c-3.8-.7-6.2 0-6.6 1.8-.4 2 1.8 3.5 5.6 4.2 3.6.7 6.2.2 6.6-1.8.2-1.8-1.6-3.4-5.6-4.2zm2.5 15.5l-.8-2.9h1.6l.9 3.6-.4 1.7-14.5-3.4.4-1.9 12.8 2.9zm-9.8 15.7c-4.9-1.4-7.1-4-6.2-7.1.8-2.8 4-4 8.7-2.7 4.8 1.4 6.9 4.2 6.1 7.1-.8 3-4 4-8.6 2.7zm2-7.9c-3.7-1.1-6.2-.5-6.7 1.3-.6 2 1.5 3.6 5.2 4.6 3.5 1 6.1.8 6.7-1.3.5-1.7-1.3-3.5-5.2-4.6zm-5.7 19.3c-4.8-1.6-6.9-4.3-5.9-7.4.9-2.8 4.1-3.8 8.8-2.3 4.8 1.6 6.7 4.5 5.7 7.4-.9 2.9-4.1 3.8-8.6 2.3zm2.3-7.8c-3.7-1.2-6.2-.8-6.7 1-.6 2 1.3 3.7 5 4.9 3.5 1.2 6.1 1 6.7-1 .5-1.7-1.1-3.6-5-4.9zm-6.5 19c-4.8-1.8-6.7-4.6-5.5-7.7 1-2.7 4.3-3.6 8.9-1.9 4.7 1.8 6.5 4.8 5.4 7.6-1.1 3-4.4 3.7-8.8 2zm2.7-7.7c-3.6-1.4-6.1-1-6.8.7-.7 1.9 1.2 3.7 4.7 5.1 3.4 1.3 6 1.3 6.8-.7.6-1.7-.9-3.7-4.7-5.1zm-7.4 18.7c-4.7-2-6.5-4.9-5.2-7.9 1.2-2.7 4.5-3.4 9-1.5 4.6 2 6.3 5.1 5.1 7.8-1.2 2.9-4.5 3.4-8.9 1.6zm3-7.6c-3.6-1.5-6.1-1.3-6.8.4-.8 1.9 1 3.8 4.5 5.3 3.4 1.5 6 1.5 6.8-.4.7-1.6-.8-3.7-4.5-5.3zm-.9 15.7l-.1-3 1.6.3.2 3.7-.8 1.6-13.5-6.5.9-1.8 11.7 5.7zM573.8 466c-4.5-2.4-6.1-5.4-4.5-8.3 1.4-2.6 4.7-3 9.1-.7 4.4 2.4 5.8 5.6 4.4 8.3-1.5 2.7-4.8 3-9 .7zm3.6-7.2c-3.4-1.8-5.9-1.8-6.8-.2-1 1.8.7 3.8 4 5.6 3.2 1.7 5.8 2.1 6.8.2.9-1.5-.4-3.7-4-5.6zm-9.7 17.5c-4.4-2.6-5.8-5.7-4.1-8.5 1.5-2.5 4.9-2.8 9.1-.3 4.3 2.6 5.6 5.8 4 8.4-1.6 2.8-4.9 2.9-9 .4zm3.9-7.1c-3.3-2-5.8-2.1-6.8-.5-1.1 1.8.5 3.9 3.8 5.8 3.2 1.9 5.7 2.3 6.8.5.9-1.5-.3-3.7-3.8-5.8zm-2.9 15.5l.3-3 1.5.5-.3 3.7-.9 1.4-12.5-8.2 1.1-1.6 10.8 7.2zm-14.5 11.4c-4.1-3-5.3-6.1-3.4-8.8 1.7-2.4 5.1-2.4 9.1.5 4.1 2.9 5.1 6.3 3.3 8.8-1.8 2.5-5.1 2.3-9-.5zm4.6-6.7c-3.2-2.3-5.6-2.6-6.7-1.1-1.2 1.7.2 3.9 3.3 6.1 3 2.1 5.5 2.8 6.7 1.1 1-1.5 0-3.8-3.3-6.1zm-4.3 15.1l.5-2.9 1.5.6-.6 3.6-1.1 1.4-11.7-9.2 1.2-1.5 10.2 8zm-15.4 10.1c-3.9-3.3-4.8-6.6-2.6-9.1 1.9-2.2 5.3-1.9 9 1.3 3.8 3.3 4.5 6.7 2.5 9-2 2.4-5.3 1.9-8.9-1.2zm5.1-6.3c-2.9-2.5-5.4-3.1-6.6-1.7-1.3 1.6-.2 3.9 2.7 6.4 2.8 2.4 5.2 3.3 6.6 1.7 1.2-1.4.4-3.8-2.7-6.4zm-5.5 14.7l.8-2.9 1.4.8-1 3.6-1.2 1.3-10.9-10.2 1.3-1.4 9.6 8.8zm-16.3 8.8c-3.6-3.6-4.2-7-1.8-9.3 2.1-2 5.4-1.5 8.9 2 3.5 3.6 3.9 7.1 1.7 9.2-2.2 2.2-5.5 1.5-8.8-1.9zm5.6-5.9c-2.7-2.8-5.1-3.5-6.4-2.2-1.5 1.4-.5 3.9 2.2 6.6 2.6 2.6 4.9 3.7 6.4 2.2 1.3-1.2.7-3.7-2.2-6.6zm-14.5 13.9c-3.4-3.8-3.9-7.1-1.4-9.3 2.2-2 5.5-1.2 8.8 2.4 3.3 3.7 3.6 7.2 1.3 9.3-2.3 2-5.5 1.1-8.7-2.4zm5.9-5.6c-2.6-2.9-5-3.7-6.3-2.5-1.5 1.4-.7 3.8 1.9 6.7 2.5 2.7 4.8 3.9 6.3 2.5 1.3-1.2.8-3.7-1.9-6.7zm-15.1 13.2c-3.2-3.9-3.6-7.3-1-9.4 2.3-1.9 5.5-1 8.7 2.8 3.2 3.9 3.3 7.4.9 9.3-2.4 2-5.6 1-8.6-2.7zm6.1-5.3c-2.5-3-4.8-3.9-6.2-2.8-1.6 1.3-.8 3.8 1.6 6.8 2.3 2.8 4.6 4.1 6.2 2.8 1.4-1.2 1-3.7-1.6-6.8zm-7.9 13.6l1.3-2.7 1.2 1-1.6 3.4-1.4 1-9-11.9 1.6-1.2 7.9 10.4zm-9.9 7.1l1.4-2.7 1.2 1-1.7 3.3-1.4 1-8.5-12.3 1.6-1.1 7.4 10.8zm-17.8 5c-2.7-4.3-2.6-7.7.2-9.4 2.5-1.5 5.6-.3 8.3 3.9 2.7 4.3 2.3 7.7-.3 9.3-2.7 1.7-5.7.3-8.2-3.8zm6.8-4.5c-2.1-3.3-4.2-4.5-5.8-3.6-1.8 1.1-1.3 3.7.7 6.9 2 3.1 4 4.7 5.8 3.6 1.5-.9 1.4-3.4-.7-6.9zm-17.2 10.5c-2.5-4.4-2.2-7.8.6-9.4 2.5-1.4 5.6 0 8.1 4.2 2.5 4.4 2 7.8-.7 9.3-2.7 1.6-5.6 0-8-4.1zm7-4.2c-1.9-3.4-4-4.7-5.6-3.8-1.8 1-1.5 3.6.4 6.9 1.8 3.2 3.8 4.8 5.6 3.8 1.5-.9 1.6-3.4-.4-6.9zm-17.6 9.7c-2.3-4.5-1.9-7.9 1-9.4 2.6-1.3 5.6.2 7.9 4.6 2.3 4.5 1.6 7.9-1.1 9.3-2.8 1.4-5.7-.3-7.8-4.5zm7.1-3.9c-1.8-3.5-3.8-4.9-5.5-4-1.8.9-1.6 3.5.1 6.9 1.7 3.3 3.6 5 5.5 4 1.6-.8 1.8-3.3-.1-6.9zm-18 8.9c-2.1-4.6-1.6-8 1.5-9.3 2.7-1.2 5.6.5 7.7 4.9 2.1 4.6 1.3 8-1.5 9.2-2.9 1.3-5.7-.5-7.7-4.8zm7.3-3.6c-1.6-3.5-3.6-5-5.3-4.3-1.9.9-1.8 3.5-.2 6.9 1.5 3.3 3.4 5.2 5.3 4.3 1.6-.7 1.9-3.2.2-6.9zm-18.4 8.1c-1.9-4.7-1.2-8 1.9-9.3 2.7-1.1 5.6.7 7.5 5.3 1.9 4.6.9 8-1.9 9.2-3 1.1-5.7-.8-7.5-5.2zm7.5-3.3c-1.5-3.6-3.4-5.2-5.1-4.5-1.9.8-1.9 3.4-.5 6.9 1.4 3.4 3.2 5.3 5.1 4.5 1.6-.6 2-3.1.5-6.9zm-11.7 10.6l2-2.2.9 1.3-2.5 2.8-1.6.6-5-14.1 1.8-.7 4.4 12.3zm-18.5.3c-1.5-4.9-.5-8.1 2.7-9.1 2.8-.9 5.5 1.2 7 5.9 1.5 4.8.2 8.1-2.7 9-3 .9-5.6-1.3-7-5.8zm7.7-2.6c-1.1-3.7-2.9-5.5-4.7-4.9-2 .6-2.2 3.2-1.1 6.9 1.1 3.5 2.7 5.5 4.7 4.9 1.7-.6 2.3-3 1.1-6.9zm-19.2 5.6c-1.3-4.9-.2-8.1 3-8.9 2.8-.7 5.4 1.4 6.7 6.2 1.3 4.9-.1 8.1-3.1 8.8-3 .8-5.4-1.5-6.6-6.1zm7.8-2.2c-1-3.8-2.7-5.6-4.5-5.1-2 .5-2.4 3.1-1.4 6.8.9 3.6 2.4 5.7 4.5 5.1 1.7-.5 2.4-2.9 1.4-6.8zm-13 8.9l2.3-1.9.7 1.4-2.8 2.4-1.7.4-3.1-14.6 1.9-.4 2.7 12.7zm-18.3-2.1c-.8-5 .6-8.1 3.8-8.6 2.9-.5 5.3 1.9 6.1 6.8.8 4.9-.8 8-3.8 8.5-3.1.5-5.3-2-6.1-6.7zm8-1.6c-.6-3.8-2.2-5.8-4-5.5-2 .3-2.6 2.9-2 6.7.6 3.6 1.9 5.9 4 5.5 1.7-.3 2.6-2.7 2-6.7zm-13.7 7.8l2.5-1.7.6 1.5-3 2.1-1.7.2-1.8-14.8 1.9-.2 1.5 12.9zm-18.1-3.7c-.4-5.1 1.2-8 4.5-8.3 2.9-.2 5.1 2.3 5.5 7.3.4 5-1.5 7.9-4.6 8.2-3 .2-5-2.4-5.4-7.2zm8-.9c-.3-3.9-1.7-6-3.5-5.8-2.1.2-2.9 2.7-2.5 6.5.3 3.7 1.4 6 3.5 5.8 1.8-.2 2.9-2.4 2.5-6.5zm-14.2 6.6l2.6-1.5.4 1.5-3.2 1.9-1.7.1-.6-14.9 2-.1.5 13zm-17.8-5.3c.1-5.1 2-7.9 5.3-7.8 2.9 0 4.9 2.8 4.8 7.8-.1 5-2.3 7.7-5.3 7.7-3.1-.1-4.8-2.9-4.8-7.7zm8.2-.1c.1-3.9-1.1-6.1-2.9-6.1-2.1 0-3.1 2.4-3.2 6.2-.1 3.7.8 6.1 2.9 6.1 1.8 0 3.1-2.1 3.2-6.2zm-14.8 5.3l2.7-1.3.3 1.6-3.3 1.6-1.7-.1.7-14.9 2 .1-.7 13zm-17.2-6.7c.5-5.1 2.6-7.7 5.9-7.4 2.9.3 4.6 3.2 4.2 8.1-.5 5-2.9 7.5-5.9 7.3-3.1-.3-4.6-3.3-4.2-8zm8.1.5c.4-3.9-.6-6.2-2.5-6.3-2.1-.2-3.3 2.1-3.6 5.9-.3 3.7.4 6.2 2.5 6.3 1.8.2 3.2-1.8 3.6-5.9zm-20-2.1c.7-5 2.9-7.6 6.2-7.1 2.9.4 4.5 3.4 3.9 8.3-.7 5-3.2 7.4-6.2 7-3.1-.4-4.5-3.4-3.9-8.2zm8.1.9c.5-3.9-.4-6.2-2.2-6.4-2.1-.3-3.4 2-3.9 5.8-.5 3.6.1 6.2 2.2 6.4 1.8.2 3.4-1.8 3.9-5.8zm-19.8-2.9c.9-5 3.2-7.4 6.5-6.8 2.9.5 4.3 3.6 3.5 8.4-.9 4.9-3.5 7.3-6.5 6.7-3.1-.6-4.4-3.6-3.5-8.3zm8 1.2c.7-3.8-.1-6.2-1.9-6.5-2-.4-3.4 1.8-4.1 5.6-.6 3.6-.1 6.2 1.9 6.5 1.7.3 3.4-1.6 4.1-5.6zm-15.5 2.7l2.9-.8v1.6l-3.6 1-1.7-.4 3.3-14.6 1.9.4-2.8 12.8zm-11.9-2.9l2.9-.7v1.6l-3.6.8-1.7-.5 3.9-14.4 1.9.5-3.4 12.7zm-11.7-3.5l2.9-.5-.1 1.6-3.6.7-1.6-.5 4.5-14.2 1.9.6-4 12.3zm-11.5-3.9l3-.4-.2 1.6-3.7.5-1.6-.6 5.2-14 1.8.7-4.5 12.2zm-14.4-11.6c2-4.7 4.8-6.6 7.8-5.3 2.7 1.1 3.5 4.4 1.6 9s-5 6.3-7.8 5.2c-2.9-1.2-3.5-4.5-1.6-8.9zm7.6 3c1.5-3.6 1.2-6.1-.5-6.8-1.9-.8-3.8 1-5.2 4.6-1.4 3.4-1.5 6 .5 6.8 1.6.6 3.6-.9 5.2-4.6zm-18.5-8c2.2-4.6 5.1-6.3 8.1-4.9 2.6 1.2 3.3 4.6 1.2 9.1-2.1 4.5-5.3 6.1-8 4.8-2.9-1.4-3.3-4.7-1.3-9zm7.5 3.2c1.7-3.5 1.5-6-.2-6.8-1.9-.9-3.8.9-5.4 4.3-1.6 3.3-1.7 5.9.2 6.8 1.6.8 3.7-.6 5.4-4.3zm-18.1-8.7c2.4-4.5 5.3-6.1 8.3-4.6 2.6 1.4 3.1 4.7.8 9.1-2.3 4.4-5.5 5.9-8.2 4.5-2.8-1.5-3.1-4.8-.9-9zm7.3 3.5c1.8-3.4 1.8-6 .1-6.8-1.8-1-3.8.7-5.6 4.1-1.7 3.3-2 5.8-.1 6.8 1.6.8 3.7-.5 5.6-4.1zm-17.6-9.5c2.6-4.4 5.6-5.9 8.5-4.2 2.5 1.5 2.9 4.8.4 9.1s-5.8 5.6-8.4 4.1c-2.8-1.6-2.9-4.9-.5-9zm7.1 3.9c2-3.4 2-5.9.4-6.8-1.8-1-3.9.6-5.8 3.9-1.8 3.2-2.2 5.7-.4 6.8 1.5.8 3.7-.4 5.8-3.9zm-15.5-2.8l3 .2-.5 1.5-3.7-.3-1.5-.8 8.1-12.6 1.6 1.1-7 10.9zm-10.2-6.8l3 .4-.6 1.5-3.7-.4-1.4-1 8.6-12.2 1.6 1.1-7.5 10.6zm-9.8-7.2l3 .5-.6 1.5-3.7-.6-1.4-1.1 9.1-11.9 1.5 1.2-7.9 10.4zm-10.3-15.3c3.3-3.9 6.5-4.8 9.1-2.7 2.2 1.9 2 5.2-1.2 9.1-3.2 3.8-6.7 4.6-9 2.6-2.4-2.1-1.9-5.4 1.1-9zm6.4 5c2.5-3 3-5.4 1.6-6.6-1.6-1.3-3.9-.1-6.4 2.8-2.4 2.8-3.2 5.3-1.6 6.6 1.4 1.2 3.8.4 6.4-2.8zM142.6 531c3.4-3.7 6.7-4.5 9.2-2.3 2.2 2 1.8 5.3-1.5 9-3.4 3.7-6.8 4.3-9.1 2.2-2.4-2.1-1.8-5.4 1.4-8.9zm6.1 5.4c2.6-2.9 3.2-5.3 1.9-6.5-1.5-1.4-3.9-.3-6.5 2.5-2.5 2.7-3.4 5.1-1.9 6.5 1.4 1.2 3.8.5 6.5-2.5zm-14.6-13.8c3.6-3.6 6.9-4.2 9.3-1.9 2.1 2.1 1.5 5.4-1.9 8.9-3.5 3.5-7 4-9.2 1.8-2.3-2.2-1.6-5.4 1.8-8.8zm5.9 5.6c2.7-2.7 3.5-5.2 2.2-6.5-1.5-1.5-3.9-.5-6.6 2.2-2.6 2.6-3.6 5-2.2 6.5 1.3 1.3 3.7.7 6.6-2.2zm-14-14.4c3.7-3.4 7.1-3.9 9.3-1.5 2 2.2 1.3 5.5-2.3 8.8-3.7 3.4-7.2 3.7-9.2 1.4-2.2-2.2-1.3-5.5 2.2-8.7zm5.7 5.8c2.9-2.6 3.7-5 2.4-6.4-1.4-1.5-3.8-.6-6.7 2-2.7 2.5-3.9 4.8-2.4 6.4 1.2 1.3 3.7.8 6.7-2zm-14-7.2l2.8 1.1-.9 1.3-3.4-1.4-1.1-1.3 11.4-9.6 1.3 1.5-10.1 8.4zm-7.7-9.5l2.7 1.2-1 1.3-3.4-1.5-1.1-1.4 11.8-9.1 1.2 1.5-10.2 8zm-6-17.4c4.2-2.9 7.5-3 9.4-.3 1.7 2.4.6 5.6-3.4 8.5-4.1 2.9-7.6 2.7-9.4.2-1.8-2.6-.5-5.7 3.4-8.4zm4.9 6.5c3.2-2.2 4.3-4.5 3.2-6-1.2-1.7-3.7-1.1-6.9 1.1-3 2.1-4.4 4.3-3.2 6 1 1.4 3.5 1.2 6.9-1.1zm-13-9l2.6 1.5-1.1 1.2-3.2-1.8-.9-1.5 12.6-8.1 1.1 1.6-11.1 7.1zm-4.4-17.9c4.4-2.6 7.8-2.3 9.4.5 1.5 2.5.1 5.6-4.2 8.1s-7.8 2-9.3-.6c-1.6-2.6-.1-5.6 4.1-8zm4.2 6.9c3.4-2 4.7-4.1 3.7-5.7-1-1.8-3.6-1.4-6.9.5-3.2 1.9-4.8 3.9-3.7 5.7.9 1.5 3.4 1.5 6.9-.5zm-12.1-10.1l2.5 1.7-1.2 1.1-3.1-2.1-.8-1.5 13.2-6.9.9 1.7-11.5 6zm-2.9-18.2c4.6-2.2 7.9-1.7 9.4 1.3 1.2 2.6-.4 5.6-4.8 7.7-4.5 2.1-8 1.4-9.2-1.4-1.5-2.8.3-5.6 4.6-7.6zm3.7 7.2c3.5-1.7 5-3.7 4.2-5.3-.9-1.9-3.5-1.7-6.9-.1-3.3 1.6-5.1 3.4-4.2 5.3.7 1.6 3.2 1.9 6.9.1zm-11.2-11l2.3 1.9-1.3 1-2.9-2.3-.7-1.6 13.8-5.8.8 1.8-12 5zm-1.3-18.4c4.8-1.8 8.1-1 9.2 2.2 1 2.7-.9 5.5-5.5 7.3-4.7 1.7-8 .7-9.1-2.2-1.1-3.1.9-5.7 5.4-7.3zm3 7.5c3.6-1.3 5.3-3.2 4.7-5-.7-1.9-3.3-2-6.9-.7-3.5 1.3-5.4 3-4.7 5 .6 1.6 3.1 2.1 6.9.7zm-6.7-18.9c4.8-1.5 8.1-.6 9.1 2.6.9 2.8-1.1 5.5-5.8 7-4.8 1.5-8.1.3-9-2.6-.9-3 1.2-5.6 5.7-7zm2.7 7.6c3.7-1.2 5.4-3 4.9-4.7-.6-2-3.2-2.2-6.9-1-3.5 1.1-5.5 2.8-4.9 4.7.6 1.7 3 2.3 6.9 1zm-5.8-19.2c4.9-1.3 8.1-.2 9 3 .8 2.8-1.4 5.4-6.1 6.8-4.8 1.3-8.1 0-8.9-3-.9-3 1.4-5.5 6-6.8zm2.3 7.8c3.8-1 5.6-2.8 5.1-4.5-.5-2-3.1-2.3-6.8-1.3-3.6 1-5.6 2.5-5.1 4.5.5 1.7 2.9 2.4 6.8 1.3zm-5-19.4c5-1.1 8.1.1 8.8 3.3.6 2.8-1.6 5.4-6.4 6.5-4.9 1.1-8.1-.4-8.7-3.4-.7-3 1.7-5.4 6.3-6.4zm2 7.8c3.8-.9 5.7-2.5 5.3-4.3-.5-2-3-2.5-6.8-1.6-3.6.8-5.7 2.3-5.3 4.3.4 1.8 2.8 2.5 6.8 1.6zm-8.5-13.2l1.8 2.4-1.4.7-2.3-2.9-.3-1.7 14.7-2.6.3 1.9-12.8 2.2zm-1.9-12l1.7 2.4-1.5.6-2.2-3-.2-1.7 14.8-2 .3 1.9-12.9 1.8zm-1.4-12.2l1.6 2.5-1.5.5-2-3.1-.2-1.7 14.9-1.4.2 1.9-13 1.3zm4.2-17.9c5.1-.2 8 1.5 8.1 4.8.1 2.9-2.5 5-7.4 5.3-5 .2-7.9-1.8-8-4.8-.1-3.2 2.6-5.1 7.3-5.3zm.7 8.1c3.9-.2 6-1.5 5.9-3.3-.1-2.1-2.6-2.9-6.4-2.8-3.7.2-6 1.2-5.9 3.3.1 1.8 2.3 3 6.4 2.8zm-.8-20c5.1-.1 7.9 1.8 8 5.1 0 2.9-2.7 4.9-7.6 5.1-5 .1-7.8-2-7.9-5.1-.1-3.2 2.7-5 7.5-5.1zm.3 8.1c3.9-.1 6.1-1.3 6-3.1 0-2.1-2.5-3-6.3-3-3.7.1-6.1 1-6 3.1.1 1.8 2.3 3.1 6.3 3zm.1-20.1c5.1.2 7.8 2.2 7.7 5.5-.1 2.9-2.9 4.8-7.9 4.7-5-.2-7.7-2.4-7.6-5.5.2-3.2 3.1-4.9 7.8-4.7zm0 8.1c3.9.1 6.1-1 6.2-2.8.1-2.1-2.3-3.1-6.1-3.3-3.7-.1-6.1.7-6.2 2.8-.1 1.8 2 3.2 6.1 3.3zm-4.9-15l1.2 2.7-1.6.3-1.5-3.4.1-1.7 14.9 1.2-.2 1.9-12.9-1zm7.3-16.9c5 .6 7.6 2.8 7.2 6.1-.4 2.9-3.3 4.5-8.2 4-5-.6-7.5-3.1-7.1-6.1.3-3.2 3.4-4.6 8.1-4zm-.8 8c3.9.5 6.2-.4 6.4-2.3.3-2.1-2-3.3-5.8-3.8-3.7-.5-6.2.2-6.4 2.3-.2 1.8 1.8 3.3 5.8 3.8zm-3.5-15.3l.9 2.8-1.6.1-1.2-3.5.3-1.7 14.7 2.5-.3 1.9-12.8-2.1zm8.7-16.3c5 1.1 7.3 3.5 6.6 6.7-.6 2.9-3.7 4.2-8.5 3.2-4.9-1-7.2-3.7-6.5-6.7.6-3 3.7-4.2 8.4-3.2zm-1.5 8c3.8.8 6.2.1 6.6-1.7.4-2-1.7-3.5-5.5-4.3-3.6-.8-6.2-.3-6.6 1.7-.3 1.8 1.5 3.5 5.5 4.3zm-2.2-15.6l.7 2.9h-1.6l-.9-3.6.4-1.7 14.5 3.7-.5 1.9-12.6-3.2zm10.1-15.4c4.9 1.5 7 4.1 6 7.3-.9 2.8-4 3.9-8.8 2.5-4.8-1.5-6.8-4.3-5.9-7.2.9-3.1 4.1-4 8.7-2.6zm-2.2 7.8c3.7 1.1 6.2.6 6.7-1.1.6-2-1.4-3.6-5.1-4.7-3.5-1.1-6.1-.9-6.7 1.1-.4 1.7 1.3 3.5 5.1 4.7zm-.8-15.7l.4 3-1.6-.1-.6-3.7.6-1.6 14.1 5-.7 1.8-12.2-4.4zm11.4-14.5c4.7 1.9 6.6 4.7 5.4 7.8-1.1 2.7-4.4 3.5-9 1.7-4.6-1.9-6.4-4.9-5.3-7.7 1.2-3 4.5-3.6 8.9-1.8zm-2.8 7.6c3.6 1.5 6.1 1.2 6.8-.5.8-1.9-1.1-3.7-4.6-5.2-3.4-1.4-6-1.4-6.8.5-.7 1.7.8 3.7 4.6 5.2zm7.8-18.5c4.6 2.1 6.4 5 5 8-1.2 2.7-4.5 3.3-9 1.3-4.6-2.1-6.2-5.2-4.9-8 1.2-2.8 4.5-3.3 8.9-1.3zm-3.2 7.4c3.5 1.6 6 1.4 6.8-.2.9-1.9-.9-3.8-4.4-5.4-3.3-1.5-5.9-1.7-6.8.2-.7 1.7.7 3.8 4.4 5.4zm8.5-18.1c4.5 2.3 6.2 5.3 4.7 8.2-1.3 2.6-4.7 3.1-9.1.9-4.5-2.3-5.9-5.5-4.6-8.2 1.5-2.7 4.8-3.1 9-.9zm-3.4 7.3c3.5 1.8 6 1.7 6.8.1.9-1.8-.8-3.8-4.2-5.6-3.3-1.7-5.9-1.9-6.8-.1-.8 1.7.5 3.8 4.2 5.6zm9.3-17.7c4.4 2.5 5.9 5.5 4.3 8.4-1.4 2.5-4.8 2.9-9.1.5-4.4-2.5-5.7-5.7-4.2-8.4s4.9-2.9 9-.5zm-3.8 7.2c3.4 1.9 5.9 2 6.8.4 1-1.8-.6-3.9-3.9-5.7-3.2-1.8-5.8-2.2-6.8-.4-.9 1.5.4 3.6 3.9 5.7zm10.1-17.4c4.3 2.7 5.7 5.8 3.9 8.6-1.5 2.5-4.9 2.7-9.1.1-4.3-2.7-5.4-6-3.8-8.5 1.7-2.7 5-2.7 9-.2zm-4.1 7c3.3 2.1 5.8 2.2 6.8.7 1.1-1.8-.4-3.9-3.7-5.9-3.1-2-5.7-2.4-6.8-.7-.9 1.5.3 3.7 3.7 5.9z"/></g><g class="st2"><path class="st1" d="M330.9 661.8c-39.3 0-77.8-6.8-114.4-20.3-35.4-13-68-31.9-97.1-56.1C60.9 536.7 20.7 469 6.2 394.7 2.1 373.8 0 352.4 0 330.9 0 266.3 18.6 203.8 53.8 150 115.2 56.1 218.8 0 330.9 0c88.4 0 171.5 34.4 234 96.9 62.5 62.5 96.9 145.6 96.9 234s-34.4 171.5-96.9 234-145.6 96.9-234 96.9zm0-635.8C227.6 26 132.2 77.7 75.5 164.2 43.1 213.8 26 271.4 26 330.9c0 19.8 1.9 39.6 5.7 58.9 27.9 142.5 153.7 246 299.2 246 168.1 0 304.9-136.8 304.9-304.9C635.8 162.8 499 26 330.9 26z"/></g><g class="st3"><g class="st4"><path id="XMLID_17_" class="st1" d="M330.9 553.4c-59.4 0-115.3-23.1-157.3-65.2-42-42-65.2-97.9-65.2-157.3 0-59.4 23.1-115.3 65.2-157.3 42-42 97.9-65.2 157.3-65.2s115.3 23.1 157.3 65.2c42 42 65.2 97.9 65.2 157.3 0 59.4-23.1 115.3-65.2 157.3-42 42-97.9 65.2-157.3 65.2zm0-442c-121 0-219.5 98.5-219.5 219.5s98.5 219.5 219.5 219.5 219.5-98.5 219.5-219.5-98.5-219.5-219.5-219.5z"/></g></g><g class="st3"><path class="st1" d="M330.9 530.2c-35.6 0-70.5-9.5-101-27.5l8.6-14.6c27.9 16.4 59.8 25.1 92.4 25.1 41.4 0 80.4-13.5 112.9-39.1l10.5 13.3c-35.5 28-78.2 42.8-123.4 42.8z"/></g><g class="st3"><path class="st1" d="M487.8 239c-32.6-55.5-92.7-90-157-90v-18c35.5 0 70.4 9.4 100.8 27.3 29.6 17.3 54.3 42.1 71.7 71.6l-15.5 9.1z"/></g><g class="st0"><path id="XMLID_14_" class="st1" d="M330.9 505.9c-96.5 0-175-78.5-175-175s78.5-175 175-175 175 78.5 175 175-78.5 175-175 175zm0-346c-94.3 0-171 76.7-171 171s76.7 171 171 171 171-76.7 171-171-76.7-171-171-171z"/></g><g class="st3"><path class="st1" d="M502 422.1l-5.3-2.8c8.7-16.4 15-33.9 18.5-52.1l5.9 1.2c-3.7 18.7-10.1 36.8-19.1 53.7z"/></g><g class="st3"><path class="st1" d="M189 207.8l-4.5-3.9c22.5-25.9 51.5-45.5 83.8-56.5l1.9 5.7c-31.4 10.7-59.4 29.6-81.2 54.7z"/></g><g class="st3"><path class="st1" d="M200.1 474c-30.9-28.3-51.5-64.8-59.5-105.6l5.9-1.2c7.7 39.6 27.7 75 57.6 102.4l-4 4.4z"/></g><g class="st3"><path class="st1" d="M393.3 239.1c0-3 .4-5.9 1.1-8.6-20.7-3.5-48.3-6.6-63.6-6.6-14.8 0-41.1 2.9-61.6 6.3.8 2.9 1.2 5.9 1.2 9 0 18-14.1 32.7-31.9 33.6 2.2 29.7 9.8 70.1 18.9 91.9 14.9 36.1 66.6 67.9 73.5 73.5 6.8-5.6 58.5-37.3 73.4-73.5 9-21.8 16.7-62.3 18.9-92-16.8-2.1-29.9-16.3-29.9-33.6zm5 86.5c-2.9 13-6.2 24.5-9.5 32.5-9.9 24-41.9 47.9-57.9 59.2-15.9-11.3-48-35.2-57.9-59.2-3.3-7.9-6.6-19.5-9.5-32.5-2.8-12.7-5.2-26.7-6.8-40.1 16.5-7 28.4-22.6 30.3-41 17-2.3 33.9-3.8 43.9-3.8 10.3 0 28.4 1.7 45.9 4.1 2 17.5 12.9 32.5 28.3 39.8-1.5 13.6-4 28-6.8 41z"/></g><g class="st3"><path class="st7" d="M359.3 323.1c-2-2.6-5-4.3-9-5.3 5.1-2.6 7.3-7 6.7-13.2-.2-2.3-.8-4.2-1.9-5.9-1-1.7-2.5-3-4.2-4-1.8-1-3.7-1.8-5.8-2.3-2.1-.5-4.5-.9-7.2-1.2v-12.9H330v12.6c-1.4 0-3.5 0-6.3.1v-12.7h-7.9v12.9c-1.1 0-2.8.1-5 .1l-10.9-.1v8.4h5.7c2.6 0 4.1 1.2 4.6 3.5v14.7c.3 0 .6 0 .8.1h-.8v20.6c-.3 1.7-1.3 2.6-3 2.6h-5.7l-1.6 9.4h15.9v13.1h7.9v-12.9c1.4 0 3.5.1 6.3.1v12.9h7.9v-13.1c2.8-.1 5.3-.4 7.5-.8s4.3-1 6.2-1.8c2-.8 3.6-1.8 5-3 1.3-1.2 2.4-2.7 3.3-4.6.9-1.8 1.4-4 1.7-6.4.5-4.7-.3-8.3-2.3-10.9zm-35.4-22.9h2c1.1 0 2 0 2.8-.1.7 0 1.7 0 3 .1s2.3.2 3.2.4c.9.2 1.8.5 2.8.8 1 .4 1.8.9 2.5 1.4.6.6 1.1 1.3 1.6 2.2.4.9.6 1.9.6 3 0 1-.2 1.8-.5 2.6s-.8 1.4-1.4 2c-.6.5-1.2 1-1.9 1.4-.7.4-1.5.7-2.5 1-1 .2-1.9.4-2.6.6-.8.1-1.7.2-2.8.3-1.1 0-2 .1-2.6.1h-4.2v-15.8zm21.6 35c-.3.8-.7 1.5-1.3 2.1-.5.6-1.2 1.1-2 1.5-.8.4-1.7.8-2.4 1.1-.8.3-1.7.5-2.8.7-1.1.2-2.1.4-2.9.4-.8.1-1.8.2-3 .2s-2.1.1-2.7.1H324V324c.3 0 1.1 0 2.4-.1h3.3c.8 0 2 0 3.5.2 1.5.1 2.8.3 3.8.5s2.1.5 3.4 1c1.2.4 2.2.9 3 1.6.8.6 1.4 1.4 1.9 2.4s.8 2.1.8 3.3c-.1.6-.3 1.5-.6 2.3zm0 0"/></g></svg>