<svg id="Слой_1" xmlns="http://www.w3.org/2000/svg" viewBox="0 0 76 92"><style>.st0{fill:#0da5ce}</style><path id="XMLID_19_" class="st0" d="M38.1 92c-.2 0-.3 0-.5-.1-17.6-9.3-24-14.9-28-19.2C5 67.7.4 59.6.2 59.3c-.2-.2-.2-.4-.2-.6V17.1c0-.6.4-1 1-1 6.8 0 15.3 0 36.5-15.9.4-.3 1.1-.2 1.4.2.3.4.2 1.1-.2 1.4C19.3 16.3 10.4 18 2 18.1v40.4c.8 1.4 5 8.5 9 12.8 3.9 4.2 10.2 9.7 27.5 18.8.5.3.7.9.4 1.4-.1.3-.5.5-.8.5z"/><path id="XMLID_18_" class="st0" d="M38.7 92c-.4 0-.7-.2-.9-.5-.3-.5-.1-1.1.4-1.4C55.5 81 61.8 75.5 65.7 71.3c4-4.4 7.7-11.5 8.3-12.8V18.1c-7.5-.1-16.7-1.9-35.9-16.3-.4-.3-.5-1-.2-1.4.3-.4 1-.5 1.4-.2C60.5 16.1 69.2 16.1 75 16.1c.6 0 1 .4 1 1v41.6c0 .1 0 .3-.1.4-.2.3-4.1 8.5-8.7 13.5-4 4.3-10.4 10-28 19.2-.2.2-.4.2-.5.2z"/><path id="XMLID_15_" class="st0" d="M63 59.3H13c-.6 0-1-.4-1-1v-29c0-.6.4-1 1-1h50c.6 0 1 .4 1 1v29c0 .6-.4 1-1 1zm-49-2h48v-27H14v27z"/></svg>